<?xml version="1.0" standalone="no"?>
<!DOCTYPE svg PUBLIC "-//W3C//DTD SVG 1.1//EN" "http://www.w3.org/Graphics/SVG/1.1/DTD/svg11.dtd">
<svg xmlns="http://www.w3.org/2000/svg">
<defs >
<font id="Figtree" horiz-adv-x="534" ><font-face
    font-family="Figtree Light Medium"
    units-per-em="1000"
    panose-1="0 0 0 0 0 0 0 0 0 0"
    ascent="950"
    descent="-250"
    alphabetic="0" />
<glyph unicode=" " horiz-adv-x="244" />
<glyph unicode="!" horiz-adv-x="302" d="M97 210L175 700H278L191 210H97ZM113 -15Q95 -15 81 -6T60 20T56 54Q60 77 79 93T121 110Q140 110 154 101T174 76T179 42Q174 19 155 2T113 -15Z" />
<glyph unicode="&quot;" horiz-adv-x="345" d="M107 476L138 716H230L181 476H107ZM240 476L271 716H363L314 476H240Z" />
<glyph unicode="#" horiz-adv-x="630" d="M294 0L521 700H595L368 0H294ZM0 191L21 257H584L563 191H0ZM71 0L298 700H372L145 0H71ZM78 434L100 500H662L641 434H78Z" />
<glyph unicode="$" horiz-adv-x="561" d="M258 23Q189 23 141 44T67 98T35 168L125 192Q133 156 164 131T248 106Q315 105 359 133T410 206Q416 243 389 266T310 303L241 322Q199 333 167 356T120 414T113 499Q127 583 189 630T355 677Q418 677 460 657T527 604T558
534L468 510Q460 548 429 571T347 594Q291 594 253 566T206 492Q200 455 219 435T278 406L349 388Q434 367 474 314T504 199Q496 149 465 109T381 46T258 23ZM190 -103L338 780H421L273 -103H190Z" />
<glyph unicode="%" horiz-adv-x="793" d="M52 0L666 700H772L155 0H52ZM231 379Q183 379 150 401T103 463T96 553Q104 601 129 637T192 694T275 715Q323 715 356 693T403 631T409 541Q402 494 377 458T314 400T231 379ZM230 449Q268 449 298 478T335 553Q342 593
326 618T276 644Q238 644 208 615T170 541Q164 501 180 475T230 449ZM551 -15Q503 -15 470 7T423 69T416 159Q424 207 449 243T512 300T595 321Q643 321 676 299T724 237T730 147Q722 100 697 64T634 6T551 -15ZM551 55Q589 55 619 84T655 159Q662 199 646 225T596
251Q558 251 528 222T491 147Q484 107 501 81T551 55Z" />
<glyph unicode="&amp;" horiz-adv-x="644" d="M220 -14Q159 -14 115 10T50 77T39 176Q49 237 90 282T187 362L302 432Q357 466 392 501T428 573Q428 602 409 617T357 633Q320 633 290 610T254 550Q250 524 262 503T294 450L396 301L595 0H481L317 249L216 403Q197
434 183 459T163 510T162 563Q169 607 197 641T266 694T355 714Q409 714 448 693T507 635T518 548Q512 509 486 476T418 411T323 346L241 296Q218 282 196 264T158 223T136 166Q129 123 154 97T225 70Q276 70 323 86T411 134T478 209T514 307L605 304Q590 211 536
139T400 27T220 -14Z" />
<glyph unicode="&apos;" horiz-adv-x="212" d="M107 476L138 716H230L181 476H107Z" />
<glyph unicode="(" horiz-adv-x="363" d="M165 -99Q128 -38 102 34T67 187T72 356Q87 441 121 519T205 669T310 801L410 799Q353 735 302 662T216 509T166 344Q146 223 173 110T254 -101L165 -99Z" />
<glyph unicode=")" horiz-adv-x="363" d="M232 799Q269 738 295 666T330 514T324 344Q310 260 276 181T193 31T87 -101L-14 -99Q44 -34 94 39T181 192T231 356Q251 477 223 590T142 801L232 799Z" />
<glyph unicode="*" horiz-adv-x="483" d="M263 539L282 716H359L320 539H263ZM296 512L288 567L461 630L473 557L296 512ZM341 376L268 525L318 559L409 421L341 376ZM193 374L136 419L269 556L313 522L193 374ZM278 513L113 558L150 632L305 567L278 513Z" />
<glyph unicode="+" horiz-adv-x="626" d="M243 70L319 526H400L323 70H243ZM86 257L100 338H556L542 257H86Z" />
<glyph unicode="," horiz-adv-x="236" d="M-24 -115L70 103H174L54 -115H-24Z" />
<glyph unicode="-" horiz-adv-x="414" d="M58 256L72 339H372L358 256H58Z" />
<glyph unicode="." horiz-adv-x="219" d="M72 -14Q54 -14 40 -5T18 20T14 54Q18 77 37 93T80 110Q99 110 112 101T133 77T137 42Q133 19 114 3T72 -14Z" />
<glyph unicode="/" horiz-adv-x="403" d="M-41 -84L374 747H471L58 -84H-41Z" />
<glyph unicode="0" horiz-adv-x="643" d="M290 -12Q225 -12 177 16T98 94T58 212T61 360Q79 464 126 543T241 667T388 712Q452 712 500 684T579 606T619 488T616 340Q599 238 552 159T436 34T290 -12ZM290 78Q346 78 393 113T474 210T520 350Q533 428 521 489T474
587T385 623Q332 623 285 588T204 492T157 350Q144 271 156 210T203 114T290 78Z" />
<glyph unicode="1" horiz-adv-x="417" d="M170 0L279 647L296 700H384L265 0H170ZM101 509L116 598Q137 597 169 612T234 651T295 701L349 633Q288 580 225 543T101 509Z" />
<glyph unicode="2" horiz-adv-x="564" d="M119 41L28 80Q33 113 52 146T103 212T179 273L331 372Q358 390 382 413T424 462T444 513Q450 559 422 591T338 623Q298 623 266 608T210 567T174 515L75 539Q94 586 131 625T222 688T336 712Q409 712 458 685T530 609T542
500Q534 445 496 397T391 302L249 208Q217 187 189 162T143 107T119 41ZM14 0L28 80L103 88H482L468 0H14Z" />
<glyph unicode="3" horiz-adv-x="547" d="M234 -12Q179 -12 137 5T69 50T30 111L120 146Q128 132 139 116T172 87T230 75Q275 75 311 93T369 141T397 210Q403 249 386 275T329 316T230 330H202L214 404H234Q296 404 346 389T432 346T484 278T492 187Q482 126 444
81T351 12T234 -12ZM204 342L216 413H237Q318 413 372 442T434 527Q440 566 412 595T331 625Q292 625 257 608T195 556L118 598Q141 634 175 659T252 698T339 712Q403 712 449 687T518 618T532 521Q524 477 498 444T430 388T338 354T229 342H204Z" />
<glyph unicode="4" horiz-adv-x="625" d="M104 195L37 238L431 700L483 644L104 195ZM24 161L37 238L98 248H594L580 161H24ZM321 0L429 640L431 700H532L415 0H321Z" />
<glyph unicode="5" horiz-adv-x="576" d="M253 -12Q209 -12 164 2T85 44T33 115L119 149Q144 109 178 92T252 74Q296 74 333 93T395 145T427 223Q438 283 407 321T315 360Q277 360 240 344T181 304L94 326L192 700H572L557 610H187L192 697H290L184 320L117 328Q133
349 157 368T209 404T271 430T339 439Q403 439 448 410T515 331T526 214Q514 147 476 96T380 17T253 -12Z" />
<glyph unicode="6" horiz-adv-x="569" d="M261 -12Q187 -12 142 15T74 89T48 199T57 332Q71 418 100 488T171 608T268 685T388 712Q444 712 494 695T580 648L520 580Q492 603 458 613T393 624Q296 624 230 542T140 293L122 316Q156 375 211 409T335 443Q395 443
440 417T511 348T536 251Q536 198 516 151T459 67T372 9T261 -12ZM264 74Q316 74 355 98T416 163T438 250Q438 300 406 329T322 359Q277 359 240 340T179 286T148 206Q139 147 171 111T264 74Z" />
<glyph unicode="7" horiz-adv-x="542" d="M41 0L477 631L575 621L153 0H41ZM100 610L114 700H587L575 621L487 610H100Z" />
<glyph unicode="8" horiz-adv-x="614" d="M327 337Q256 337 207 361T136 428T123 528Q132 582 166 624T254 689T377 712Q449 712 498 687T569 618T582 516Q573 463 539 423T450 360T327 337ZM327 403Q369 403 403 418T458 460T485 521Q492 569 462 599T375 629Q334
629 300 613T243 569T216 502Q210 458 241 431T327 403ZM268 -12Q189 -12 135 13T56 84T41 188Q51 248 88 292T185 362T322 387Q403 388 457 361T535 286T550 176Q541 120 503 78T406 12T268 -12ZM272 73Q320 73 359 89T424 135T454 203Q462 254 425 285T322 316Q275
316 236 300T171 254T141 185Q134 135 170 104T272 73Z" />
<glyph unicode="9" horiz-adv-x="569" d="M342 712Q415 712 460 685T528 610T554 500T546 368Q532 282 503 212T431 92T335 15T215 -12Q160 -12 110 5T22 51L83 119Q111 97 145 86T209 75Q307 75 373 157T462 407L481 384Q448 325 392 291T268 257Q207 257 162
283T92 352T66 449Q66 502 86 549T143 633T230 691T342 712ZM338 626Q287 626 248 601T186 536T164 450Q164 401 196 371T280 340Q326 340 363 359T424 413T455 493Q463 553 431 589T338 626Z" />
<glyph unicode=":" horiz-adv-x="266" d="M160 377Q142 377 128 386T107 411T102 445Q107 468 126 484T168 501Q187 501 201 492T221 468T226 433Q221 410 202 394T160 377ZM98 -2Q80 -2 66 7T45 32T41 67Q45 90 64 106T106 123Q125 123 139 114T160 89T163 55Q160
32 141 15T98 -2Z" />
<glyph unicode=";" horiz-adv-x="271" d="M157 376Q139 376 125 385T104 410T100 444Q104 467 123 483T165 500Q184 500 198 491T219 466T223 432Q219 409 200 393T157 376ZM-22 -115L73 103H177L57 -115H-22Z" />
<glyph unicode="&lt;" horiz-adv-x="626" d="M527 502L510 407L135 256L148 339L527 502ZM148 338L473 179L458 95L135 256L148 338Z" />
<glyph unicode="=" horiz-adv-x="626" d="M131 357L144 438H544L531 357H131ZM97 157L111 238H511L497 157H97Z" />
<glyph unicode="&gt;" horiz-adv-x="626" d="M115 94L131 189L507 340L494 257L115 94ZM494 258L169 417L183 501L507 340L494 258Z" />
<glyph unicode="?" horiz-adv-x="507" d="M180 298L190 369L245 372Q287 373 322 389T382 436T412 507Q422 559 392 592T305 625Q260 625 223 603T169 551L84 583Q114 642 172 677T307 712Q375 712 423 684T493 607T505 495Q495 436 460 392T369 323T247 298H180ZM183
-14Q155 -14 138 4T124 51Q126 77 144 93T188 110Q216 110 233 92T248 45Q245 20 227 3T183 -14ZM163 192L189 356H286L256 192H163Z" />
<glyph unicode="@" horiz-adv-x="990" d="M444 -212Q339 -212 257 -178T122 -80T48 69T44 258Q61 358 109 442T229 587T393 681T587 715Q683 715 757 681T879 584T945 436T947 249L868 255Q887 369 857 455T758 590T586 639Q499 639 422 611T282 529T178 405T123
246Q104 134 138 48T252 -87T444 -136Q484 -136 530 -125T610 -97L646 -162Q600 -185 543 -198T444 -212ZM428 15Q362 15 317 46T252 132T244 259Q256 327 291 379T379 460T494 490Q560 490 604 459T669 373T677 247Q666 179 630 127T542 45T428 15ZM453 97Q498
97 535 118T599 175T632 259Q643 324 610 365T515 407Q470 407 432 387T369 330T335 247Q324 181 357 139T453 97ZM715 -15Q675 -15 649 0T612 44T607 109L691 107Q687 82 695 70T719 57Q753 57 783 83T836 153T868 255L947 249Q934 171 900 112T818 19T715 -15ZM606
106L666 479H753L691 107L606 106Z" />
<glyph unicode="A" horiz-adv-x="691" d="M-33 0L366 700H472L80 0H-33ZM540 0L380 700H475L640 0H540ZM132 187L147 275H550L535 187H132Z" />
<glyph unicode="B" horiz-adv-x="611" d="M106 0L121 89H307Q370 89 411 120T460 206Q468 258 435 287T332 315H159L172 396L291 395Q383 395 446 372T540 303T558 187Q543 97 476 49T305 0H106ZM47 0L164 700H261L144 0H47ZM156 312L171 399H352Q411 399 448
430T492 515Q499 565 469 591T375 618H208L221 699L386 701Q458 701 507 678T577 610T588 501Q579 446 542 405T443 340T303 317L156 312Z" />
<glyph unicode="C" horiz-adv-x="723" d="M350 -12Q247 -12 176 35T74 165T60 356Q78 460 134 540T274 666T456 712Q523 712 579 688T675 622T731 524L639 490Q627 530 600 559T535 605T454 622Q382 622 320 587T215 488T159 344Q145 265 165 205T234 111T353
77Q401 77 446 96T530 148T595 224L678 179Q643 122 591 79T476 12T350 -12Z" />
<glyph unicode="D" horiz-adv-x="691" d="M263 0L275 92Q326 92 374 112T462 168T529 253T566 356Q578 427 556 484T484 574T365 608L377 700Q477 700 547 655T650 529T664 344Q651 268 616 205T527 97T406 26T263 0ZM118 0L132 92H278L263 0H118ZM47 0L164 700H262L145
0H47ZM219 608L235 700H380L365 608H219Z" />
<glyph unicode="E" horiz-adv-x="591" d="M47 0L164 700H262L145 0H47ZM129 0L144 90H486L470 0H129ZM182 314L197 402H503L489 314H182ZM231 610L246 700H585L571 610H231Z" />
<glyph unicode="F" horiz-adv-x="546" d="M47 0L164 700H262L145 0H47ZM182 300L198 390H494L479 300H182ZM235 610L249 700H588L574 610H235Z" />
<glyph unicode="G" horiz-adv-x="756" d="M374 -12Q293 -12 229 16T123 95T65 212T60 355Q74 435 110 500T200 613T325 686T478 712Q538 712 589 693T678 641T738 565L651 518Q636 550 608 573T543 609T469 622Q394 622 328 588T218 493T160 346Q150 290 161 242T202
157T276 99T381 78Q446 78 499 104T587 178T634 287L730 292Q714 198 667 130T545 25T374 -12ZM463 280L477 362H742L730 292L678 280H463Z" />
<glyph unicode="H" horiz-adv-x="751" d="M47 0L164 700H262L145 0H47ZM522 0L639 700H737L620 0H522ZM182 315L196 405H620L606 315H182Z" />
<glyph unicode="I" horiz-adv-x="276" d="M47 0L164 700H262L145 0H47Z" />
<glyph unicode="J" horiz-adv-x="525" d="M169 -12Q127 -12 95 0T41 32T6 78T-14 128L68 161Q77 140 90 121T123 90T172 78Q209 78 245 94T309 148T348 249L423 700H521L439 208Q430 152 404 111T341 43T259 2T169 -12Z" />
<glyph unicode="K" horiz-adv-x="625" d="M150 222L136 326L555 700H683L150 222ZM47 0L164 700H259L142 0H47ZM458 0L231 356L306 418L576 0H458Z" />
<glyph unicode="L" horiz-adv-x="524" d="M47 0L164 700H262L145 0H47ZM122 0L137 90H485L470 0H122Z" />
<glyph unicode="M" horiz-adv-x="850" d="M47 0L164 700H262L145 0H47ZM417 191L170 668L215 686L267 700L479 285L417 191ZM417 191L382 285L729 700L779 686L819 669L417 191ZM620 0L737 700H835L718 0H620Z" />
<glyph unicode="N" horiz-adv-x="774" d="M544 0L180 645L265 700L629 56L544 0ZM47 0L164 700H265L249 618L145 0H47ZM544 0L661 700H760L643 0H544Z" />
<glyph unicode="O" horiz-adv-x="780" d="M362 -12Q285 -12 223 15T120 92T64 210T61 361Q79 466 134 544T272 667T453 712Q531 712 592 685T694 607T750 489T752 338Q735 235 680 156T542 33T362 -12ZM366 78Q437 78 497 112T599 208T653 348Q666 428 645 489T573
586T450 622Q379 622 318 588T215 492T160 351Q147 271 169 210T242 113T366 78Z" />
<glyph unicode="P" horiz-adv-x="586" d="M179 250L195 341H355Q394 341 425 359T476 410T503 480Q511 538 479 574T387 610H240L254 700H397Q467 701 516 672T588 590T600 469Q589 405 554 356T465 278T348 250H179ZM47 0L164 700H262L145 0H47Z" />
<glyph unicode="Q" horiz-adv-x="783" d="M362 -12Q285 -12 223 15T120 92T64 210T61 361Q79 466 134 544T272 667T453 712Q531 712 592 685T694 607T750 489T752 338Q735 235 680 156T542 33T362 -12ZM625 -40L413 215L487 277L696 23L625 -40ZM366 78Q437 78
497 112T599 208T653 348Q666 428 645 489T573 586T450 622Q379 622 318 588T215 492T160 351Q147 271 169 210T242 113T366 78Z" />
<glyph unicode="R" horiz-adv-x="631" d="M182 268L197 358H349Q387 358 419 374T474 421T502 490Q510 544 478 577T386 610H240L254 700L397 701Q468 702 517 673T590 594T601 478Q591 417 552 369T452 295T322 268H182ZM47 0L164 700H262L145 0H47ZM440 0L321
286L405 338L548 0H440Z" />
<glyph unicode="S" horiz-adv-x="612" d="M277 -13Q220 -13 176 0T101 36T53 87T32 148L130 173Q138 132 173 104T268 74Q344 74 393 106T450 188Q456 232 424 258T335 300L261 320Q215 333 179 358T126 421T118 512Q133 606 202 658T386 711Q456 711 504 689T579
631T612 553L515 527Q505 572 470 598T376 624Q310 624 267 593T217 507Q210 465 234 443T303 408L379 389Q442 373 483 342T541 269T551 182Q542 126 507 82T415 13T277 -13Z" />
<glyph unicode="T" horiz-adv-x="561" d="M189 0L297 642H396L288 0H189ZM73 610L87 700H624L610 610H73Z" />
<glyph unicode="U" horiz-adv-x="706" d="M312 -15Q229 -15 173 19T91 113T79 252H178Q169 199 183 160T232 98T317 76Q371 76 416 98T492 161T530 252H628Q615 172 571 112T461 18T312 -15ZM79 252L154 700H252L178 252H79ZM530 252L604 700H703L628 252H530Z" />
<glyph unicode="V" horiz-adv-x="701" d="M262 0L660 700H767L363 0H262ZM254 0L84 700H187L350 0H254Z" />
<glyph unicode="W" horiz-adv-x="967" d="M602 0L931 700H1032L700 0H602ZM179 0L84 700H182L274 0H179ZM189 0L508 700H602L284 0H189ZM595 0L515 700H606L690 0H595Z" />
<glyph unicode="X" horiz-adv-x="632" d="M-33 0L300 384L577 700H696L371 333L89 0H-33ZM462 0L294 333L89 700H204L372 384L579 0H462Z" />
<glyph unicode="Y" horiz-adv-x="616" d="M364 291L279 325L568 700H684L364 291ZM217 0L273 336H372L316 0H217ZM269 291L85 700H197L361 325L269 291Z" />
<glyph unicode="Z" horiz-adv-x="638" d="M18 92L549 631L654 608L146 92H18ZM2 0L18 92H564L549 0H2ZM108 608L122 700H669L654 608H108Z" />
<glyph unicode="[" horiz-adv-x="329" d="M30 -100L181 800H353L338 713H254L133 -13H217L202 -100H30Z" />
<glyph unicode="\" horiz-adv-x="681" d="M609 -84H510L97 747H194L609 -84Z" />
<glyph unicode="]" horiz-adv-x="329" d="M333 800L182 -100H10L24 -13H108L229 713H146L161 800H333Z" />
<glyph unicode="^" horiz-adv-x="559" d="M98 373L308 700H402L189 373H98ZM417 373L310 700H401L503 373H417Z" />
<glyph unicode="_" horiz-adv-x="437" d="M-37 -84L-23 0H377L363 -84H-37Z" />
<glyph unicode="`" horiz-adv-x="114" d="M341 568L248 700H360L440 568H341Z" />
<glyph unicode="a" horiz-adv-x="590" d="M392 0L403 93L471 500H565L481 0H392ZM229 -12Q168 -12 123 17T55 97T36 216Q39 275 59 328T113 423T195 488T299 512Q361 512 401 484T459 405T474 286Q471 213 450 157T395 64T318 7T229 -12ZM257 74Q297 74 329 92T383
141T418 209T432 286Q434 349 403 387T317 426Q276 426 243 408T185 360T147 293T132 216Q131 154 165 114T257 74Z" />
<glyph unicode="b" horiz-adv-x="590" d="M24 0L141 700H236L135 93L114 0H24ZM361 512Q423 512 467 483T535 403T554 284Q552 225 532 172T477 77T395 12T291 -12Q230 -12 190 16T131 96T116 214Q119 287 140 343T195 436T272 493T361 512ZM334 426Q293 426 262
408T207 359T172 291T158 214Q156 151 187 113T274 74Q314 74 347 92T405 140T443 207T458 284Q460 346 426 386T334 426Z" />
<glyph unicode="c" horiz-adv-x="545" d="M256 -12Q200 -12 156 8T82 64T41 150T39 256Q52 332 91 389T191 479T328 512Q377 512 418 495T489 449T531 378L442 348Q427 385 396 405T321 425Q273 425 234 402T169 340T134 248Q125 197 138 159T184 98T261 75Q310
75 350 99T415 164L496 124Q456 58 394 23T256 -12Z" />
<glyph unicode="d" horiz-adv-x="590" d="M392 0L403 93L504 700H598L481 0H392ZM229 -12Q168 -12 123 17T55 97T36 216Q39 275 59 328T113 423T195 488T299 512Q361 512 401 484T459 405T474 286Q471 213 450 157T395 64T318 7T229 -12ZM257 74Q297 74 329 92T383
141T418 209T432 286Q434 349 403 387T317 426Q276 426 243 408T185 360T147 293T132 216Q131 154 165 114T257 74Z" />
<glyph unicode="e" horiz-adv-x="550" d="M252 -12Q177 -10 125 25T50 120T40 259Q53 336 94 393T196 482T330 512Q403 510 450 475T515 378T519 232H426Q436 292 430 337T397 409T321 437Q274 438 235 414T169 347T132 247Q123 191 136 151T181 89T258 67Q310
66 350 90T415 154L492 111Q466 70 429 42T346 1T252 -12ZM99 232L106 303H473L467 232H99Z" />
<glyph unicode="f" horiz-adv-x="375" d="M74 0L168 557Q181 635 224 675T344 715Q367 715 393 707T446 686L401 615Q381 624 367 628T343 633Q308 633 288 611T260 543L169 0H74ZM56 421L69 500H391L378 421H56Z" />
<glyph unicode="g" horiz-adv-x="589" d="M201 -212Q150 -212 110 -202T43 -180T2 -158L47 -85Q60 -92 81 -102T134 -120T203 -128Q273 -128 326 -85T394 49L470 500H564L489 49Q475 -37 435 -95T336 -183T201 -212ZM231 7Q162 7 115 40T47 132T41 268Q54 342
90 396T181 481T300 512Q367 512 409 479T468 388T471 253Q458 180 424 124T341 38T231 7ZM258 87Q300 87 336 109T397 170T430 260Q438 309 427 347T387 406T316 428Q272 428 235 407T171 347T136 258Q128 208 141 170T184 109T258 87Z" />
<glyph unicode="h" horiz-adv-x="561" d="M25 0L144 711H238L119 0H25ZM370 0L413 257L513 285L465 0H370ZM413 257Q425 325 415 360T381 409T321 424Q258 424 217 381T162 258L121 261Q135 341 167 397T246 482T354 512Q446 512 489 456T513 285L413 257Z" />
<glyph unicode="i" horiz-adv-x="241" d="M30 0L116 500H210L125 0H30ZM190 606Q167 606 150 623T133 664Q133 688 150 704T190 721Q214 721 230 705T247 664Q247 641 231 624T190 606Z" />
<glyph unicode="j" horiz-adv-x="262" d="M-34 -215Q-56 -215 -80 -208T-129 -187L-82 -109Q-43 -128 -24 -128Q42 -128 56 -46L147 500H242L149 -52Q135 -133 89 -174T-34 -215ZM222 606Q199 606 182 623T165 664Q165 688 182 704T222 721Q246 721 262 705T279
664Q279 641 263 624T222 606Z" />
<glyph unicode="k" horiz-adv-x="499" d="M24 0L141 700H236L119 0H24ZM145 151L93 216L403 500H523L145 151ZM343 0L204 274L274 340L453 0H343Z" />
<glyph unicode="l" horiz-adv-x="229" d="M24 0L143 700H237L119 0H24Z" />
<glyph unicode="m" horiz-adv-x="907" d="M24 0L108 500H197L187 408L119 0H24ZM370 0L413 257L513 286L465 0H370ZM716 0L759 257L858 285L810 0H716ZM413 257Q424 325 415 360T381 409T321 424Q258 424 217 381T161 258L121 261Q135 341 167 397T246 482T354
512Q446 512 489 456T512 285L413 257ZM758 257Q770 325 760 360T726 409T667 424Q604 424 562 381T507 258L466 261Q480 341 512 397T592 482T699 512Q791 512 834 456T858 285L758 257Z" />
<glyph unicode="n" horiz-adv-x="561" d="M24 0L108 500H197L187 408L119 0H24ZM370 0L413 257L512 285L464 0H370ZM413 257Q424 325 415 360T381 409T321 424Q258 424 217 381T161 258L121 261Q135 341 167 397T246 482T354 512Q446 512 489 456T512 285L413 257Z" />
<glyph unicode="o" horiz-adv-x="582" d="M260 -12Q184 -12 130 22T51 118T40 259Q52 334 92 391T192 480T323 512Q399 512 453 478T532 382T542 241Q530 166 490 109T391 20T260 -12ZM262 75Q308 75 347 97T413 159T448 251Q457 303 444 342T399 403T321 425Q275
425 236 403T170 341T134 249Q125 197 139 158T185 97T262 75Z" />
<glyph unicode="p" horiz-adv-x="595" d="M-4 -200L113 500H202L192 408L91 -200H-4ZM365 512Q427 512 472 483T540 403T559 284Q556 225 536 172T482 77T400 12T295 -12Q235 -12 195 16T136 96T121 214Q124 287 145 343T200 436T277 493T365 512ZM338 426Q298
426 266 408T212 359T177 291T163 214Q161 151 192 113T278 74Q319 74 352 92T410 140T448 207T463 284Q464 346 430 386T338 426Z" />
<glyph unicode="q" horiz-adv-x="595" d="M354 -200L455 407L476 500H565L448 -200H354ZM229 -12Q168 -12 123 17T55 97T36 216Q39 275 59 328T113 423T195 488T299 512Q361 512 401 484T459 405T474 286Q471 213 450 157T395 64T318 7T229 -12ZM257 74Q297 74
329 92T383 141T418 209T432 286Q434 349 403 387T317 426Q276 426 243 408T185 360T147 293T132 216Q131 154 165 114T257 74Z" />
<glyph unicode="r" horiz-adv-x="351" d="M24 0L108 500H203L119 0H24ZM127 269Q141 350 180 401T271 477T378 502L366 412Q322 412 279 399T204 354T164 270L127 269Z" />
<glyph unicode="s" horiz-adv-x="473" d="M201 -12Q145 -12 106 4T44 48T15 106L99 133Q109 99 137 82T200 64Q228 64 255 73T299 101T316 146Q316 170 297 185T238 212L193 224Q136 239 106 271T75 345Q75 396 102 433T177 491T289 512Q361 512 402 483T456 404L374
375Q365 409 342 422T276 435Q232 435 201 413T169 357Q169 341 187 326T244 300L285 289Q353 272 384 236T416 154Q416 103 386 66T308 8T201 -12Z" />
<glyph unicode="t" horiz-adv-x="392" d="M223 -12Q148 -12 115 27T94 138L180 656H275L190 149Q183 113 197 94T245 75Q256 75 269 80T303 96L329 20Q297 3 272 -4T223 -12ZM56 418L69 500H391L378 418H56Z" />
<glyph unicode="u" horiz-adv-x="561" d="M364 0L374 92L442 500H537L453 0H364ZM49 215L97 500H191L148 243L49 215ZM148 243Q137 175 146 140T181 91T240 76Q303 76 344 119T400 242L440 239Q427 159 395 103T315 18T207 -12Q116 -12 73 44T49 215L148 243Z" />
<glyph unicode="v" horiz-adv-x="531" d="M181 0L465 500H564L273 0H181ZM175 0L51 500H146L263 0H175Z" />
<glyph unicode="w" horiz-adv-x="801" d="M140 0L53 500H148L230 0H140ZM146 0L396 500H482L234 0H146ZM484 0L404 500H489L571 0H484ZM484 0L735 500H832L578 0H484Z" />
<glyph unicode="x" horiz-adv-x="492" d="M-32 0L221 287L400 500H514L276 227L84 0H-32ZM328 0L216 227L66 500H177L285 287L440 0H328Z" />
<glyph unicode="y" horiz-adv-x="539" d="M52 -212Q30 -212 4 -204T-48 -182L-2 -106Q38 -125 58 -125Q84 -125 104 -111T139 -71L220 65L471 500H574L244 -64Q217 -110 191 -143T132 -194T52 -212ZM185 0L49 500H150L258 66L277 0H185Z" />
<glyph unicode="z" horiz-adv-x="488" d="M71 18L12 73L417 485L474 429L71 18ZM-1 0L12 73L73 81H417L404 0H-1ZM70 419L83 500H486L474 429L412 419H70Z" />
<glyph unicode="{" horiz-adv-x="391" d="M75 339L80 386Q118 386 141 397T178 437T200 518Q215 603 231 658T272 744T333 787T423 800L412 719Q377 718 355 700T317 636T287 507Q278 456 265 423T229 372T168 347T75 339ZM274 -100Q205 -100 171 -75T132 13T146
194Q154 243 151 269T130 304T71 314L77 361Q151 361 188 346T235 292T233 181Q220 101 219 58T234 -1T286 -19L274 -100Z" />
<glyph unicode="|" horiz-adv-x="257" d="M10 -220L179 790H259L90 -220H10Z" />
<glyph unicode="}" horiz-adv-x="390" d="M349 361L344 314Q305 314 282 303T246 263T224 182Q209 97 193 42T152 -44T91 -87T1 -100L12 -19Q47 -18 69 0T107 64T137 193Q146 244 159 277T195 328T256 353T349 361ZM149 800Q220 800 254 775T293 687T278 506Q270
457 273 432T294 396T353 386L347 339Q274 339 236 354T189 409T191 519Q204 599 204 642T190 701T138 719L149 800Z" />
<glyph unicode="~" horiz-adv-x="590" d="M389 211Q354 211 322 229T271 281Q255 307 242 319T209 332Q185 332 167 313T138 259H59Q68 307 89 343T144 401T223 422Q263 422 293 403T339 358Q351 341 360 328T380 308T403 301Q430 301 447 321T475 374H554Q545
326 523 290T468 232T389 211Z" />
<glyph unicode="&#xa0;" horiz-adv-x="244" />
<glyph unicode="&#xa1;" horiz-adv-x="296" d="M205 288L127 -203H24L111 288H205ZM189 512Q207 512 221 503T242 478T246 444Q242 421 223 404T181 387Q163 387 149 396T127 422T123 456Q127 479 146 495T189 512Z" />
<glyph unicode="&#xa2;" horiz-adv-x="545" d="M213 0L332 700H395L276 0H213ZM274 98Q218 98 174 118T100 174T59 260T57 366Q70 442 109 499T209 589T346 622Q395 622 436 605T507 559T549 488L460 458Q445 495 414 515T339 535Q291 535 252 512T187 450T152
358Q143 307 156 269T202 208T279 185Q328 185 368 209T433 274L514 234Q474 168 412 133T274 98Z" />
<glyph unicode="&#xa3;" horiz-adv-x="582" d="M106 154L165 510Q177 573 210 618T292 688T402 712Q464 712 508 688T571 617T579 503L486 519Q495 569 471 598T401 627Q367 627 337 611T288 568T262 504L204 162L106 154ZM41 25V90Q62 90 82 109T106 154L204
162Q197 121 174 90T115 42T41 25ZM5 0L20 90H511L495 0H5ZM53 286L67 368H441L427 286H53Z" />
<glyph unicode="&#xa4;" horiz-adv-x="567" d="M279 172Q225 172 187 195T132 261T123 356Q132 406 160 443T231 502T325 524Q380 524 418 501T473 438T482 344Q474 294 445 255T373 194T279 172ZM280 254Q325 254 357 283T395 359Q401 396 381 419T324 443Q280
443 248 415T210 341Q205 303 224 279T280 254ZM115 142L66 197L171 289L222 235L115 142ZM199 409L117 503L179 560L263 464L199 409ZM420 142L348 227L412 282L484 197L420 142ZM431 416L380 470L486 560L535 503L431 416Z" />
<glyph unicode="&#xa5;" horiz-adv-x="558" d="M334 293L251 325L512 709H625L334 293ZM186 0L242 336H341L285 0H186ZM77 185L87 249H466L456 185H77ZM95 293L105 356H484L474 293H95ZM239 293L85 709H194L327 325L239 293Z" />
<glyph unicode="&#xa6;" horiz-adv-x="280" d="M117 350L190 790H270L197 350H117ZM21 -220L95 220H175L101 -220H21Z" />
<glyph unicode="&#xa7;" horiz-adv-x="558" d="M235 -90Q177 -90 136 -72T72 -26T45 34L127 55Q132 24 158 4T226 -18Q281 -18 317 5T361 67Q365 96 344 115T281 145L219 161Q165 176 132 213T108 313Q120 384 174 424T315 464Q367 464 402 447T456 402T482 340L410
321Q402 354 372 372T304 391Q259 391 229 368T192 304Q187 275 203 259T253 235L314 219Q384 200 418 156T445 59Q434 -5 380 -47T235 -90ZM273 158Q222 158 186 176T131 225T108 287L165 303Q170 284 185 268T224 242T274 233Q325 233 359 255T399 315Q404 345
383 363T319 394L258 410Q203 425 170 462T147 561Q159 633 212 672T354 712Q407 712 444 695T502 651T529 590L448 570Q442 602 417 620T350 639Q302 639 269 616T230 552Q225 524 241 508T291 483L353 468Q425 449 458 405T483 307Q472 242 419 200T273 158Z"
/>
<glyph unicode="&#xa8;" horiz-adv-x="365" d="M121 613Q99 613 83 629T67 666Q67 689 83 704T121 720Q143 720 159 705T175 666Q175 645 159 629T121 613ZM371 613Q349 613 333 629T317 666Q317 689 333 704T371 720Q393 720 409 705T425 666Q425 645 409 629T371 613Z" />
<glyph unicode="&#xa9;" horiz-adv-x="809" d="M390 152Q333 152 292 178T233 250T225 357Q234 413 265 456T341 523T441 548Q503 548 545 516T601 434L529 416Q521 446 499 462T445 479Q410 479 379 462T328 413T300 341Q291 288 315 254T388 220Q426 220 456
241T507 293L576 261Q546 211 497 182T390 152ZM367 -11Q290 -11 228 17T123 95T65 211T60 356Q73 431 111 496T205 609T331 684T476 712Q553 712 615 684T718 606T777 489T782 344Q769 269 731 205T637 92T511 16T367 -11ZM367 60Q451 60 523 98T643 203T706 356Q721
439 696 503T614 604T477 641Q393 641 321 603T199 498T135 344Q122 261 147 197T229 97T367 60Z" />
<glyph unicode="&#xaa;" horiz-adv-x="379" d="M284 400L290 456L331 700H407L356 400H284ZM191 393Q142 393 109 426T75 513Q75 565 93 609T148 680T237 707Q285 707 310 677T336 595Q336 556 326 520T298 455T253 410T191 393ZM216 463Q244 463 264 479T296
520T308 571Q308 601 292 619T247 637Q221 637 200 622T167 582T155 531Q155 501 171 482T216 463Z" />
<glyph unicode="&#xab;" horiz-adv-x="576" d="M262 298L448 500H563L379 298H262ZM383 96L264 298H376L492 96H383ZM57 298L243 500H358L174 298H57ZM178 96L59 298H171L287 96H178Z" />
<glyph unicode="&#xac;" horiz-adv-x="503" d="M68 289L82 371H445L431 289H68ZM331 182L363 371H445L413 182H331Z" />
<glyph unicode="&#xad;" horiz-adv-x="414" d="M58 256L72 339H372L358 256H58Z" />
<glyph unicode="&#xae;" horiz-adv-x="621" d="M303 167Q243 167 196 188T117 246T73 334T71 445Q80 503 108 552T178 636T271 692T381 712Q441 712 488 691T567 633T611 545T614 433Q604 376 576 327T507 243T413 187T303 167ZM303 225Q366 225 419 252T509 329T555
443Q566 507 548 554T487 628T381 654Q318 654 265 627T176 550T129 436Q119 373 137 325T197 251T303 225ZM216 298L265 590H369Q415 590 441 562T459 490Q455 464 438 443T392 411L439 298H377L335 402H289L272 298H216ZM297 454H347Q366 454 383 468T404 502Q407
519 397 529T364 539H312L297 454Z" />
<glyph unicode="&#xaf;" horiz-adv-x="311" d="M54 571L68 655H379L365 571H54Z" />
<glyph unicode="&#xb0;" horiz-adv-x="369" d="M218 435Q180 435 152 453T109 503T99 571Q103 612 125 643T183 693T259 712Q297 712 325 694T369 646T379 579Q376 539 353 507T294 455T218 435ZM224 505Q254 505 277 527T304 580Q308 606 293 624T253 642Q225
642 202 621T174 571Q171 544 185 525T224 505Z" />
<glyph unicode="&#xb1;" horiz-adv-x="626" d="M256 150L326 564H406L337 150H256ZM97 318L109 396H565L552 318H97ZM44 9L57 79H512L500 9H44Z" />
<glyph unicode="&#xb2;" horiz-adv-x="363" d="M139 396L68 441Q73 470 100 502T169 559L243 607Q268 622 288 643T310 684Q313 706 299 721T258 736Q229 736 207 719T174 678L94 698Q111 742 154 774T257 807Q329 807 364 770T391 675Q384 637 360 608T293 552L227
509Q208 497 190 481T158 445T139 396ZM57 380L68 441L129 451H358L346 380H57Z" />
<glyph unicode="&#xb3;" horiz-adv-x="333" d="M194 373Q137 373 102 398T61 465L136 483Q141 474 146 464T162 448T190 442Q225 442 248 461T274 510Q278 534 259 550T193 566H166L176 620H194Q242 620 280 604T337 559T350 490Q344 453 321 427T264 387T194
373ZM169 580L177 632H198Q239 632 266 646T296 691Q298 708 285 723T247 738Q227 738 209 728T175 694L106 721Q120 750 143 769T196 797T253 807Q294 807 323 792T367 750T375 689Q369 652 342 628T276 592T192 580H169Z" />
<glyph unicode="&#xb4;" horiz-adv-x="304" d="M110 568L241 700H357L214 568H110Z" />
<glyph unicode="&#xb5;" horiz-adv-x="561" d="M-20 -200L97 500H191L121 81L115 80L68 -200H-20ZM227 -12Q150 -12 113 45T95 217L148 241Q137 174 146 139T179 90T236 76Q300 76 343 120T399 243L439 238Q419 118 365 53T227 -12ZM364 0L374 92L442 500H537L453 0H364Z" />
<glyph unicode="&#xb6;" horiz-adv-x="557" d="M245 250Q181 250 136 280T70 362T62 481Q73 546 108 595T196 672T313 700H370L295 250H245ZM205 -84L336 700H416L285 -84H205ZM333 -84L464 700H543L412 -84H333ZM398 610L412 700H474L460 610H398Z" />
<glyph unicode="&#xb7;" horiz-adv-x="256" d="M138 267Q120 267 106 276T84 301T80 335Q84 358 103 374T146 391Q165 391 178 382T199 358T203 323Q199 300 180 284T138 267Z" />
<glyph unicode="&#xb8;" horiz-adv-x="211" d="M36 -210Q13 -210 -13 -203T-71 -174L-44 -127Q-28 -136 -11 -143T22 -151Q47 -151 63 -140T80 -107Q80 -88 61 -78T7 -64L52 7L114 -4L93 -32Q119 -42 134 -62T150 -107Q150 -158 120 -184T36 -210Z" />
<glyph unicode="&#xb9;" horiz-adv-x="283" d="M152 380L215 758L229 800H299L228 380H152ZM111 670L123 741Q137 740 156 749T195 772T229 800L274 749Q231 710 191 689T111 670Z" />
<glyph unicode="&#xba;" horiz-adv-x="364" d="M213 393Q166 393 133 414T84 471T77 556Q88 623 137 665T252 707Q299 707 332 686T380 629T387 544Q380 500 355 466T294 412T213 393ZM212 464Q248 464 276 490T310 556Q317 592 301 614T253 636Q217 636 189 611T155
544Q149 509 164 487T212 464Z" />
<glyph unicode="&#xbb;" horiz-adv-x="576" d="M331 298L144 96H30L214 298H331ZM209 500L328 298H216L100 500H209ZM535 298L349 96H234L418 298H535ZM414 500L533 298H421L305 500H414Z" />
<glyph unicode="&#xbc;" horiz-adv-x="833" d="M135 280L198 658L212 700H282L211 280H135ZM94 570L106 641Q120 640 139 649T178 672T212 700L257 649Q214 610 174 589T94 570ZM109 0L590 700H676L195 0H109ZM505 116L450 148L683 420L723 376L505 116ZM440 83L450
148L496 152H796L785 83H440ZM620 0L684 376L683 420H767L696 0H620Z" />
<glyph unicode="&#xbd;" horiz-adv-x="865" d="M135 280L198 658L212 700H282L211 280H135ZM94 570L106 641Q120 640 139 649T178 672T212 700L257 649Q214 610 174 589T94 570ZM109 0L590 700H676L195 0H109ZM577 16L506 61Q511 90 538 122T607 179L681 227Q706
242 726 263T748 304Q751 326 737 341T696 356Q667 356 645 339T612 298L532 318Q549 362 592 394T695 427Q767 427 802 390T829 295Q822 257 798 228T731 172L665 129Q646 117 628 101T596 65T577 16ZM495 0L506 61L567 71H796L784 0H495Z" />
<glyph unicode="&#xbe;" horiz-adv-x="883" d="M177 273Q120 273 85 298T44 365L119 383Q124 374 129 364T145 348T173 342Q208 342 231 361T257 410Q261 434 242 450T176 466H149L159 520H177Q225 520 263 504T320 459T333 390Q327 353 304 327T247 287T177 273ZM152
480L160 532H181Q222 532 249 546T279 591Q281 608 268 623T230 638Q210 638 192 628T158 594L89 621Q103 650 126 669T179 697T236 707Q277 707 306 692T350 650T358 589Q352 552 325 528T259 492T175 480H152ZM159 0L640 700H726L245 0H159ZM555 116L500 148L733
420L773 376L555 116ZM490 83L500 148L546 152H846L835 83H490ZM670 0L734 376L733 420H817L746 0H670Z" />
<glyph unicode="&#xbf;" horiz-adv-x="465" d="M298 200L287 129L232 126Q191 126 155 110T96 63T65 -8Q57 -60 86 -93T172 -126Q218 -126 255 -105T308 -52L393 -85Q364 -143 306 -178T171 -214Q102 -214 54 -186T-16 -109T-27 4Q-17 63 18 107T109 175T231 200H298ZM294
513Q322 513 339 494T354 448Q352 422 334 405T289 388Q262 388 245 406T230 453Q232 479 250 496T294 513ZM315 307L289 142H192L221 307H315Z" />
<glyph unicode="&#xc0;" horiz-adv-x="691" d="M-33 0L366 700H472L80 0H-33ZM540 0L380 700H475L640 0H540ZM132 187L147 275H550L535 187H132ZM432 747L339 879H451L531 747H432Z" />
<glyph unicode="&#xc1;" horiz-adv-x="691" d="M-33 0L366 700H472L80 0H-33ZM540 0L380 700H475L640 0H540ZM132 187L147 275H550L535 187H132ZM354 747L485 879H601L458 747H354Z" />
<glyph unicode="&#xc2;" horiz-adv-x="691" d="M-33 0L366 700H472L80 0H-33ZM540 0L380 700H475L640 0H540ZM132 187L147 275H550L535 187H132ZM249 759L393 891H498V889L355 759H249ZM508 759L405 890L406 891H499L599 759H508Z" />
<glyph unicode="&#xc3;" horiz-adv-x="691" d="M-33 0L366 700H472L80 0H-33ZM540 0L380 700H475L640 0H540ZM132 187L147 275H550L535 187H132ZM514 740Q485 740 468 751T442 776T424 801T402 812Q386 812 375 804T356 775H286Q296 822 326 852T408 882Q437 882
453 871T477 846T494 821T517 810Q536 810 546 820T562 849H633Q619 804 592 772T514 740Z" />
<glyph unicode="&#xc4;" horiz-adv-x="691" d="M-33 0L366 700H472L80 0H-33ZM540 0L380 700H475L640 0H540ZM132 187L147 275H550L535 187H132ZM320 792Q298 792 282 808T266 845Q266 868 282 883T320 899Q342 899 358 884T374 845Q374 824 358 808T320 792ZM570
792Q548 792 532 808T516 845Q516 868 532 883T570 899Q592 899 608 884T624 845Q624 824 608 808T570 792Z" />
<glyph unicode="&#xc5;" horiz-adv-x="691" d="M-33 0L366 700H472L80 0H-33ZM540 0L380 700H475L640 0H540ZM132 187L147 275H550L535 187H132ZM432 730Q393 730 367 755T340 817Q340 849 355 873T396 912T455 927Q493 927 519 902T545 839Q545 807 530 783T489
744T432 730ZM435 791Q455 791 467 804T480 840Q480 866 451 866Q431 866 419 853T406 818Q406 806 414 799T435 791Z" />
<glyph unicode="&#xc6;" horiz-adv-x="1007" d="M-33 0L503 700H610L81 0H-33ZM185 187L200 275H547L532 187H185ZM546 0L560 90H902L887 0H546ZM463 0L580 700H680L563 0H463ZM598 314L613 402H919L905 314H598ZM495 610L510 700H1002L987 610H495Z" />
<glyph unicode="&#xc7;" horiz-adv-x="723" d="M350 -12Q247 -12 176 35T74 165T60 356Q78 460 134 540T274 666T456 712Q523 712 579 688T675 622T731 524L639 490Q627 530 600 559T535 605T454 622Q382 622 320 587T215 488T159 344Q145 265 165 205T234 111T353
77Q401 77 446 96T530 148T595 224L678 179Q643 122 591 79T476 12T350 -12ZM284 -210Q261 -210 235 -203T177 -174L204 -127Q220 -136 237 -143T270 -151Q295 -151 311 -140T328 -107Q328 -88 309 -78T255 -64L300 7L362 -4L341 -32Q367 -42 382 -62T398 -107Q398
-158 368 -184T284 -210Z" />
<glyph unicode="&#xc8;" horiz-adv-x="591" d="M47 0L164 700H262L145 0H47ZM129 0L144 90H486L470 0H129ZM182 314L197 402H503L489 314H182ZM231 610L246 700H585L571 610H231ZM387 747L294 879H406L486 747H387Z" />
<glyph unicode="&#xc9;" horiz-adv-x="591" d="M47 0L164 700H262L145 0H47ZM129 0L144 90H486L470 0H129ZM182 314L197 402H503L489 314H182ZM231 610L246 700H585L571 610H231ZM310 747L441 879H557L414 747H310Z" />
<glyph unicode="&#xca;" horiz-adv-x="591" d="M47 0L164 700H262L145 0H47ZM129 0L144 90H486L470 0H129ZM182 314L197 402H503L489 314H182ZM231 610L246 700H585L571 610H231ZM204 759L348 891H453V889L310 759H204ZM463 759L360 890L361 891H454L554 759H463Z" />
<glyph unicode="&#xcb;" horiz-adv-x="591" d="M47 0L164 700H262L145 0H47ZM129 0L144 90H486L470 0H129ZM182 314L197 402H503L489 314H182ZM231 610L246 700H585L571 610H231ZM276 792Q254 792 238 808T222 845Q222 868 238 883T276 899Q298 899 314 884T330
845Q330 824 314 808T276 792ZM526 792Q504 792 488 808T472 845Q472 868 488 883T526 899Q548 899 564 884T580 845Q580 824 564 808T526 792Z" />
<glyph unicode="&#xcc;" horiz-adv-x="276" d="M47 0L164 700H262L145 0H47ZM224 747L131 879H243L323 747H224Z" />
<glyph unicode="&#xcd;" horiz-adv-x="276" d="M47 0L164 700H262L145 0H47ZM146 747L277 879H393L250 747H146Z" />
<glyph unicode="&#xce;" horiz-adv-x="276" d="M47 0L164 700H262L145 0H47ZM41 759L185 891H290V889L147 759H41ZM300 759L197 890L198 891H291L391 759H300Z" />
<glyph unicode="&#xcf;" horiz-adv-x="285" d="M170 791Q148 791 132 807T116 845Q116 867 132 883T170 899Q193 899 208 883T224 845Q224 823 209 807T170 791ZM315 791Q293 791 277 807T261 845Q261 867 277 883T315 899Q337 899 352 883T368 845Q368 823 353
807T315 791ZM52 0L169 700H268L151 0H52Z" />
<glyph unicode="&#xd0;" horiz-adv-x="750" d="M79 311L91 388H413L400 311H79ZM321 0L334 92Q385 92 433 112T521 168T588 253T624 356Q636 427 614 484T542 574T423 608L435 700Q536 700 606 655T708 529T722 344Q710 268 675 205T585 97T464 26T321 0ZM176
0L191 92H337L321 0H176ZM105 0L222 700H321L204 0H105ZM278 608L293 700H438L423 608H278Z" />
<glyph unicode="&#xd1;" horiz-adv-x="774" d="M544 0L180 645L265 700L629 56L544 0ZM47 0L164 700H265L249 618L145 0H47ZM544 0L661 700H760L643 0H544ZM549 734Q520 734 503 745T477 770T459 795T437 806Q421 806 410 798T391 769H321Q331 816 361 846T443
876Q472 876 488 865T512 840T529 815T552 804Q571 804 581 814T597 843H668Q654 798 627 766T549 734Z" />
<glyph unicode="&#xd2;" horiz-adv-x="780" d="M362 -12Q285 -12 223 15T120 92T64 210T61 361Q79 466 134 544T272 667T453 712Q531 712 592 685T694 607T750 489T752 338Q735 235 680 156T542 33T362 -12ZM366 78Q437 78 497 112T599 208T653 348Q666 428 645
489T573 586T450 622Q379 622 318 588T215 492T160 351Q147 271 169 210T242 113T366 78ZM464 747L371 879H483L563 747H464Z" />
<glyph unicode="&#xd3;" horiz-adv-x="780" d="M362 -12Q285 -12 223 15T120 92T64 210T61 361Q79 466 134 544T272 667T453 712Q531 712 592 685T694 607T750 489T752 338Q735 235 680 156T542 33T362 -12ZM366 78Q437 78 497 112T599 208T653 348Q666 428 645
489T573 586T450 622Q379 622 318 588T215 492T160 351Q147 271 169 210T242 113T366 78ZM387 747L518 879H634L491 747H387Z" />
<glyph unicode="&#xd4;" horiz-adv-x="780" d="M362 -12Q285 -12 223 15T120 92T64 210T61 361Q79 466 134 544T272 667T453 712Q531 712 592 685T694 607T750 489T752 338Q735 235 680 156T542 33T362 -12ZM366 78Q437 78 497 112T599 208T653 348Q666 428 645
489T573 586T450 622Q379 622 318 588T215 492T160 351Q147 271 169 210T242 113T366 78ZM281 759L425 891H530V889L387 759H281ZM540 759L437 890L438 891H531L631 759H540Z" />
<glyph unicode="&#xd5;" horiz-adv-x="780" d="M362 -12Q285 -12 223 15T120 92T64 210T61 361Q79 466 134 544T272 667T453 712Q531 712 592 685T694 607T750 489T752 338Q735 235 680 156T542 33T362 -12ZM366 78Q437 78 497 112T599 208T653 348Q666 428 645
489T573 586T450 622Q379 622 318 588T215 492T160 351Q147 271 169 210T242 113T366 78ZM546 740Q517 740 500 751T474 776T456 801T434 812Q418 812 407 804T388 775H318Q328 822 358 852T440 882Q469 882 485 871T509 846T526 821T549 810Q568 810 578 820T594
849H665Q651 804 624 772T546 740Z" />
<glyph unicode="&#xd6;" horiz-adv-x="780" d="M362 -12Q285 -12 223 15T120 92T64 210T61 361Q79 466 134 544T272 667T453 712Q531 712 592 685T694 607T750 489T752 338Q735 235 680 156T542 33T362 -12ZM366 78Q437 78 497 112T599 208T653 348Q666 428 645
489T573 586T450 622Q379 622 318 588T215 492T160 351Q147 271 169 210T242 113T366 78ZM353 792Q331 792 315 808T299 845Q299 868 315 883T353 899Q375 899 391 884T407 845Q407 824 391 808T353 792ZM603 792Q581 792 565 808T549 845Q549 868 565 883T603
899Q625 899 641 884T657 845Q657 824 641 808T603 792Z" />
<glyph unicode="&#xd7;" horiz-adv-x="626" d="M432 100L147 439L209 496L495 156L432 100ZM148 100L100 156L492 496L542 439L148 100Z" />
<glyph unicode="&#xd8;" horiz-adv-x="794" d="M-4 0L723 700H832L104 0H-4ZM368 -12Q290 -12 228 15T126 92T69 210T67 361Q85 466 140 544T277 667T459 712Q536 712 597 685T699 607T756 489T757 338Q741 235 685 156T548 33T368 -12ZM372 78Q443 78 503 112T604
208T658 348Q672 428 650 489T578 586T456 622Q384 622 323 588T221 492T166 351Q153 271 175 210T248 113T372 78Z" />
<glyph unicode="&#xd9;" horiz-adv-x="706" d="M312 -15Q229 -15 173 19T91 113T79 252H178Q169 199 183 160T232 98T317 76Q371 76 416 98T492 161T530 252H628Q615 172 571 112T461 18T312 -15ZM79 252L154 700H252L178 252H79ZM530 252L604 700H703L628 252H530ZM439
747L346 879H458L538 747H439Z" />
<glyph unicode="&#xda;" horiz-adv-x="706" d="M312 -15Q229 -15 173 19T91 113T79 252H178Q169 199 183 160T232 98T317 76Q371 76 416 98T492 161T530 252H628Q615 172 571 112T461 18T312 -15ZM79 252L154 700H252L178 252H79ZM530 252L604 700H703L628 252H530ZM361
747L492 879H608L465 747H361Z" />
<glyph unicode="&#xdb;" horiz-adv-x="706" d="M312 -15Q229 -15 173 19T91 113T79 252H178Q169 199 183 160T232 98T317 76Q371 76 416 98T492 161T530 252H628Q615 172 571 112T461 18T312 -15ZM79 252L154 700H252L178 252H79ZM530 252L604 700H703L628 252H530ZM256
759L400 891H505V889L362 759H256ZM515 759L412 890L413 891H506L606 759H515Z" />
<glyph unicode="&#xdc;" horiz-adv-x="706" d="M312 -15Q229 -15 173 19T91 113T79 252H178Q169 199 183 160T232 98T317 76Q371 76 416 98T492 161T530 252H628Q615 172 571 112T461 18T312 -15ZM79 252L154 700H252L178 252H79ZM530 252L604 700H703L628 252H530ZM327
792Q305 792 289 808T273 845Q273 868 289 883T327 899Q349 899 365 884T381 845Q381 824 365 808T327 792ZM577 792Q555 792 539 808T523 845Q523 868 539 883T577 899Q599 899 615 884T631 845Q631 824 615 808T577 792Z" />
<glyph unicode="&#xdd;" horiz-adv-x="616" d="M364 291L279 325L568 700H684L364 291ZM217 0L273 336H372L316 0H217ZM269 291L85 700H197L361 325L269 291ZM314 738L445 870H561L418 738H314Z" />
<glyph unicode="&#xde;" horiz-adv-x="592" d="M165 135L180 226H338Q377 226 408 244T459 295T486 367Q495 424 464 459T371 495H224L240 585L382 586Q448 587 497 559T570 482T586 367Q579 301 544 248T454 165T332 135H165ZM49 1L166 701H267L150 1H49Z" />
<glyph unicode="&#xdf;" horiz-adv-x="570" d="M24 0L110 510Q121 573 155 618T242 688T359 712Q425 712 471 688T539 617T550 509Q543 467 524 433T473 373T403 334T314 320H270L284 402H287Q342 402 376 416T430 458T455 522Q464 569 436 598T357 627Q320 627
288 611T234 568T206 504L122 0H24ZM213 0L228 89H269Q331 89 372 119T422 200Q431 250 402 278T314 306H267L281 386H292Q416 386 474 335T516 182Q502 95 436 48T267 0H213Z" />
<glyph unicode="&#xe0;" horiz-adv-x="590" d="M392 0L403 93L471 500H565L481 0H392ZM229 -12Q168 -12 123 17T55 97T36 216Q39 275 59 328T113 423T195 488T299 512Q361 512 401 484T459 405T474 286Q471 213 450 157T395 64T318 7T229 -12ZM257 74Q297 74 329
92T383 141T418 209T432 286Q434 349 403 387T317 426Q276 426 243 408T185 360T147 293T132 216Q131 154 165 114T257 74ZM325 568L232 700H344L424 568H325Z" />
<glyph unicode="&#xe1;" horiz-adv-x="590" d="M392 0L403 93L471 500H565L481 0H392ZM229 -12Q168 -12 123 17T55 97T36 216Q39 275 59 328T113 423T195 488T299 512Q361 512 401 484T459 405T474 286Q471 213 450 157T395 64T318 7T229 -12ZM257 74Q297 74 329
92T383 141T418 209T432 286Q434 349 403 387T317 426Q276 426 243 408T185 360T147 293T132 216Q131 154 165 114T257 74ZM247 568L378 700H494L351 568H247Z" />
<glyph unicode="&#xe2;" horiz-adv-x="590" d="M392 0L403 93L471 500H565L481 0H392ZM229 -12Q168 -12 123 17T55 97T36 216Q39 275 59 328T113 423T195 488T299 512Q361 512 401 484T459 405T474 286Q471 213 450 157T395 64T318 7T229 -12ZM257 74Q297 74 329
92T383 141T418 209T432 286Q434 349 403 387T317 426Q276 426 243 408T185 360T147 293T132 216Q131 154 165 114T257 74ZM142 580L286 712H391V710L248 580H142ZM401 580L298 711L299 712H392L492 580H401Z" />
<glyph unicode="&#xe3;" horiz-adv-x="590" d="M392 0L403 93L471 500H565L481 0H392ZM229 -12Q168 -12 123 17T55 97T36 216Q39 275 59 328T113 423T195 488T299 512Q361 512 401 484T459 405T474 286Q471 213 450 157T395 64T318 7T229 -12ZM257 74Q297 74 329
92T383 141T418 209T432 286Q434 349 403 387T317 426Q276 426 243 408T185 360T147 293T132 216Q131 154 165 114T257 74ZM407 561Q378 561 361 572T335 597T317 622T295 633Q279 633 268 625T249 596H179Q189 643 219 673T301 703Q330 703 346 692T370 667T387
642T410 631Q429 631 439 641T455 670H526Q512 625 485 593T407 561Z" />
<glyph unicode="&#xe4;" horiz-adv-x="590" d="M392 0L403 93L471 500H565L481 0H392ZM229 -12Q168 -12 123 17T55 97T36 216Q39 275 59 328T113 423T195 488T299 512Q361 512 401 484T459 405T474 286Q471 213 450 157T395 64T318 7T229 -12ZM257 74Q297 74 329
92T383 141T418 209T432 286Q434 349 403 387T317 426Q276 426 243 408T185 360T147 293T132 216Q131 154 165 114T257 74ZM214 613Q192 613 176 629T160 666Q160 689 176 704T214 720Q236 720 252 705T268 666Q268 645 252 629T214 613ZM464 613Q442 613 426 629T410
666Q410 689 426 704T464 720Q486 720 502 705T518 666Q518 645 502 629T464 613Z" />
<glyph unicode="&#xe5;" horiz-adv-x="590" d="M392 0L403 93L471 500H565L481 0H392ZM229 -12Q168 -12 123 17T55 97T36 216Q39 275 59 328T113 423T195 488T299 512Q361 512 401 484T459 405T474 286Q471 213 450 157T395 64T318 7T229 -12ZM257 74Q297 74 329
92T383 141T418 209T432 286Q434 349 403 387T317 426Q276 426 243 408T185 360T147 293T132 216Q131 154 165 114T257 74ZM325 551Q286 551 260 576T233 638Q233 670 248 694T289 733T348 748Q386 748 412 723T438 660Q438 628 423 604T382 565T325 551ZM328 612Q348
612 360 625T373 661Q373 687 344 687Q324 687 312 674T299 639Q299 627 307 620T328 612Z" />
<glyph unicode="&#xe6;" horiz-adv-x="878" d="M362 174L370 264Q375 320 371 357T347 412T281 431Q239 431 206 414T147 363L66 400Q109 456 163 484T283 512Q352 512 394 484T450 402T452 269L436 174H362ZM187 -12Q97 -12 53 30T21 147Q33 220 87 258T229 296H409L397
227H250Q186 227 154 204T114 137Q109 103 130 83T199 63Q263 63 307 110T363 231H441Q423 118 356 53T187 -12ZM580 -12Q505 -10 453 25T378 120T368 259Q381 336 422 393T524 482T658 512Q731 510 778 475T843 378T847 232H754Q764 292 758 337T725 409T649 437Q602
438 563 414T497 347T460 247Q451 191 464 151T509 89T586 67Q638 66 678 90T743 154L820 111Q794 70 757 42T674 1T580 -12ZM427 232L434 303H801L795 232H427Z" />
<glyph unicode="&#xe7;" horiz-adv-x="545" d="M256 -12Q200 -12 156 8T82 64T41 150T39 256Q52 332 91 389T191 479T328 512Q377 512 418 495T489 449T531 378L442 348Q427 385 396 405T321 425Q273 425 234 402T169 340T134 248Q125 197 138 159T184 98T261
75Q310 75 350 99T415 164L496 124Q456 58 394 23T256 -12ZM190 -210Q167 -210 141 -203T83 -174L110 -127Q126 -136 143 -143T176 -151Q201 -151 217 -140T234 -107Q234 -88 215 -78T161 -64L206 7L268 -4L247 -32Q273 -42 288 -62T304 -107Q304 -158 274 -184T190
-210Z" />
<glyph unicode="&#xe8;" horiz-adv-x="550" d="M252 -12Q177 -10 125 25T50 120T40 259Q53 336 94 393T196 482T330 512Q403 510 450 475T515 378T519 232H426Q436 292 430 337T397 409T321 437Q274 438 235 414T169 347T132 247Q123 191 136 151T181 89T258 67Q310
66 350 90T415 154L492 111Q466 70 429 42T346 1T252 -12ZM99 232L106 303H473L467 232H99ZM343 568L250 700H362L442 568H343Z" />
<glyph unicode="&#xe9;" horiz-adv-x="550" d="M252 -12Q177 -10 125 25T50 120T40 259Q53 336 94 393T196 482T330 512Q403 510 450 475T515 378T519 232H426Q436 292 430 337T397 409T321 437Q274 438 235 414T169 347T132 247Q123 191 136 151T181 89T258 67Q310
66 350 90T415 154L492 111Q466 70 429 42T346 1T252 -12ZM99 232L106 303H473L467 232H99ZM265 568L396 700H512L369 568H265Z" />
<glyph unicode="&#xea;" horiz-adv-x="550" d="M252 -12Q177 -10 125 25T50 120T40 259Q53 336 94 393T196 482T330 512Q403 510 450 475T515 378T519 232H426Q436 292 430 337T397 409T321 437Q274 438 235 414T169 347T132 247Q123 191 136 151T181 89T258 67Q310
66 350 90T415 154L492 111Q466 70 429 42T346 1T252 -12ZM99 232L106 303H473L467 232H99ZM160 580L304 712H409V710L266 580H160ZM419 580L316 711L317 712H410L510 580H419Z" />
<glyph unicode="&#xeb;" horiz-adv-x="550" d="M252 -12Q177 -10 125 25T50 120T40 259Q53 336 94 393T196 482T330 512Q403 510 450 475T515 378T519 232H426Q436 292 430 337T397 409T321 437Q274 438 235 414T169 347T132 247Q123 191 136 151T181 89T258 67Q310
66 350 90T415 154L492 111Q466 70 429 42T346 1T252 -12ZM99 232L106 303H473L467 232H99ZM232 613Q210 613 194 629T178 666Q178 689 194 704T232 720Q254 720 270 705T286 666Q286 645 270 629T232 613ZM482 613Q460 613 444 629T428 666Q428 689 444 704T482
720Q504 720 520 705T536 666Q536 645 520 629T482 613Z" />
<glyph unicode="&#xec;" horiz-adv-x="241" d="M30 0L116 500H210L125 0H30ZM432 568L339 700H451L531 568H432Z" />
<glyph unicode="&#xed;" horiz-adv-x="241" d="M30 0L116 500H210L125 0H30ZM354 568L485 700H601L458 568H354Z" />
<glyph unicode="&#xee;" horiz-adv-x="241" d="M30 0L116 500H210L125 0H30ZM249 580L393 712H498V710L355 580H249ZM508 580L405 711L406 712H499L599 580H508Z" />
<glyph unicode="&#xef;" horiz-adv-x="241" d="M114 613Q92 613 76 629T60 666Q60 689 76 704T114 720Q137 720 152 705T168 666Q168 645 153 629T114 613ZM259 613Q237 613 221 629T205 666Q205 689 221 704T259 720Q281 720 296 705T312 666Q312 645 297 629T259
613ZM30 0L116 500H210L125 0H30Z" />
<glyph unicode="&#xf0;" horiz-adv-x="581" d="M249 -12Q174 -12 123 21T48 112T37 246Q50 319 88 374T184 461T312 493Q343 493 371 484T423 459T461 422T483 376L532 243Q519 168 479 111T379 21T249 -12ZM250 74Q296 74 335 96T401 157T436 246Q444 294 432
329T390 386T317 407Q272 407 233 385T167 324T131 234Q123 187 135 151T178 95T250 74ZM532 243L445 277Q458 355 454 417T423 525T347 602T217 652L244 735Q324 720 380 689T472 612T525 510T544 386T532 243ZM315 513L292 562L520 688L543 641L315 513Z" />
<glyph unicode="&#xf1;" horiz-adv-x="561" d="M24 0L108 500H197L187 408L119 0H24ZM370 0L413 257L512 285L464 0H370ZM413 257Q424 325 415 360T381 409T321 424Q258 424 217 381T161 258L121 261Q135 341 167 397T246 482T354 512Q446 512 489 456T512 285L413
257ZM438 561Q409 561 392 572T366 597T348 622T326 633Q310 633 299 625T280 596H210Q220 643 250 673T332 703Q361 703 377 692T401 667T418 642T441 631Q460 631 470 641T486 670H557Q543 625 516 593T438 561Z" />
<glyph unicode="&#xf2;" horiz-adv-x="582" d="M260 -12Q184 -12 130 22T51 118T40 259Q52 334 92 391T192 480T323 512Q399 512 453 478T532 382T542 241Q530 166 490 109T391 20T260 -12ZM262 75Q308 75 347 97T413 159T448 251Q457 303 444 342T399 403T321
425Q275 425 236 403T170 341T134 249Q125 197 139 158T185 97T262 75ZM344 568L251 700H363L443 568H344Z" />
<glyph unicode="&#xf3;" horiz-adv-x="582" d="M260 -12Q184 -12 130 22T51 118T40 259Q52 334 92 391T192 480T323 512Q399 512 453 478T532 382T542 241Q530 166 490 109T391 20T260 -12ZM262 75Q308 75 347 97T413 159T448 251Q457 303 444 342T399 403T321
425Q275 425 236 403T170 341T134 249Q125 197 139 158T185 97T262 75ZM267 568L398 700H514L371 568H267Z" />
<glyph unicode="&#xf4;" horiz-adv-x="582" d="M260 -12Q184 -12 130 22T51 118T40 259Q52 334 92 391T192 480T323 512Q399 512 453 478T532 382T542 241Q530 166 490 109T391 20T260 -12ZM262 75Q308 75 347 97T413 159T448 251Q457 303 444 342T399 403T321
425Q275 425 236 403T170 341T134 249Q125 197 139 158T185 97T262 75ZM161 580L305 712H410V710L267 580H161ZM420 580L317 711L318 712H411L511 580H420Z" />
<glyph unicode="&#xf5;" horiz-adv-x="582" d="M260 -12Q184 -12 130 22T51 118T40 259Q52 334 92 391T192 480T323 512Q399 512 453 478T532 382T542 241Q530 166 490 109T391 20T260 -12ZM262 75Q308 75 347 97T413 159T448 251Q457 303 444 342T399 403T321
425Q275 425 236 403T170 341T134 249Q125 197 139 158T185 97T262 75ZM426 561Q397 561 380 572T354 597T336 622T314 633Q298 633 287 625T268 596H198Q208 643 238 673T320 703Q349 703 365 692T389 667T406 642T429 631Q448 631 458 641T474 670H545Q531 625
504 593T426 561Z" />
<glyph unicode="&#xf6;" horiz-adv-x="582" d="M260 -12Q184 -12 130 22T51 118T40 259Q52 334 92 391T192 480T323 512Q399 512 453 478T532 382T542 241Q530 166 490 109T391 20T260 -12ZM262 75Q308 75 347 97T413 159T448 251Q457 303 444 342T399 403T321
425Q275 425 236 403T170 341T134 249Q125 197 139 158T185 97T262 75ZM233 613Q211 613 195 629T179 666Q179 689 195 704T233 720Q255 720 271 705T287 666Q287 645 271 629T233 613ZM483 613Q461 613 445 629T429 666Q429 689 445 704T483 720Q505 720 521 705T537
666Q537 645 521 629T483 613Z" />
<glyph unicode="&#xf7;" horiz-adv-x="626" d="M117 257L131 339H525L511 257H117ZM293 92Q270 92 257 108T247 148Q249 165 264 178T297 191Q319 191 332 175T343 136Q340 118 325 105T293 92ZM345 404Q322 404 309 420T298 459Q302 477 316 490T349 503Q372
503 385 487T395 447Q392 430 378 417T345 404Z" />
<glyph unicode="&#xf8;" horiz-adv-x="587" d="M-17 0L507 500H604L79 0H-17ZM262 -12Q186 -12 132 22T53 118T42 259Q54 334 94 391T194 480T325 512Q401 512 455 478T534 382T544 241Q532 166 492 109T393 20T262 -12ZM264 75Q310 75 349 97T415 159T450 251Q459
303 446 342T401 403T323 425Q277 425 238 403T172 341T136 249Q127 197 141 158T187 97T264 75Z" />
<glyph unicode="&#xf9;" horiz-adv-x="561" d="M364 0L374 92L442 500H537L453 0H364ZM49 215L97 500H191L148 243L49 215ZM148 243Q137 175 146 140T181 91T240 76Q303 76 344 119T400 242L440 239Q427 159 395 103T315 18T207 -12Q116 -12 73 44T49 215L148
243ZM329 568L236 700H348L428 568H329Z" />
<glyph unicode="&#xfa;" horiz-adv-x="561" d="M364 0L374 92L442 500H537L453 0H364ZM49 215L97 500H191L148 243L49 215ZM148 243Q137 175 146 140T181 91T240 76Q303 76 344 119T400 242L440 239Q427 159 395 103T315 18T207 -12Q116 -12 73 44T49 215L148
243ZM251 568L382 700H498L355 568H251Z" />
<glyph unicode="&#xfb;" horiz-adv-x="561" d="M364 0L374 92L442 500H537L453 0H364ZM49 215L97 500H191L148 243L49 215ZM148 243Q137 175 146 140T181 91T240 76Q303 76 344 119T400 242L440 239Q427 159 395 103T315 18T207 -12Q116 -12 73 44T49 215L148
243ZM146 580L290 712H395V710L252 580H146ZM405 580L302 711L303 712H396L496 580H405Z" />
<glyph unicode="&#xfc;" horiz-adv-x="561" d="M364 0L374 92L442 500H537L453 0H364ZM49 215L97 500H191L148 243L49 215ZM148 243Q137 175 146 140T181 91T240 76Q303 76 344 119T400 242L440 239Q427 159 395 103T315 18T207 -12Q116 -12 73 44T49 215L148
243ZM218 613Q196 613 180 629T164 666Q164 689 180 704T218 720Q240 720 256 705T272 666Q272 645 256 629T218 613ZM468 613Q446 613 430 629T414 666Q414 689 430 704T468 720Q490 720 506 705T522 666Q522 645 506 629T468 613Z" />
<glyph unicode="&#xfd;" horiz-adv-x="539" d="M52 -212Q30 -212 4 -204T-48 -182L-2 -106Q38 -125 58 -125Q84 -125 104 -111T139 -71L220 65L471 500H574L244 -64Q217 -110 191 -143T132 -194T52 -212ZM185 0L49 500H150L258 66L277 0H185ZM247 568L378 700H494L351
568H247Z" />
<glyph unicode="&#xfe;" horiz-adv-x="590" d="M-9 -200L141 700H236L86 -200H-9ZM360 512Q422 512 467 483T535 403T554 284Q551 225 531 172T477 77T395 12T290 -12Q230 -12 190 16T131 96T116 214Q119 287 140 343T195 436T272 493T360 512ZM333 426Q293 426
261 408T207 359T172 291T158 214Q156 151 187 113T273 74Q314 74 347 92T405 140T443 207T458 284Q459 346 425 386T333 426Z" />
<glyph unicode="&#xff;" horiz-adv-x="539" d="M52 -212Q30 -212 4 -204T-48 -182L-2 -106Q38 -125 58 -125Q84 -125 104 -111T139 -71L220 65L471 500H574L244 -64Q217 -110 191 -143T132 -194T52 -212ZM185 0L49 500H150L258 66L277 0H185ZM213 613Q191 613
175 629T159 666Q159 689 175 704T213 720Q235 720 251 705T267 666Q267 645 251 629T213 613ZM463 613Q441 613 425 629T409 666Q409 689 425 704T463 720Q485 720 501 705T517 666Q517 645 501 629T463 613Z" />
<glyph unicode="&#x2013;" horiz-adv-x="550" d="M1 256L15 339H565L551 256H1Z" />
<glyph unicode="&#x2014;" horiz-adv-x="1100" d="M1 256L15 339H1115L1101 256H1Z" />
<glyph unicode="&#x2018;" horiz-adv-x="194" d="M252 700L158 482H53L173 700H252Z" />
<glyph unicode="&#x2019;" horiz-adv-x="194" d="M56 482L150 700H254L134 482H56Z" />
<glyph unicode="&#x201a;" horiz-adv-x="223" d="M-24 -115L70 103H174L54 -115H-24Z" />
<glyph unicode="&#x201c;" horiz-adv-x="355" d="M252 700L157 482H53L173 700H252ZM414 700L319 482H215L335 700H414Z" />
<glyph unicode="&#x201d;" horiz-adv-x="356" d="M218 482L312 700H416L296 482H218ZM56 482L150 700H254L134 482H56Z" />
<glyph unicode="&#x201e;" horiz-adv-x="340" d="M116 -115L210 103H314L194 -115H116ZM210 -115L304 103H408L288 -115H210Z" />
<glyph unicode="&#x2022;" horiz-adv-x="483" d="M235 175Q204 175 180 191T146 233T139 290Q145 318 162 341T204 377T259 391Q290 391 313 376T349 335T355 278Q351 250 333 227T290 189T235 175Z" />
<glyph unicode="&#x2039;" horiz-adv-x="373" d="M57 298L243 500H358L174 298H57ZM178 96L59 298H171L287 96H178Z" />
<glyph unicode="&#x203a;" horiz-adv-x="373" d="M332 298L146 96H31L215 298H332ZM211 500L330 298H218L102 500H211Z" />
</font>
</defs>
</svg>
