<?xml version="1.0" standalone="no"?>
<!DOCTYPE svg PUBLIC "-//W3C//DTD SVG 1.1//EN" "http://www.w3.org/Graphics/SVG/1.1/DTD/svg11.dtd">
<svg xmlns="http://www.w3.org/2000/svg">
<defs >
<font id="Figtree" horiz-adv-x="534" ><font-face
    font-family="Figtree Light"
    units-per-em="1000"
    panose-1="0 0 0 0 0 0 0 0 0 0"
    ascent="950"
    descent="-250"
    alphabetic="0" />
<glyph unicode=" " horiz-adv-x="247" />
<glyph unicode="!" horiz-adv-x="298" d="M100 203L181 700H267L181 203H100ZM110 -14Q94 -14 82 -6T63 16T59 46Q63 67 80 82T118 97Q135 97 147 89T165 67T169 36Q165 16 148 1T110 -14Z" />
<glyph unicode="&quot;" horiz-adv-x="320" d="M106 482L138 716H218L171 482H106ZM226 482L258 716H338L291 482H226Z" />
<glyph unicode="#" horiz-adv-x="630" d="M299 0L526 700H592L364 0H299ZM1 195L18 251H581L564 195H1ZM73 0L300 700H366L138 0H73ZM81 444L100 500H662L644 444H81Z" />
<glyph unicode="$" horiz-adv-x="564" d="M259 23Q188 23 141 43T69 97T37 166L114 187Q122 149 156 123T248 95Q321 95 367 125T422 203Q429 243 399 269T311 309L246 326Q205 338 173 360T125 417T117 500Q131 584 192 630T358 677Q421 677 463 657T529 604T558
536L481 514Q472 556 437 580T349 605Q289 605 248 575T199 496Q192 455 213 434T276 401L344 385Q431 363 472 311T504 198Q496 149 465 109T382 46T259 23ZM197 -103L345 780H418L270 -103H197Z" />
<glyph unicode="%" horiz-adv-x="785" d="M54 0L669 700H763L146 0H54ZM231 384Q183 384 151 406T105 466T98 555Q106 602 131 638T193 694T276 715Q323 715 355 693T402 633T408 544Q401 498 376 462T313 405T231 384ZM230 447Q270 447 301 477T340 555Q347 597
330 624T276 651Q236 651 205 621T166 544Q160 502 177 475T230 447ZM543 -15Q496 -15 464 7T417 68T410 156Q418 203 443 239T506 295T588 316Q635 316 668 294T714 234T720 145Q713 99 688 63T625 6T543 -15ZM543 48Q583 48 614 78T652 156Q660 198 642 225T588
253Q548 253 517 223T478 145Q472 103 490 76T543 48Z" />
<glyph unicode="&amp;" horiz-adv-x="643" d="M220 -14Q160 -14 117 10T53 76T42 174Q53 238 96 283T196 365L298 428Q358 464 395 501T433 578Q433 608 412 625T356 643Q318 643 287 618T249 555Q244 527 257 505T291 449L391 303L591 0H491L320 260L223 406Q205
435 191 460T170 511T168 565Q176 608 203 642T270 695T355 714Q407 714 445 694T501 638T511 552Q505 514 479 481T412 417T323 356L240 305Q215 290 191 271T149 227T125 165Q117 118 145 89T224 59Q277 59 326 76T415 127T482 206T519 308L598 306Q583 213 530
140T396 27T220 -14Z" />
<glyph unicode="&apos;" horiz-adv-x="200" d="M106 482L138 716H218L171 482H106Z" />
<glyph unicode="(" horiz-adv-x="354" d="M166 -99Q130 -38 104 33T69 186T74 355Q89 441 123 519T207 669T313 801L399 799Q342 735 291 662T205 509T155 345Q135 223 163 110T244 -101L166 -99Z" />
<glyph unicode=")" horiz-adv-x="354" d="M221 799Q258 738 284 667T319 514T313 345Q299 260 264 181T181 31T75 -101L-12 -99Q46 -34 96 39T182 192T232 355Q252 477 224 590T143 801L221 799Z" />
<glyph unicode="*" horiz-adv-x="481" d="M264 543L285 716H355L317 543H264ZM295 517L287 568L458 629L468 563L295 517ZM342 385L270 530L317 561L404 426L342 385ZM192 382L140 424L270 559L311 527L192 382ZM279 518L118 564L151 631L304 569L279 518Z" />
<glyph unicode="+" horiz-adv-x="623" d="M246 71L323 525H394L317 71H246ZM87 262L99 333H553L540 262H87Z" />
<glyph unicode="," horiz-adv-x="227" d="M-21 -115L71 96H162L48 -115H-21Z" />
<glyph unicode="-" horiz-adv-x="417" d="M60 261L73 334H373L360 261H60Z" />
<glyph unicode="." horiz-adv-x="208" d="M65 -14Q49 -14 37 -6T18 17T14 47Q18 67 35 82T73 97Q90 97 102 89T120 67T124 36Q120 16 103 1T65 -14Z" />
<glyph unicode="/" horiz-adv-x="390" d="M-41 -84L374 747H458L45 -84H-41Z" />
<glyph unicode="0" horiz-adv-x="641" d="M285 -12Q223 -12 176 15T99 92T60 210T63 358Q81 462 128 542T243 667T390 712Q452 712 499 685T576 607T615 490T611 342Q594 239 547 159T432 34T285 -12ZM286 65Q345 65 394 102T479 203T529 352Q543 434 530 498T480
599T387 636Q331 636 281 599T196 498T146 348Q133 266 146 202T195 102T286 65Z" />
<glyph unicode="1" horiz-adv-x="414" d="M175 0L286 655L300 700H376L257 0H175ZM106 520L118 596Q139 596 171 611T237 650T298 701L345 641Q285 590 224 555T106 520Z" />
<glyph unicode="2" horiz-adv-x="559" d="M107 47L28 71Q34 104 52 137T99 202T171 262L335 370Q364 389 388 413T428 463T449 516Q456 566 426 601T336 636Q294 636 259 620T199 577T161 522L77 544Q96 589 133 627T222 688T333 712Q404 712 452 685T521 611T533
505Q525 452 488 404T386 309L231 206Q199 184 173 159T130 106T107 47ZM16 0L28 71L92 75H471L458 0H16Z" />
<glyph unicode="3" horiz-adv-x="544" d="M230 -12Q178 -12 138 4T73 45T34 99L108 135Q117 120 130 104T166 75T227 63Q274 63 312 82T374 133T405 207Q413 250 393 279T331 324T225 339H204L214 405H229Q292 405 343 391T429 349T479 281T486 189Q476 128 439
83T347 13T230 -12ZM205 346L215 411H231Q317 411 375 441T442 530Q449 573 419 605T331 637Q289 637 253 620T188 569L126 610Q150 642 183 665T255 700T337 712Q400 712 445 687T513 620T526 524Q518 481 492 448T426 392T334 358T224 346H205Z" />
<glyph unicode="4" horiz-adv-x="621" d="M99 196L41 235L438 700L484 652L99 196ZM30 170L41 235L96 245H590L578 170H30ZM324 0L433 646L438 700H523L406 0H324Z" />
<glyph unicode="5" horiz-adv-x="574" d="M251 -12Q209 -12 166 1T89 40T36 108L107 143Q135 100 172 81T251 61Q299 61 338 81T404 137T438 220Q450 286 417 327T317 369Q277 369 238 352T175 311L100 330L195 700H569L557 624H189L195 697H279L179 326L114 331Q131
352 155 371T208 406T268 430T332 438Q397 438 443 409T511 329T521 211Q510 145 472 95T377 17T251 -12Z" />
<glyph unicode="6" horiz-adv-x="566" d="M260 -12Q186 -12 141 15T74 91T50 201T59 334Q74 423 103 493T175 612T271 686T386 712Q441 712 490 695T576 649L522 591Q494 614 460 625T393 637Q290 637 220 550T128 288L112 310Q146 371 203 405T331 440Q391 440
436 415T507 346T532 251Q532 199 513 152T457 67T370 9T260 -12ZM263 62Q318 62 360 89T425 158T449 250Q449 303 415 335T323 367Q276 367 237 347T171 291T137 207Q127 143 162 103T263 62Z" />
<glyph unicode="7" horiz-adv-x="537" d="M38 0L493 648L571 630L134 0H38ZM104 623L117 700H582L571 630L505 623H104Z" />
<glyph unicode="8" horiz-adv-x="614" d="M327 337Q258 337 210 361T140 428T127 527Q137 582 171 623T258 688T378 712Q448 712 496 688T566 619T578 517Q569 463 535 423T447 360T327 337ZM327 400Q371 400 407 415T466 458T495 521Q504 573 471 606T376 639Q334
639 298 623T237 576T207 507Q200 459 233 430T327 400ZM268 -12Q191 -12 138 13T60 83T44 187Q54 247 92 291T189 361T323 386Q401 386 454 359T532 286T547 177Q538 121 500 79T403 12T268 -12ZM271 62Q322 62 363 79T432 127T465 197Q474 253 435 287T323 321Q273
321 231 304T162 255T129 184Q121 129 160 96T271 62Z" />
<glyph unicode="9" horiz-adv-x="566" d="M339 712Q413 712 458 685T524 609T548 499T539 366Q525 276 495 206T423 88T328 14T212 -12Q159 -12 109 5T23 51L76 109Q105 86 139 75T206 63Q309 63 378 150T471 412L487 390Q453 329 396 294T268 259Q208 259 163
285T92 354T66 449Q66 501 85 548T141 633T228 691T339 712ZM336 638Q281 638 239 611T174 542T150 450Q150 397 184 365T276 332Q323 332 362 352T428 409T461 492Q471 557 436 597T336 638Z" />
<glyph unicode=":" horiz-adv-x="253" d="M155 391Q139 391 126 399T107 421T103 451Q107 472 124 487T162 502Q179 502 191 494T210 472T213 441Q210 421 193 406T155 391ZM91 -2Q75 -2 62 6T43 29T40 59Q43 79 60 94T98 109Q115 109 127 101T145 79T149 49Q146
28 129 13T91 -2Z" />
<glyph unicode=";" horiz-adv-x="259" d="M151 390Q135 390 123 398T104 421T100 451Q104 471 121 486T159 501Q176 501 188 493T206 471T210 440Q206 420 189 405T151 390ZM-20 -115L73 96H163L50 -115H-20Z" />
<glyph unicode="&lt;" horiz-adv-x="623" d="M520 497L505 413L138 260L149 336L520 497ZM149 334L466 174L453 101L138 260L149 334Z" />
<glyph unicode="=" horiz-adv-x="623" d="M131 362L142 433H542L531 362H131ZM97 162L109 233H509L497 162H97Z" />
<glyph unicode="&gt;" horiz-adv-x="623" d="M119 99L134 183L502 336L490 260L119 99ZM490 262L174 422L186 495L502 336L490 262Z" />
<glyph unicode="?" horiz-adv-x="504" d="M184 301L194 366L244 368Q288 368 325 385T388 435T420 510Q430 566 398 601T305 637Q257 637 218 615T161 559L88 588Q117 644 174 678T306 712Q373 712 420 685T489 609T500 499Q491 440 455 395T365 326T242 301H184ZM179
-14Q154 -14 139 2T127 45Q129 68 145 82T185 97Q210 97 225 80T237 38Q234 15 218 1T179 -14ZM166 188L193 359H277L247 188H166Z" />
<glyph unicode="@" horiz-adv-x="989" d="M442 -212Q339 -212 258 -178T124 -80T51 68T47 257Q64 358 111 442T231 587T394 681T587 715Q683 715 756 681T877 585T942 437T943 249L871 255Q890 370 860 458T760 597T586 647Q499 647 421 618T280 534T176 408T119
247Q100 133 135 45T249 -94T443 -144Q484 -144 532 -133T615 -106L646 -164Q600 -186 543 -199T442 -212ZM429 15Q362 15 316 46T250 132T241 258Q253 327 289 379T379 460T497 490Q562 490 607 459T671 373T679 248Q668 180 632 127T544 45T429 15ZM448 87Q496
87 536 109T603 170T639 258Q651 328 616 372T513 417Q465 417 425 396T357 336T321 248Q309 177 344 132T448 87ZM714 -15Q675 -15 651 0T617 42T613 106L689 104Q685 79 693 65T718 51Q752 51 783 77T838 150T871 255L943 249Q930 171 897 112T816 19T714 -15ZM612
103L673 479H752L689 104L612 103Z" />
<glyph unicode="A" horiz-adv-x="682" d="M-33 0L369 700H460L64 0H-33ZM545 0L381 700H462L630 0H545ZM135 199L148 275H537L524 199H135Z" />
<glyph unicode="B" horiz-adv-x="611" d="M113 0L126 76H307Q375 76 419 109T471 200Q481 257 444 288T331 320H167L178 391H297Q387 391 448 368T537 298T554 185Q539 97 473 49T304 0H113ZM51 0L168 700H252L135 0H51ZM165 318L178 393H356Q418 393 457 426T504
516Q513 570 481 599T378 628H217L228 700L387 701Q458 701 506 678T575 611T586 504Q577 448 541 407T447 343T313 321L165 318Z" />
<glyph unicode="C" horiz-adv-x="722" d="M349 -12Q248 -12 178 35T77 165T63 355Q81 460 137 540T276 666T457 712Q521 712 576 689T671 625T728 531L651 499Q638 540 609 570T540 618T456 635Q380 635 315 598T206 496T147 345Q133 262 154 199T227 99T352 63Q401
63 448 83T536 137T604 216L673 174Q638 119 586 77T472 12T349 -12Z" />
<glyph unicode="D" horiz-adv-x="688" d="M264 0L275 78Q327 78 377 99T467 158T536 247T574 355Q587 430 564 490T490 586T369 622L379 700Q477 700 546 655T645 529T658 345Q645 269 610 206T523 97T404 26T264 0ZM119 0L132 78H278L264 0H119ZM51 0L168 700H253L136
0H51ZM223 622L236 700H381L369 622H223Z" />
<glyph unicode="E" horiz-adv-x="592" d="M51 0L168 700H253L136 0H51ZM126 0L139 77H480L467 0H126ZM181 321L193 397H503L490 321H181ZM230 623L243 700H582L570 623H230Z" />
<glyph unicode="F" horiz-adv-x="543" d="M51 0L168 700H253L136 0H51ZM179 307L193 384H493L479 307H179ZM233 623L245 700H584L572 623H233Z" />
<glyph unicode="G" horiz-adv-x="760" d="M374 -12Q292 -12 229 16T125 93T67 209T63 354Q77 434 113 499T204 612T330 686T481 712Q539 712 589 693T679 642T739 567L666 526Q651 559 621 583T553 621T476 635Q395 635 326 599T209 498T147 346Q137 286 149 235T191
146T269 86T378 65Q447 65 504 93T600 172T650 289L732 292Q716 200 667 132T543 26T374 -12ZM477 284L489 357H743L732 292L690 284H477Z" />
<glyph unicode="H" horiz-adv-x="751" d="M51 0L168 700H253L136 0H51ZM532 0L649 700H733L616 0H532ZM180 322L192 399H616L604 322H180Z" />
<glyph unicode="I" horiz-adv-x="271" d="M51 0L168 700H253L136 0H51Z" />
<glyph unicode="J" horiz-adv-x="515" d="M159 -12Q121 -12 92 -2T41 27T6 68T-16 115L52 147Q62 126 76 107T111 77T161 65Q199 65 237 82T306 140T347 247L422 700H506L424 209Q415 153 389 112T326 43T245 2T159 -12Z" />
<glyph unicode="K" horiz-adv-x="610" d="M151 240L128 317L560 700H667L151 240ZM51 0L168 700H249L132 0H51ZM461 0L232 356L294 410L561 0H461Z" />
<glyph unicode="L" horiz-adv-x="520" d="M51 0L168 700H253L136 0H51ZM122 0L135 77H479L466 0H122Z" />
<glyph unicode="M" horiz-adv-x="846" d="M51 0L168 700H253L136 0H51ZM416 199L176 666L213 684L255 700L469 281L416 199ZM416 199L387 281L738 700L777 684L808 667L416 199ZM626 0L743 700H827L710 0H626Z" />
<glyph unicode="N" horiz-adv-x="774" d="M554 0L182 653L254 700L626 48L554 0ZM51 0L168 700H254L242 633L136 0H51ZM554 0L671 700H756L639 0H554Z" />
<glyph unicode="O" horiz-adv-x="777" d="M357 -12Q280 -12 220 15T120 91T65 208T64 358Q81 463 136 542T274 667T455 712Q532 712 592 685T691 608T745 490T746 341Q729 237 674 158T536 33T357 -12ZM360 65Q435 65 498 101T604 202T662 351Q676 434 654 498T581
598T453 635Q379 635 314 599T206 498T148 349Q134 266 156 202T232 102T360 65Z" />
<glyph unicode="P" horiz-adv-x="579" d="M174 257L187 334H354Q393 334 425 353T480 407T509 483Q518 546 484 584T386 623H235L247 700H393Q462 700 510 672T580 592T591 473Q580 410 546 361T460 285T347 257H174ZM51 0L168 700H253L136 0H51Z" />
<glyph unicode="Q" horiz-adv-x="780" d="M357 -12Q280 -12 220 15T120 91T65 208T64 358Q81 463 136 542T274 667T455 712Q532 712 592 685T691 608T745 490T746 341Q729 237 674 158T536 33T357 -12ZM630 -39L420 214L484 267L692 16L630 -39ZM360 65Q435 65
498 101T604 202T662 351Q676 434 654 498T581 598T453 635Q379 635 314 599T206 498T148 349Q134 266 156 202T232 102T360 65Z" />
<glyph unicode="R" horiz-adv-x="626" d="M177 275L190 353H348Q387 353 421 370T479 420T509 493Q518 552 484 587T385 623H235L247 700L393 701Q462 702 510 674T581 596T592 483Q582 422 543 375T445 302T317 275H177ZM51 0L168 700H253L136 0H51ZM447 0L327
287L399 331L538 0H447Z" />
<glyph unicode="S" horiz-adv-x="614" d="M278 -13Q219 -13 176 0T102 36T55 87T34 146L117 168Q126 125 165 94T267 63Q351 62 404 96T465 185Q472 232 437 261T338 307L266 326Q221 339 185 363T131 424T123 514Q138 607 206 659T389 711Q459 711 506 688T580
630T612 555L530 532Q519 581 480 608T378 636Q309 636 263 603T207 511Q200 465 226 441T299 403L372 385Q437 369 479 338T540 266T551 181Q542 127 508 83T416 13T278 -13Z" />
<glyph unicode="T" horiz-adv-x="552" d="M192 0L300 642H384L276 0H192ZM74 623L86 700H616L604 623H74Z" />
<glyph unicode="U" horiz-adv-x="707" d="M312 -15Q231 -15 176 18T96 112T83 249H167Q158 193 174 151T227 86T316 62Q373 62 420 86T499 152T540 249H624Q611 170 567 111T458 18T312 -15ZM83 249L158 700H243L167 249H83ZM540 249L615 700H699L624 249H540Z" />
<glyph unicode="V" horiz-adv-x="693" d="M264 0L667 700H758L351 0H264ZM257 0L84 700H171L340 0H257Z" />
<glyph unicode="W" horiz-adv-x="960" d="M606 0L939 700H1025L691 0H606ZM181 0L84 700H168L263 0H181ZM188 0L511 700H594L271 0H188ZM600 0L516 700H596L682 0H600Z" />
<glyph unicode="X" horiz-adv-x="614" d="M-33 0L301 384L577 700H679L353 332L72 0H-33ZM461 0L293 332L88 700H186L354 385L561 0H461Z" />
<glyph unicode="Y" horiz-adv-x="604" d="M351 291L283 326L572 700H672L351 291ZM218 0L274 336H358L302 0H218ZM269 291L85 700H181L346 326L269 291Z" />
<glyph unicode="Z" horiz-adv-x="641" d="M18 78L575 649L657 622L126 78H18ZM5 0L18 78H562L549 0H5ZM112 622L125 700H669L657 622H112Z" />
<glyph unicode="[" horiz-adv-x="324" d="M34 -100L185 800H342L330 725H251L126 -25H204L191 -100H34Z" />
<glyph unicode="\" horiz-adv-x="668" d="M597 -84H511L98 747H182L597 -84Z" />
<glyph unicode="]" horiz-adv-x="324" d="M322 800L171 -100H14L27 -25H106L231 725H152L165 800H322Z" />
<glyph unicode="^" horiz-adv-x="551" d="M99 373L309 700H392L179 373H99ZM418 373L311 700H391L493 373H418Z" />
<glyph unicode="_" horiz-adv-x="438" d="M-35 -73L-23 0H377L365 -73H-35Z" />
<glyph unicode="`" horiz-adv-x="133" d="M69 571L-22 700H78L157 571H69Z" />
<glyph unicode="a" horiz-adv-x="587" d="M399 0L411 93L479 500H559L475 0H399ZM230 -12Q171 -12 127 16T60 93T38 208Q40 267 59 321T114 419T198 487T305 512Q364 512 404 485T464 409T481 295Q480 219 458 162T401 66T321 8T230 -12ZM252 61Q296 61 330 81T389
135T427 210T441 293Q442 359 409 399T319 439Q274 439 238 419T175 366T134 293T119 210Q118 144 154 103T252 61Z" />
<glyph unicode="b" horiz-adv-x="588" d="M28 0L145 700H225L124 93L104 0H28ZM357 512Q417 512 461 484T528 407T550 292Q548 233 529 179T474 81T390 13T283 -12Q225 -12 185 15T124 91T106 205Q108 281 129 338T187 434T267 492T357 512ZM336 439Q292 439 258
419T199 365T161 290T147 207Q146 141 179 101T269 61Q313 61 349 81T412 134T453 207T468 290Q469 356 433 397T336 439Z" />
<glyph unicode="c" horiz-adv-x="543" d="M254 -12Q198 -12 155 8T83 64T44 149T42 255Q55 331 94 389T194 479T328 512Q377 512 417 496T486 451T528 384L453 356Q438 395 405 416T324 438Q273 438 231 414T160 346T121 247Q112 193 126 151T175 86T257 62Q309
62 352 88T423 158L491 121Q451 57 389 23T254 -12Z" />
<glyph unicode="d" horiz-adv-x="587" d="M399 0L411 93L512 700H592L475 0H399ZM230 -12Q171 -12 127 16T60 93T38 208Q40 267 59 321T114 419T198 487T305 512Q364 512 404 485T464 409T481 295Q480 219 458 162T401 66T321 8T230 -12ZM252 61Q296 61 330 81T389
135T427 210T441 293Q442 359 409 399T319 439Q274 439 238 419T175 366T134 293T119 210Q118 144 154 103T252 61Z" />
<glyph unicode="e" horiz-adv-x="547" d="M252 -12Q177 -11 126 24T52 119T42 257Q55 333 96 391T197 481T328 512Q401 511 447 476T510 380T514 237H435Q445 298 437 344T401 418T323 445Q273 446 231 421T160 351T121 246Q111 189 125 147T173 81T256 57Q310
56 353 83T423 151L487 112Q462 72 426 44T345 2T252 -12ZM93 237L101 301H473L466 237H93Z" />
<glyph unicode="f" horiz-adv-x="368" d="M78 0L171 559Q185 637 226 675T342 714Q363 714 387 707T438 686L401 625Q379 634 364 638T339 643Q302 643 280 620T251 549L158 0H78ZM59 431L70 500H387L375 431H59Z" />
<glyph unicode="g" horiz-adv-x="586" d="M198 -212Q149 -212 110 -202T46 -180T8 -160L45 -98Q57 -105 79 -115T132 -132T199 -140Q273 -140 329 -95T402 49L478 500H558L482 47Q468 -40 428 -97T328 -183T198 -212ZM232 4Q163 4 116 37T50 129T43 266Q56 339
93 394T184 481T304 512Q370 512 413 479T474 388T478 253Q466 180 431 124T344 36T232 4ZM253 73Q298 73 336 97T402 163T438 261Q447 314 435 354T393 418T318 442Q270 442 230 418T161 352T124 256Q115 203 128 162T174 97T253 73Z" />
<glyph unicode="h" horiz-adv-x="558" d="M28 0L147 713H228L108 0H28ZM379 0L422 258L507 284L459 0H379ZM422 258Q435 332 424 370T386 423T322 437Q255 437 210 390T151 257L112 260Q125 340 157 396T237 482T346 512Q438 512 482 456T507 284L422 258Z" />
<glyph unicode="i" horiz-adv-x="233" d="M33 0L119 500H199L113 0H33ZM186 616Q166 616 151 631T136 666Q136 687 151 701T186 716Q207 716 221 702T236 666Q236 646 222 631T186 616Z" />
<glyph unicode="j" horiz-adv-x="256" d="M-35 -215Q-55 -215 -78 -208T-127 -188L-88 -123Q-45 -141 -27 -141Q45 -141 60 -52L152 500H233L139 -58Q126 -136 83 -175T-35 -215ZM220 616Q200 616 185 631T170 666Q170 687 185 701T220 716Q241 716 255 702T270
666Q270 646 256 631T220 616Z" />
<glyph unicode="k" horiz-adv-x="485" d="M28 0L145 700H225L108 0H28ZM137 161L91 216L404 500H508L137 161ZM345 0L201 287L260 343L440 0H345Z" />
<glyph unicode="l" horiz-adv-x="222" d="M28 0L147 700H227L108 0H28Z" />
<glyph unicode="m" horiz-adv-x="909" d="M28 0L112 500H187L176 408L108 0H28ZM379 0L422 258L507 286L459 0H379ZM730 0L773 258L858 284L810 0H730ZM422 258Q435 332 424 370T386 423T322 437Q255 437 210 390T150 257L111 260Q125 340 157 396T237 482T346
512Q438 512 482 456T507 284L422 258ZM773 258Q786 332 775 370T737 423T673 437Q606 437 561 390T502 257L463 260Q476 340 508 396T588 482T697 512Q789 512 833 456T858 284L773 258Z" />
<glyph unicode="n" horiz-adv-x="558" d="M28 0L112 500H187L176 408L108 0H28ZM379 0L422 258L507 284L459 0H379ZM422 258Q435 332 424 370T386 423T322 437Q255 437 210 390T150 257L111 260Q125 340 157 396T237 482T346 512Q438 512 482 456T507 284L422 258Z" />
<glyph unicode="o" horiz-adv-x="581" d="M256 -12Q182 -12 129 22T53 117T42 257Q55 332 95 389T195 479T325 512Q400 512 453 478T529 383T538 243Q526 168 486 111T387 21T256 -12ZM258 62Q308 62 350 86T421 153T459 252Q468 307 454 349T407 414T324 438Q274
438 232 414T160 347T121 248Q112 193 126 151T175 86T258 62Z" />
<glyph unicode="p" horiz-adv-x="592" d="M0 -200L117 500H192L181 408L80 -200H0ZM362 512Q421 512 465 484T533 407T554 292Q552 233 533 179T478 81T394 13T287 -12Q229 -12 189 15T128 91T111 205Q112 281 134 338T191 434T271 492T362 512ZM340 439Q296 439
262 419T203 365T165 290T151 207Q150 141 183 101T273 61Q318 61 354 81T417 134T458 207T473 290Q474 356 438 397T340 439Z" />
<glyph unicode="q" horiz-adv-x="592" d="M362 -200L463 407L483 500H559L442 -200H362ZM230 -12Q171 -12 127 16T60 93T38 208Q40 267 59 321T114 419T198 487T305 512Q364 512 404 485T464 409T481 295Q480 219 458 162T401 66T321 8T230 -12ZM252 61Q296 61
330 81T389 135T427 210T441 293Q442 359 409 399T319 439Q274 439 238 419T175 366T134 293T119 210Q118 144 154 103T252 61Z" />
<glyph unicode="r" horiz-adv-x="340" d="M28 0L112 500H192L108 0H28ZM117 272Q131 353 169 404T260 478T367 502L358 427Q314 427 271 412T196 364T154 273L117 272Z" />
<glyph unicode="s" horiz-adv-x="470" d="M202 -12Q146 -12 107 5T45 49T17 106L90 129Q100 94 130 75T198 55Q229 55 258 65T307 96T327 146Q327 172 306 188T244 216L198 229Q140 245 109 276T78 349Q78 398 104 435T178 492T289 512Q358 512 399 483T452 405L381
381Q371 416 347 430T277 444Q228 444 194 420T159 358Q159 341 178 325T237 297L278 286Q348 268 379 232T411 151Q411 102 382 66T306 9T202 -12Z" />
<glyph unicode="t" horiz-adv-x="387" d="M221 -12Q149 -12 117 26T96 135L183 656H263L176 140Q170 102 185 82T237 62Q249 62 262 67T298 83L321 17Q289 0 266 -6T221 -12ZM59 429L70 500H387L375 429H59Z" />
<glyph unicode="u" horiz-adv-x="558" d="M371 0L382 92L450 500H530L446 0H371ZM51 216L99 500H179L136 242L51 216ZM136 242Q123 169 134 130T172 77T236 63Q303 63 348 110T408 243L447 240Q434 160 402 104T322 18T212 -12Q121 -12 77 44T51 216L136 242Z" />
<glyph unicode="v" horiz-adv-x="521" d="M181 0L468 500H554L261 0H181ZM177 0L51 500H131L253 0H177Z" />
<glyph unicode="w" horiz-adv-x="786" d="M140 0L53 500H133L217 0H140ZM143 0L395 500H470L220 0H143ZM483 0L400 500H475L559 0H483ZM483 0L735 500H817L563 0H483Z" />
<glyph unicode="x" horiz-adv-x="475" d="M-32 0L220 287L400 500H497L262 230L67 0H-32ZM329 0L214 230L67 500H160L269 287L423 0H329Z" />
<glyph unicode="y" horiz-adv-x="525" d="M41 -212Q21 -212 -3 -205T-54 -184L-16 -119Q27 -138 47 -138Q74 -138 95 -123T132 -81L212 54L472 500H559L224 -71Q198 -116 173 -147T116 -195T41 -212ZM183 0L50 500H135L246 55L261 0H183Z" />
<glyph unicode="z" horiz-adv-x="491" d="M68 19L14 64L423 484L476 438L68 19ZM3 0L14 64L68 70H416L404 0H3ZM75 430L87 500H486L476 438L421 430H75Z" />
<glyph unicode="{" horiz-adv-x="389" d="M76 339L80 382Q119 382 143 393T180 434T203 517Q217 603 233 658T274 744T332 787T419 800L410 729Q374 728 351 709T311 643T280 508Q271 457 258 424T223 372T165 347T76 339ZM271 -100Q204 -100 171 -76T133 13T148
193Q157 244 154 271T132 308T74 318L78 361Q149 361 184 346T229 292T226 182Q212 98 211 53T226 -10T280 -29L271 -100Z" />
<glyph unicode="|" horiz-adv-x="257" d="M14 -220L183 790H254L85 -220H14Z" />
<glyph unicode="}" horiz-adv-x="388" d="M346 361L341 318Q302 318 279 307T242 266T219 183Q204 98 188 43T148 -44T90 -87T3 -100L12 -29Q48 -28 71 -9T111 58T142 192Q151 243 164 276T199 328T257 353T346 361ZM150 800Q219 800 252 776T289 687T273 507Q265
456 268 429T290 392T348 382L344 339Q274 339 238 354T193 408T196 518Q210 602 210 647T195 710T141 729L150 800Z" />
<glyph unicode="~" horiz-adv-x="562" d="M372 222Q340 222 311 240T263 286Q245 312 232 323T201 335Q177 335 159 316T129 262H61Q69 305 88 339T139 392T212 411Q247 411 276 393T320 350Q333 333 342 322T362 304T383 298Q410 298 427 318T455 371H524Q515
328 495 294T445 241T372 222Z" />
<glyph unicode="&#xa0;" horiz-adv-x="247" />
<glyph unicode="&#xa1;" horiz-adv-x="294" d="M198 295L117 -202H30L116 295H198ZM188 512Q204 512 216 504T235 482T239 451Q235 431 218 416T180 401Q164 401 152 409T133 432T129 462Q133 482 150 497T188 512Z" />
<glyph unicode="&#xa2;" horiz-adv-x="543" d="M213 0L332 700H392L273 0H213ZM272 98Q216 98 173 118T101 174T62 259T60 365Q73 441 112 499T212 589T346 622Q395 622 435 606T504 561T546 494L471 466Q456 505 423 526T342 548Q291 548 249 524T178 456T139
357Q130 303 144 261T193 196T275 172Q327 172 370 198T441 268L509 231Q469 167 407 133T272 98Z" />
<glyph unicode="&#xa3;" horiz-adv-x="576" d="M106 141L169 514Q180 575 212 619T293 688T401 712Q461 712 503 688T565 617T572 505L493 521Q502 575 476 606T399 638Q363 638 332 622T280 576T252 509L191 150L106 141ZM42 15V77Q63 77 82 96T106 141L191 150Q184
108 163 78T110 31T42 15ZM6 0L19 77H501L488 0H6ZM55 288L67 360H428L415 288H55Z" />
<glyph unicode="&#xa4;" horiz-adv-x="555" d="M274 179Q222 179 186 201T134 264T125 355Q134 403 161 439T229 496T319 517Q372 517 408 495T460 434T469 345Q461 296 433 259T364 200T274 179ZM275 249Q321 249 354 279T394 357Q400 396 379 421T318 446Q273
446 240 418T200 343Q195 302 215 276T275 249ZM111 150L68 199L163 282L208 235L111 150ZM193 417L119 502L174 552L248 466L193 417ZM414 150L351 225L407 273L470 199L414 150ZM428 424L383 471L477 552L520 502L428 424Z" />
<glyph unicode="&#xa5;" horiz-adv-x="543" d="M320 294L252 326L514 710H610L320 294ZM186 0L242 336H326L270 0H186ZM79 189L88 248H451L441 189H79ZM96 294L105 353H468L459 294H96ZM238 294L86 710H178L312 326L238 294Z" />
<glyph unicode="&#xa6;" horiz-adv-x="271" d="M117 350L190 790H261L188 350H117ZM21 -220L95 220H166L92 -220H21Z" />
<glyph unicode="&#xa7;" horiz-adv-x="570" d="M241 -90Q182 -90 142 -72T80 -27T53 32L127 52Q132 20 159 -2T232 -24Q291 -24 329 0T373 64Q379 96 356 116T287 148L228 163Q175 178 141 214T117 312Q129 383 182 422T323 462Q374 462 408 445T462 400T485 339L422
322Q414 357 381 376T309 396Q262 396 231 371T193 305Q188 274 205 257T257 231L316 216Q388 197 423 154T449 58Q439 -5 386 -47T241 -90ZM279 160Q227 160 192 178T139 226T117 287L165 302Q170 282 185 265T225 239T281 229Q334 229 369 252T411 314Q416 346
393 366T325 398L266 414Q212 429 179 465T155 562Q167 633 220 672T360 712Q414 712 450 695T507 651T533 592L460 573Q454 607 427 626T355 646Q305 646 271 622T231 555Q225 524 243 507T295 482L355 467Q428 448 462 404T487 308Q477 245 424 203T279 160Z"
/>
<glyph unicode="&#xa8;" horiz-adv-x="325" d="M106 620Q86 620 72 634T58 668Q58 688 72 702T106 716Q126 716 140 702T154 668Q154 648 140 634T106 620ZM352 620Q333 620 319 634T304 668Q304 688 318 702T352 716Q372 716 386 702T400 668Q400 648 386 634T352 620Z" />
<glyph unicode="&#xa9;" horiz-adv-x="815" d="M391 152Q335 152 295 177T236 249T227 357Q237 413 267 456T343 523T442 548Q502 548 544 517T600 437L536 420Q527 451 503 468T447 486Q410 486 378 468T324 417T295 341Q286 285 312 249T388 213Q427 213 459
235T513 289L574 259Q545 210 496 181T391 152ZM369 -11Q292 -11 230 17T126 95T68 211T63 355Q76 430 114 495T209 608T335 684T479 712Q556 712 618 684T721 605T780 489T785 345Q772 270 734 206T639 92T513 16T369 -11ZM370 54Q455 54 528 92T651 199T715 355Q730
440 704 506T620 609T480 647Q394 647 321 608T197 501T132 345Q119 260 145 194T229 91T370 54Z" />
<glyph unicode="&#xaa;" horiz-adv-x="378" d="M288 400L295 456L336 700H404L353 400H288ZM193 393Q144 393 111 426T77 514Q77 565 96 609T151 680T239 707Q288 707 313 676T339 593Q339 552 329 516T300 453T253 409T193 393ZM214 456Q244 456 266 474T300
519T312 573Q312 605 295 624T248 644Q220 644 197 627T162 584T149 529Q149 497 166 477T214 456Z" />
<glyph unicode="&#xab;" horiz-adv-x="553" d="M250 298L438 500H538L351 298H250ZM373 96L252 298H349L468 96H373ZM57 298L245 500H345L158 298H57ZM180 96L59 298H156L275 96H180Z" />
<glyph unicode="&#xac;" horiz-adv-x="510" d="M72 293L84 365H446L434 293H72ZM345 190L375 365H446L417 190H345Z" />
<glyph unicode="&#xad;" horiz-adv-x="417" d="M60 261L73 334H373L360 261H60Z" />
<glyph unicode="&#xae;" horiz-adv-x="623" d="M304 171Q244 171 197 191T119 249T76 336T74 446Q83 504 111 553T180 637T273 692T383 712Q443 712 490 692T568 634T612 547T614 436Q604 378 576 330T507 246T414 191T304 171ZM304 226Q367 226 421 254T511 331T557
445Q568 509 550 556T489 630T383 657Q320 657 266 629T177 552T130 438Q120 374 138 327T198 253T304 226ZM219 299L267 591H369Q414 591 440 564T458 493Q454 466 437 446T390 413L438 299H380L337 405H288L271 299H219ZM296 453H348Q368 453 385 467T407 503Q410
521 399 532T364 544H311L296 453Z" />
<glyph unicode="&#xaf;" horiz-adv-x="307" d="M54 575L67 648H373L361 575H54Z" />
<glyph unicode="&#xb0;" horiz-adv-x="367" d="M218 440Q180 440 152 458T111 508T102 577Q107 615 129 645T185 694T257 712Q295 712 323 694T366 646T375 579Q371 541 348 509T291 459T218 440ZM223 504Q253 504 277 527T307 582Q311 609 296 628T253 648Q224
648 200 626T170 574Q167 545 182 525T223 504Z" />
<glyph unicode="&#xb1;" horiz-adv-x="623" d="M259 146L328 557H399L330 146H259ZM96 316L108 386H561L550 316H96ZM44 5L55 68H508L497 5H44Z" />
<glyph unicode="&#xb2;" horiz-adv-x="361" d="M134 399L68 437Q73 466 99 497T166 554L245 606Q271 622 291 643T313 685Q316 709 301 725T257 742Q226 742 203 725T168 682L95 700Q112 743 155 775T256 807Q325 807 360 770T386 678Q380 640 356 611T291 555L218
508Q199 495 181 480T151 445T134 399ZM58 380L68 437L123 445H352L342 380H58Z" />
<glyph unicode="&#xb3;" horiz-adv-x="331" d="M192 373Q137 373 103 397T62 459L130 478Q135 468 141 458T159 442T188 436Q225 436 250 457T278 509Q282 536 261 553T191 570H167L176 621H192Q240 621 278 605T335 560T348 491Q342 454 319 428T262 387T192
373ZM169 581L177 631H195Q239 631 268 646T300 693Q303 711 289 727T246 744Q226 744 207 734T171 701L110 727Q124 753 146 771T197 798T252 807Q292 807 321 792T364 750T372 690Q366 654 340 630T274 593T190 581H169Z" />
<glyph unicode="&#xb4;" horiz-adv-x="262" d="M87 571L222 700H325L179 571H87Z" />
<glyph unicode="&#xb5;" horiz-adv-x="558" d="M-18 -200L99 500H179L109 78L104 77L59 -200H-18ZM223 -12Q144 -12 106 45T86 217L136 241Q123 168 133 130T171 77T233 63Q301 63 346 111T407 244L446 239Q426 119 369 54T223 -12ZM371 0L382 92L450 500H530L446 0H371Z" />
<glyph unicode="&#xb6;" horiz-adv-x="546" d="M240 257Q178 257 135 286T73 366T65 484Q76 548 110 596T195 672T308 700H366L292 257H240ZM202 -84L333 700H406L275 -84H202ZM324 -84L455 700H528L397 -84H324ZM392 623L404 700H465L453 623H392Z" />
<glyph unicode="&#xb7;" horiz-adv-x="255" d="M136 270Q120 270 108 278T89 301T85 331Q89 351 106 366T144 381Q161 381 173 373T191 351T195 320Q191 300 174 285T136 270Z" />
<glyph unicode="&#xb8;" horiz-adv-x="208" d="M37 -210Q14 -210 -11 -203T-71 -175L-44 -131Q-28 -140 -10 -148T25 -156Q51 -156 67 -144T84 -110Q84 -89 64 -79T9 -63L54 7L109 -6L90 -33Q115 -42 130 -63T146 -107Q146 -159 117 -184T37 -210Z" />
<glyph unicode="&#xb9;" horiz-adv-x="283" d="M155 380L219 761L232 800H296L225 380H155ZM114 675L124 740Q138 740 157 749T196 772T231 800L272 753Q229 715 191 694T114 675Z" />
<glyph unicode="&#xba;" horiz-adv-x="365" d="M213 393Q166 393 133 413T86 471T79 555Q90 623 138 665T253 707Q300 707 332 687T379 629T386 545Q379 500 354 466T293 413T213 393ZM213 457Q250 457 279 485T316 555Q323 594 305 618T253 643Q215 643 186 616T149
545Q143 506 160 482T213 457Z" />
<glyph unicode="&#xbb;" horiz-adv-x="553" d="M319 298L131 96H31L218 298H319ZM196 500L317 298H221L102 500H196ZM512 298L324 96H225L412 298H512ZM389 500L510 298H414L295 500H389Z" />
<glyph unicode="&#xbc;" horiz-adv-x="830" d="M138 280L202 661L215 700H279L208 280H138ZM97 575L107 640Q121 640 140 649T179 672T214 700L255 653Q212 615 174 594T97 575ZM110 0L591 700H673L192 0H110ZM500 116L450 146L684 420L721 379L500 116ZM440 88L450
146L492 151H792L781 88H440ZM620 0L684 379V420H760L689 0H620Z" />
<glyph unicode="&#xbd;" horiz-adv-x="862" d="M138 280L202 661L215 700H279L208 280H138ZM97 575L107 640Q121 640 140 649T179 672T214 700L255 653Q212 615 174 594T97 575ZM110 0L591 700H673L192 0H110ZM571 19L505 57Q510 86 536 117T603 174L682 226Q708
242 728 263T750 305Q753 329 738 345T694 362Q663 362 640 345T605 302L532 320Q549 363 592 395T693 427Q762 427 797 390T823 298Q817 260 793 231T728 175L655 128Q636 115 618 100T588 65T571 19ZM495 0L505 57L560 65H789L779 0H495Z" />
<glyph unicode="&#xbe;" horiz-adv-x="878" d="M175 273Q120 273 86 297T45 359L113 378Q118 368 124 358T142 342T171 336Q208 336 233 357T261 409Q265 436 244 453T174 470H150L159 521H175Q223 521 261 505T318 460T331 391Q325 354 302 328T245 287T175 273ZM152
481L160 531H178Q222 531 251 546T283 593Q286 611 272 627T229 644Q209 644 190 634T154 601L93 627Q107 653 129 671T180 698T235 707Q275 707 304 692T347 650T355 590Q349 554 323 530T257 493T173 481H152ZM158 0L639 700H721L240 0H158ZM549 116L499 146L733
420L770 379L549 116ZM489 88L499 146L541 151H841L830 88H489ZM669 0L733 379V420H809L738 0H669Z" />
<glyph unicode="&#xbf;" horiz-adv-x="463" d="M290 198L280 132L230 131Q187 130 149 113T87 64T54 -11Q45 -67 77 -102T169 -138Q218 -138 257 -116T314 -60L386 -89Q358 -145 301 -179T168 -213Q101 -213 54 -186T-14 -111T-26 -1Q-16 60 19 104T110 173T232
198H290ZM295 513Q321 513 336 496T348 454Q345 431 329 417T290 402Q264 402 249 418T237 461Q240 483 256 498T295 513ZM309 311L281 140H198L227 311H309Z" />
<glyph unicode="&#xc0;" horiz-adv-x="682" d="M-33 0L369 700H460L64 0H-33ZM545 0L381 700H462L630 0H545ZM135 199L148 275H537L524 199H135ZM437 746L346 875H446L525 746H437Z" />
<glyph unicode="&#xc1;" horiz-adv-x="682" d="M-33 0L369 700H460L64 0H-33ZM545 0L381 700H462L630 0H545ZM135 199L148 275H537L524 199H135ZM355 746L490 875H593L447 746H355Z" />
<glyph unicode="&#xc2;" horiz-adv-x="682" d="M-33 0L369 700H460L64 0H-33ZM545 0L381 700H462L630 0H545ZM135 199L148 275H537L524 199H135ZM251 757L394 887H489V885L349 757H251ZM507 757L405 886L407 887H490L590 757H507Z" />
<glyph unicode="&#xc3;" horiz-adv-x="682" d="M-33 0L369 700H460L64 0H-33ZM545 0L381 700H462L630 0H545ZM135 199L148 275H537L524 199H135ZM510 741Q482 741 466 752T441 777T423 802T400 813Q383 813 372 804T353 775H290Q298 817 326 847T406 877Q433 877
448 866T473 841T491 816T513 805Q532 805 542 815T559 843H623Q611 803 585 772T510 741Z" />
<glyph unicode="&#xc4;" horiz-adv-x="682" d="M-33 0L369 700H460L64 0H-33ZM545 0L381 700H462L630 0H545ZM135 199L148 275H537L524 199H135ZM318 795Q298 795 284 809T270 843Q270 863 284 877T318 891Q338 891 352 877T366 843Q366 823 352 809T318 795ZM564
795Q545 795 531 809T516 843Q516 863 530 877T564 891Q584 891 598 877T612 843Q612 823 598 809T564 795Z" />
<glyph unicode="&#xc5;" horiz-adv-x="682" d="M-33 0L369 700H460L64 0H-33ZM545 0L381 700H462L630 0H545ZM135 199L148 275H537L524 199H135ZM426 732Q389 732 365 755T340 814Q340 843 354 866T393 903T449 917Q486 917 509 894T533 835Q533 804 519 781T481
745T426 732ZM430 786Q449 786 462 799T475 836Q475 863 446 863Q425 863 413 850T400 814Q400 802 408 794T430 786Z" />
<glyph unicode="&#xc6;" horiz-adv-x="1003" d="M-33 0L512 700H604L65 0H-33ZM188 199L200 275H536L523 199H188ZM537 0L549 77H890L877 0H537ZM462 0L579 700H664L547 0H462ZM590 321L603 397H913L901 321H590ZM505 623L518 700H993L981 623H505Z" />
<glyph unicode="&#xc7;" horiz-adv-x="722" d="M349 -12Q248 -12 178 35T77 165T63 355Q81 460 137 540T276 666T457 712Q521 712 576 689T671 625T728 531L651 499Q638 540 609 570T540 618T456 635Q380 635 315 598T206 496T147 345Q133 262 154 199T227 99T352
63Q401 63 448 83T536 137T604 216L673 174Q638 119 586 77T472 12T349 -12ZM288 -210Q265 -210 240 -203T180 -175L207 -131Q223 -140 241 -148T276 -156Q302 -156 318 -144T335 -110Q335 -89 315 -79T260 -63L305 7L360 -6L341 -33Q366 -42 381 -63T397 -107Q397
-159 368 -184T288 -210Z" />
<glyph unicode="&#xc8;" horiz-adv-x="592" d="M51 0L168 700H253L136 0H51ZM126 0L139 77H480L467 0H126ZM181 321L193 397H503L490 321H181ZM230 623L243 700H582L570 623H230ZM399 746L308 875H408L487 746H399Z" />
<glyph unicode="&#xc9;" horiz-adv-x="592" d="M51 0L168 700H253L136 0H51ZM126 0L139 77H480L467 0H126ZM181 321L193 397H503L490 321H181ZM230 623L243 700H582L570 623H230ZM318 746L453 875H556L410 746H318Z" />
<glyph unicode="&#xca;" horiz-adv-x="592" d="M51 0L168 700H253L136 0H51ZM126 0L139 77H480L467 0H126ZM181 321L193 397H503L490 321H181ZM230 623L243 700H582L570 623H230ZM214 757L357 887H452V885L312 757H214ZM470 757L368 886L370 887H453L553 757H470Z" />
<glyph unicode="&#xcb;" horiz-adv-x="592" d="M51 0L168 700H253L136 0H51ZM126 0L139 77H480L467 0H126ZM181 321L193 397H503L490 321H181ZM230 623L243 700H582L570 623H230ZM280 795Q260 795 246 809T232 843Q232 863 246 877T280 891Q300 891 314 877T328
843Q328 823 314 809T280 795ZM526 795Q507 795 493 809T478 843Q478 863 492 877T526 891Q546 891 560 877T574 843Q574 823 560 809T526 795Z" />
<glyph unicode="&#xcc;" horiz-adv-x="271" d="M51 0L168 700H253L136 0H51ZM231 746L140 875H240L319 746H231Z" />
<glyph unicode="&#xcd;" horiz-adv-x="271" d="M51 0L168 700H253L136 0H51ZM149 746L284 875H387L241 746H149Z" />
<glyph unicode="&#xce;" horiz-adv-x="271" d="M51 0L168 700H253L136 0H51ZM45 757L188 887H283V885L143 757H45ZM301 757L199 886L201 887H284L384 757H301Z" />
<glyph unicode="&#xcf;" horiz-adv-x="277" d="M170 795Q151 795 137 809T122 843Q122 863 136 877T170 891Q191 891 205 877T219 843Q219 823 205 809T170 795ZM306 795Q286 795 272 809T258 843Q258 863 272 877T306 891Q326 891 340 877T354 843Q354 823 340
809T306 795ZM55 0L172 700H257L140 0H55Z" />
<glyph unicode="&#xd0;" horiz-adv-x="751" d="M84 314L95 384H414L403 314H84ZM328 0L338 78Q391 78 440 99T531 158T600 247T637 355Q650 430 627 490T554 586T432 622L442 700Q540 700 609 655T708 529T721 345Q708 269 674 206T586 97T467 26T328 0ZM183 0L195
78H341L328 0H183ZM115 0L232 700H316L199 0H115ZM287 622L300 700H445L432 622H287Z" />
<glyph unicode="&#xd1;" horiz-adv-x="774" d="M554 0L182 653L254 700L626 48L554 0ZM51 0L168 700H254L242 633L136 0H51ZM554 0L671 700H756L639 0H554ZM549 738Q521 738 505 749T480 774T462 799T439 810Q422 810 411 801T392 772H329Q337 814 365 844T445
874Q472 874 487 863T512 838T530 813T552 802Q571 802 581 812T598 840H662Q650 800 624 769T549 738Z" />
<glyph unicode="&#xd2;" horiz-adv-x="777" d="M357 -12Q280 -12 220 15T120 91T65 208T64 358Q81 463 136 542T274 667T455 712Q532 712 592 685T691 608T745 490T746 341Q729 237 674 158T536 33T357 -12ZM360 65Q435 65 498 101T604 202T662 351Q676 434 654
498T581 598T453 635Q379 635 314 599T206 498T148 349Q134 266 156 202T232 102T360 65ZM477 746L386 875H486L565 746H477Z" />
<glyph unicode="&#xd3;" horiz-adv-x="777" d="M357 -12Q280 -12 220 15T120 91T65 208T64 358Q81 463 136 542T274 667T455 712Q532 712 592 685T691 608T745 490T746 341Q729 237 674 158T536 33T357 -12ZM360 65Q435 65 498 101T604 202T662 351Q676 434 654
498T581 598T453 635Q379 635 314 599T206 498T148 349Q134 266 156 202T232 102T360 65ZM395 746L530 875H633L487 746H395Z" />
<glyph unicode="&#xd4;" horiz-adv-x="777" d="M357 -12Q280 -12 220 15T120 91T65 208T64 358Q81 463 136 542T274 667T455 712Q532 712 592 685T691 608T745 490T746 341Q729 237 674 158T536 33T357 -12ZM360 65Q435 65 498 101T604 202T662 351Q676 434 654
498T581 598T453 635Q379 635 314 599T206 498T148 349Q134 266 156 202T232 102T360 65ZM291 757L434 887H529V885L389 757H291ZM547 757L445 886L447 887H530L630 757H547Z" />
<glyph unicode="&#xd5;" horiz-adv-x="777" d="M357 -12Q280 -12 220 15T120 91T65 208T64 358Q81 463 136 542T274 667T455 712Q532 712 592 685T691 608T745 490T746 341Q729 237 674 158T536 33T357 -12ZM360 65Q435 65 498 101T604 202T662 351Q676 434 654
498T581 598T453 635Q379 635 314 599T206 498T148 349Q134 266 156 202T232 102T360 65ZM550 741Q522 741 506 752T481 777T463 802T440 813Q423 813 412 804T393 775H330Q338 817 366 847T446 877Q473 877 488 866T513 841T531 816T553 805Q572 805 582 815T599
843H663Q651 803 625 772T550 741Z" />
<glyph unicode="&#xd6;" horiz-adv-x="777" d="M357 -12Q280 -12 220 15T120 91T65 208T64 358Q81 463 136 542T274 667T455 712Q532 712 592 685T691 608T745 490T746 341Q729 237 674 158T536 33T357 -12ZM360 65Q435 65 498 101T604 202T662 351Q676 434 654
498T581 598T453 635Q379 635 314 599T206 498T148 349Q134 266 156 202T232 102T360 65ZM358 795Q338 795 324 809T310 843Q310 863 324 877T358 891Q378 891 392 877T406 843Q406 823 392 809T358 795ZM604 795Q585 795 571 809T556 843Q556 863 570 877T604
891Q624 891 638 877T652 843Q652 823 638 809T604 795Z" />
<glyph unicode="&#xd7;" horiz-adv-x="623" d="M434 104L150 442L205 492L490 153L434 104ZM144 104L101 153L494 492L538 442L144 104Z" />
<glyph unicode="&#xd8;" horiz-adv-x="792" d="M-1 0L727 700H826L98 0H-1ZM364 -12Q287 -12 227 15T127 91T72 208T71 358Q88 463 143 542T281 667T462 712Q539 712 599 685T698 608T752 490T753 341Q736 237 681 158T543 33T364 -12ZM367 65Q442 65 505 101T611
202T669 351Q683 434 661 498T588 598T460 635Q385 635 321 599T213 498T155 349Q141 266 163 202T239 102T367 65Z" />
<glyph unicode="&#xd9;" horiz-adv-x="707" d="M312 -15Q231 -15 176 18T96 112T83 249H167Q158 193 174 151T227 86T316 62Q373 62 420 86T499 152T540 249H624Q611 170 567 111T458 18T312 -15ZM83 249L158 700H243L167 249H83ZM540 249L615 700H699L624 249H540ZM449
746L358 875H458L537 746H449Z" />
<glyph unicode="&#xda;" horiz-adv-x="707" d="M312 -15Q231 -15 176 18T96 112T83 249H167Q158 193 174 151T227 86T316 62Q373 62 420 86T499 152T540 249H624Q611 170 567 111T458 18T312 -15ZM83 249L158 700H243L167 249H83ZM540 249L615 700H699L624 249H540ZM367
746L502 875H605L459 746H367Z" />
<glyph unicode="&#xdb;" horiz-adv-x="707" d="M312 -15Q231 -15 176 18T96 112T83 249H167Q158 193 174 151T227 86T316 62Q373 62 420 86T499 152T540 249H624Q611 170 567 111T458 18T312 -15ZM83 249L158 700H243L167 249H83ZM540 249L615 700H699L624 249H540ZM263
757L406 887H501V885L361 757H263ZM519 757L417 886L419 887H502L602 757H519Z" />
<glyph unicode="&#xdc;" horiz-adv-x="707" d="M312 -15Q231 -15 176 18T96 112T83 249H167Q158 193 174 151T227 86T316 62Q373 62 420 86T499 152T540 249H624Q611 170 567 111T458 18T312 -15ZM83 249L158 700H243L167 249H83ZM540 249L615 700H699L624 249H540ZM330
795Q310 795 296 809T282 843Q282 863 296 877T330 891Q350 891 364 877T378 843Q378 823 364 809T330 795ZM576 795Q557 795 543 809T528 843Q528 863 542 877T576 891Q596 891 610 877T624 843Q624 823 610 809T576 795Z" />
<glyph unicode="&#xdd;" horiz-adv-x="604" d="M351 291L283 326L572 700H672L351 291ZM218 0L274 336H358L302 0H218ZM269 291L85 700H181L346 326L269 291ZM314 741L449 870H552L406 741H314Z" />
<glyph unicode="&#xde;" horiz-adv-x="583" d="M157 139L170 217H336Q375 217 407 236T461 289T490 366Q500 429 467 467T367 506H217L231 583L376 584Q442 585 490 557T560 478T574 364Q566 299 532 248T446 168T330 139H157ZM53 1L170 701H255L138 1H53Z" />
<glyph unicode="&#xdf;" horiz-adv-x="564" d="M28 0L114 514Q125 575 158 619T243 688T357 712Q421 712 465 687T531 617T542 512Q535 469 516 435T466 376T396 338T310 325H265L277 397H279Q340 397 377 412T434 455T460 523Q470 575 441 606T356 638Q316 638
283 622T227 576T197 509L111 0H28ZM206 0L219 76H262Q329 76 373 108T426 195Q435 250 405 280T309 311H262L274 382H287Q407 382 465 330T507 181Q492 95 427 48T259 0H206Z" />
<glyph unicode="&#xe0;" horiz-adv-x="587" d="M399 0L411 93L479 500H559L475 0H399ZM230 -12Q171 -12 127 16T60 93T38 208Q40 267 59 321T114 419T198 487T305 512Q364 512 404 485T464 409T481 295Q480 219 458 162T401 66T321 8T230 -12ZM252 61Q296 61 330
81T389 135T427 210T441 293Q442 359 409 399T319 439Q274 439 238 419T175 366T134 293T119 210Q118 144 154 103T252 61ZM336 571L245 700H345L424 571H336Z" />
<glyph unicode="&#xe1;" horiz-adv-x="587" d="M399 0L411 93L479 500H559L475 0H399ZM230 -12Q171 -12 127 16T60 93T38 208Q40 267 59 321T114 419T198 487T305 512Q364 512 404 485T464 409T481 295Q480 219 458 162T401 66T321 8T230 -12ZM252 61Q296 61 330
81T389 135T427 210T441 293Q442 359 409 399T319 439Q274 439 238 419T175 366T134 293T119 210Q118 144 154 103T252 61ZM254 571L389 700H492L346 571H254Z" />
<glyph unicode="&#xe2;" horiz-adv-x="587" d="M399 0L411 93L479 500H559L475 0H399ZM230 -12Q171 -12 127 16T60 93T38 208Q40 267 59 321T114 419T198 487T305 512Q364 512 404 485T464 409T481 295Q480 219 458 162T401 66T321 8T230 -12ZM252 61Q296 61 330
81T389 135T427 210T441 293Q442 359 409 399T319 439Q274 439 238 419T175 366T134 293T119 210Q118 144 154 103T252 61ZM150 582L293 712H388V710L248 582H150ZM406 582L304 711L306 712H389L489 582H406Z" />
<glyph unicode="&#xe3;" horiz-adv-x="587" d="M399 0L411 93L479 500H559L475 0H399ZM230 -12Q171 -12 127 16T60 93T38 208Q40 267 59 321T114 419T198 487T305 512Q364 512 404 485T464 409T481 295Q480 219 458 162T401 66T321 8T230 -12ZM252 61Q296 61 330
81T389 135T427 210T441 293Q442 359 409 399T319 439Q274 439 238 419T175 366T134 293T119 210Q118 144 154 103T252 61ZM408 566Q380 566 364 577T339 602T321 627T298 638Q281 638 270 629T251 600H188Q196 642 224 672T304 702Q331 702 346 691T371 666T389
641T411 630Q430 630 440 640T457 668H521Q509 628 483 597T408 566Z" />
<glyph unicode="&#xe4;" horiz-adv-x="587" d="M399 0L411 93L479 500H559L475 0H399ZM230 -12Q171 -12 127 16T60 93T38 208Q40 267 59 321T114 419T198 487T305 512Q364 512 404 485T464 409T481 295Q480 219 458 162T401 66T321 8T230 -12ZM252 61Q296 61 330
81T389 135T427 210T441 293Q442 359 409 399T319 439Q274 439 238 419T175 366T134 293T119 210Q118 144 154 103T252 61ZM216 620Q196 620 182 634T168 668Q168 688 182 702T216 716Q236 716 250 702T264 668Q264 648 250 634T216 620ZM462 620Q443 620 429 634T414
668Q414 688 428 702T462 716Q482 716 496 702T510 668Q510 648 496 634T462 620Z" />
<glyph unicode="&#xe5;" horiz-adv-x="587" d="M399 0L411 93L479 500H559L475 0H399ZM230 -12Q171 -12 127 16T60 93T38 208Q40 267 59 321T114 419T198 487T305 512Q364 512 404 485T464 409T481 295Q480 219 458 162T401 66T321 8T230 -12ZM252 61Q296 61 330
81T389 135T427 210T441 293Q442 359 409 399T319 439Q274 439 238 419T175 366T134 293T119 210Q118 144 154 103T252 61ZM325 557Q288 557 264 580T239 639Q239 668 253 691T292 728T348 742Q385 742 408 719T432 660Q432 629 418 606T380 570T325 557ZM329 611Q348
611 361 624T374 661Q374 688 345 688Q324 688 312 675T299 639Q299 627 307 619T329 611Z" />
<glyph unicode="&#xe6;" horiz-adv-x="878" d="M368 177L376 267Q381 326 376 364T349 422T281 442Q236 442 201 424T139 370L69 403Q112 458 165 485T283 512Q351 512 392 484T448 402T449 268L433 177H368ZM189 -12Q99 -12 55 30T23 146Q35 219 90 257T233 296H417L406
233H246Q179 233 145 208T102 137Q96 99 120 77T195 55Q263 55 310 105T370 237L438 235Q419 121 354 55T189 -12ZM583 -12Q509 -11 458 24T384 119T374 257Q387 333 427 391T528 481T659 512Q732 511 778 476T841 380T846 237H766Q777 298 769 344T733 418T654
445Q604 446 562 421T491 351T452 246Q442 189 456 147T505 81T587 57Q641 56 684 83T754 151L819 112Q793 72 757 44T676 2T583 -12ZM425 237L432 301H804L797 237H425Z" />
<glyph unicode="&#xe7;" horiz-adv-x="543" d="M254 -12Q198 -12 155 8T83 64T44 149T42 255Q55 331 94 389T194 479T328 512Q377 512 417 496T486 451T528 384L453 356Q438 395 405 416T324 438Q273 438 231 414T160 346T121 247Q112 193 126 151T175 86T257
62Q309 62 352 88T423 158L491 121Q451 57 389 23T254 -12ZM192 -210Q169 -210 144 -203T84 -175L111 -131Q127 -140 145 -148T180 -156Q206 -156 222 -144T239 -110Q239 -89 219 -79T164 -63L209 7L264 -6L245 -33Q270 -42 285 -63T301 -107Q301 -159 272 -184T192
-210Z" />
<glyph unicode="&#xe8;" horiz-adv-x="547" d="M252 -12Q177 -11 126 24T52 119T42 257Q55 333 96 391T197 481T328 512Q401 511 447 476T510 380T514 237H435Q445 298 437 344T401 418T323 445Q273 446 231 421T160 351T121 246Q111 189 125 147T173 81T256 57Q310
56 353 83T423 151L487 112Q462 72 426 44T345 2T252 -12ZM93 237L101 301H473L466 237H93ZM352 571L261 700H361L440 571H352Z" />
<glyph unicode="&#xe9;" horiz-adv-x="547" d="M252 -12Q177 -11 126 24T52 119T42 257Q55 333 96 391T197 481T328 512Q401 511 447 476T510 380T514 237H435Q445 298 437 344T401 418T323 445Q273 446 231 421T160 351T121 246Q111 189 125 147T173 81T256 57Q310
56 353 83T423 151L487 112Q462 72 426 44T345 2T252 -12ZM93 237L101 301H473L466 237H93ZM270 571L405 700H508L362 571H270Z" />
<glyph unicode="&#xea;" horiz-adv-x="547" d="M252 -12Q177 -11 126 24T52 119T42 257Q55 333 96 391T197 481T328 512Q401 511 447 476T510 380T514 237H435Q445 298 437 344T401 418T323 445Q273 446 231 421T160 351T121 246Q111 189 125 147T173 81T256 57Q310
56 353 83T423 151L487 112Q462 72 426 44T345 2T252 -12ZM93 237L101 301H473L466 237H93ZM166 582L309 712H404V710L264 582H166ZM422 582L320 711L322 712H405L505 582H422Z" />
<glyph unicode="&#xeb;" horiz-adv-x="547" d="M252 -12Q177 -11 126 24T52 119T42 257Q55 333 96 391T197 481T328 512Q401 511 447 476T510 380T514 237H435Q445 298 437 344T401 418T323 445Q273 446 231 421T160 351T121 246Q111 189 125 147T173 81T256 57Q310
56 353 83T423 151L487 112Q462 72 426 44T345 2T252 -12ZM93 237L101 301H473L466 237H93ZM233 620Q213 620 199 634T185 668Q185 688 199 702T233 716Q253 716 267 702T281 668Q281 648 267 634T233 620ZM479 620Q460 620 446 634T431 668Q431 688 445 702T479
716Q499 716 513 702T527 668Q527 648 513 634T479 620Z" />
<glyph unicode="&#xec;" horiz-adv-x="233" d="M33 0L119 500H199L113 0H33ZM438 571L347 700H447L526 571H438Z" />
<glyph unicode="&#xed;" horiz-adv-x="233" d="M33 0L119 500H199L113 0H33ZM100 571L235 700H338L192 571H100Z" />
<glyph unicode="&#xee;" horiz-adv-x="233" d="M33 0L119 500H199L113 0H33ZM252 582L395 712H490V710L350 582H252ZM508 582L406 711L408 712H491L591 582H508Z" />
<glyph unicode="&#xef;" horiz-adv-x="233" d="M114 620Q95 620 81 634T66 668Q66 688 80 702T114 716Q135 716 149 702T163 668Q163 648 149 634T114 620ZM250 620Q230 620 216 634T202 668Q202 688 216 702T250 716Q270 716 284 702T298 668Q298 648 284 634T250
620ZM33 0L119 500H199L113 0H33Z" />
<glyph unicode="&#xf0;" horiz-adv-x="584" d="M250 -12Q176 -12 125 21T51 114T41 249Q54 323 93 379T191 468T319 501Q350 501 377 493T427 469T465 433T488 387L533 245Q520 169 480 111T380 21T250 -12ZM251 61Q301 61 343 85T414 151T452 249Q461 302 448
342T402 405T322 428Q272 428 230 404T159 337T120 239Q111 187 124 147T171 84T251 61ZM533 245L457 266Q471 350 466 415T434 530T354 612T223 663L246 736Q323 720 378 690T470 615T524 514T544 390T533 245ZM325 522L303 569L517 688L538 642L325 522Z" />
<glyph unicode="&#xf1;" horiz-adv-x="558" d="M28 0L112 500H187L176 408L108 0H28ZM379 0L422 258L507 284L459 0H379ZM422 258Q435 332 424 370T386 423T322 437Q255 437 210 390T150 257L111 260Q125 340 157 396T237 482T346 512Q438 512 482 456T507 284L422
258ZM432 566Q404 566 388 577T363 602T345 627T322 638Q305 638 294 629T275 600H212Q220 642 248 672T328 702Q355 702 370 691T395 666T413 641T435 630Q454 630 464 640T481 668H545Q533 628 507 597T432 566Z" />
<glyph unicode="&#xf2;" horiz-adv-x="581" d="M256 -12Q182 -12 129 22T53 117T42 257Q55 332 95 389T195 479T325 512Q400 512 453 478T529 383T538 243Q526 168 486 111T387 21T256 -12ZM258 62Q308 62 350 86T421 153T459 252Q468 307 454 349T407 414T324
438Q274 438 232 414T160 347T121 248Q112 193 126 151T175 86T258 62ZM354 571L263 700H363L442 571H354Z" />
<glyph unicode="&#xf3;" horiz-adv-x="581" d="M256 -12Q182 -12 129 22T53 117T42 257Q55 332 95 389T195 479T325 512Q400 512 453 478T529 383T538 243Q526 168 486 111T387 21T256 -12ZM258 62Q308 62 350 86T421 153T459 252Q468 307 454 349T407 414T324
438Q274 438 232 414T160 347T121 248Q112 193 126 151T175 86T258 62ZM272 571L407 700H510L364 571H272Z" />
<glyph unicode="&#xf4;" horiz-adv-x="581" d="M256 -12Q182 -12 129 22T53 117T42 257Q55 332 95 389T195 479T325 512Q400 512 453 478T529 383T538 243Q526 168 486 111T387 21T256 -12ZM258 62Q308 62 350 86T421 153T459 252Q468 307 454 349T407 414T324
438Q274 438 232 414T160 347T121 248Q112 193 126 151T175 86T258 62ZM168 582L311 712H406V710L266 582H168ZM424 582L322 711L324 712H407L507 582H424Z" />
<glyph unicode="&#xf5;" horiz-adv-x="581" d="M256 -12Q182 -12 129 22T53 117T42 257Q55 332 95 389T195 479T325 512Q400 512 453 478T529 383T538 243Q526 168 486 111T387 21T256 -12ZM258 62Q308 62 350 86T421 153T459 252Q468 307 454 349T407 414T324
438Q274 438 232 414T160 347T121 248Q112 193 126 151T175 86T258 62ZM427 566Q399 566 383 577T358 602T340 627T317 638Q300 638 289 629T270 600H207Q215 642 243 672T323 702Q350 702 365 691T390 666T408 641T430 630Q449 630 459 640T476 668H540Q528 628
502 597T427 566Z" />
<glyph unicode="&#xf6;" horiz-adv-x="581" d="M256 -12Q182 -12 129 22T53 117T42 257Q55 332 95 389T195 479T325 512Q400 512 453 478T529 383T538 243Q526 168 486 111T387 21T256 -12ZM258 62Q308 62 350 86T421 153T459 252Q468 307 454 349T407 414T324
438Q274 438 232 414T160 347T121 248Q112 193 126 151T175 86T258 62ZM235 620Q215 620 201 634T187 668Q187 688 201 702T235 716Q255 716 269 702T283 668Q283 648 269 634T235 620ZM481 620Q462 620 448 634T433 668Q433 688 447 702T481 716Q501 716 515 702T529
668Q529 648 515 634T481 620Z" />
<glyph unicode="&#xf7;" horiz-adv-x="623" d="M119 262L132 333H520L508 262H119ZM292 99Q271 99 259 114T250 150Q252 166 266 178T297 190Q317 190 329 175T338 139Q336 123 322 111T292 99ZM343 405Q322 405 310 420T300 456Q303 472 317 484T348 496Q369
496 381 481T390 445Q387 429 374 417T343 405Z" />
<glyph unicode="&#xf8;" horiz-adv-x="586" d="M-14 0L509 500H600L76 0H-14ZM258 -12Q184 -12 131 22T55 117T44 257Q57 332 97 389T197 479T327 512Q402 512 455 478T531 383T540 243Q528 168 488 111T389 21T258 -12ZM260 62Q310 62 352 86T423 153T461 252Q470
307 456 349T409 414T326 438Q276 438 234 414T162 347T123 248Q114 193 128 151T177 86T260 62Z" />
<glyph unicode="&#xf9;" horiz-adv-x="558" d="M371 0L382 92L450 500H530L446 0H371ZM51 216L99 500H179L136 242L51 216ZM136 242Q123 169 134 130T172 77T236 63Q303 63 348 110T408 243L447 240Q434 160 402 104T322 18T212 -12Q121 -12 77 44T51 216L136
242ZM337 571L246 700H346L425 571H337Z" />
<glyph unicode="&#xfa;" horiz-adv-x="558" d="M371 0L382 92L450 500H530L446 0H371ZM51 216L99 500H179L136 242L51 216ZM136 242Q123 169 134 130T172 77T236 63Q303 63 348 110T408 243L447 240Q434 160 402 104T322 18T212 -12Q121 -12 77 44T51 216L136
242ZM255 571L390 700H493L347 571H255Z" />
<glyph unicode="&#xfb;" horiz-adv-x="558" d="M371 0L382 92L450 500H530L446 0H371ZM51 216L99 500H179L136 242L51 216ZM136 242Q123 169 134 130T172 77T236 63Q303 63 348 110T408 243L447 240Q434 160 402 104T322 18T212 -12Q121 -12 77 44T51 216L136
242ZM151 582L294 712H389V710L249 582H151ZM407 582L305 711L307 712H390L490 582H407Z" />
<glyph unicode="&#xfc;" horiz-adv-x="558" d="M371 0L382 92L450 500H530L446 0H371ZM51 216L99 500H179L136 242L51 216ZM136 242Q123 169 134 130T172 77T236 63Q303 63 348 110T408 243L447 240Q434 160 402 104T322 18T212 -12Q121 -12 77 44T51 216L136
242ZM218 620Q198 620 184 634T170 668Q170 688 184 702T218 716Q238 716 252 702T266 668Q266 648 252 634T218 620ZM464 620Q445 620 431 634T416 668Q416 688 430 702T464 716Q484 716 498 702T512 668Q512 648 498 634T464 620Z" />
<glyph unicode="&#xfd;" horiz-adv-x="525" d="M41 -212Q21 -212 -3 -205T-54 -184L-16 -119Q27 -138 47 -138Q74 -138 95 -123T132 -81L212 54L472 500H559L224 -71Q198 -116 173 -147T116 -195T41 -212ZM183 0L50 500H135L246 55L261 0H183ZM246 571L381 700H484L338
571H246Z" />
<glyph unicode="&#xfe;" horiz-adv-x="587" d="M-5 -200L145 700H225L75 -200H-5ZM357 512Q416 512 460 484T528 407T549 292Q547 233 528 179T473 81T389 13T282 -12Q224 -12 184 15T123 91T106 205Q107 281 129 338T186 434T266 492T357 512ZM335 439Q291 439
257 419T198 365T160 290T146 207Q145 141 178 101T268 61Q313 61 349 81T412 134T453 207T468 290Q469 356 433 397T335 439Z" />
<glyph unicode="&#xff;" horiz-adv-x="525" d="M41 -212Q21 -212 -3 -205T-54 -184L-16 -119Q27 -138 47 -138Q74 -138 95 -123T132 -81L212 54L472 500H559L224 -71Q198 -116 173 -147T116 -195T41 -212ZM183 0L50 500H135L246 55L261 0H183ZM209 620Q189 620
175 634T161 668Q161 688 175 702T209 716Q229 716 243 702T257 668Q257 648 243 634T209 620ZM455 620Q436 620 422 634T407 668Q407 688 421 702T455 716Q475 716 489 702T503 668Q503 648 489 634T455 620Z" />
<glyph unicode="&#x2013;" horiz-adv-x="550" d="M2 261L14 334H564L552 261H2Z" />
<glyph unicode="&#x2014;" horiz-adv-x="1100" d="M2 261L14 334H1114L1102 261H2Z" />
<glyph unicode="&#x2018;" horiz-adv-x="183" d="M240 700L148 488H57L170 700H240Z" />
<glyph unicode="&#x2019;" horiz-adv-x="183" d="M59 489L151 700H242L128 489H59Z" />
<glyph unicode="&#x201a;" horiz-adv-x="212" d="M-21 -115L71 96H162L48 -115H-21Z" />
<glyph unicode="&#x201c;" horiz-adv-x="331" d="M239 700L147 488H56L170 700H239ZM388 700L296 488H205L319 700H388Z" />
<glyph unicode="&#x201d;" horiz-adv-x="332" d="M208 489L300 700H391L277 489H208ZM59 489L151 700H242L128 489H59Z" />
<glyph unicode="&#x201e;" horiz-adv-x="314" d="M105 -115L197 96H288L174 -115H105ZM212 -115L304 96H395L281 -115H212Z" />
<glyph unicode="&#x2022;" horiz-adv-x="489" d="M237 178Q207 178 185 193T152 234T146 288Q151 316 168 338T209 373T262 387Q292 387 314 372T348 333T354 278Q350 251 332 228T290 192T237 178Z" />
<glyph unicode="&#x2039;" horiz-adv-x="361" d="M57 298L245 500H345L158 298H57ZM180 96L59 298H156L275 96H180Z" />
<glyph unicode="&#x203a;" horiz-adv-x="361" d="M320 298L132 96H32L219 298H320ZM197 500L318 298H222L103 500H197Z" />
</font>
</defs>
</svg>
