<?xml version="1.0" standalone="no"?>
<!DOCTYPE svg PUBLIC "-//W3C//DTD SVG 1.1//EN" "http://www.w3.org/Graphics/SVG/1.1/DTD/svg11.dtd">
<svg xmlns="http://www.w3.org/2000/svg">
<defs >
<font id="Figtree" horiz-adv-x="534" ><font-face
    font-family="Figtree Light"
    units-per-em="1000"
    panose-1="0 0 0 0 0 0 0 0 0 0"
    ascent="950"
    descent="-250"
    alphabetic="0" />
<glyph unicode=" " horiz-adv-x="238" />
<glyph unicode="!" horiz-adv-x="312" d="M88 228L159 700H305L216 228H88ZM121 -15Q97 -15 79 -3T52 29T47 73Q51 103 76 124T130 145Q154 145 172 133T199 101T204 57Q199 28 175 7T121 -15Z" />
<glyph unicode="&quot;" horiz-adv-x="412" d="M109 460L138 716H263L206 460H109ZM276 460L305 716H430L373 460H276Z" />
<glyph unicode="#" horiz-adv-x="632" d="M279 0L506 700H604L377 0H279ZM-2 181L27 274H590L561 181H-2ZM64 0L291 700H389L162 0H64ZM69 407L101 500H664L632 407H69Z" />
<glyph unicode="$" horiz-adv-x="555" d="M255 24Q189 24 139 45T60 101T28 174L154 203Q160 174 183 154T249 133Q299 132 335 155T378 217Q382 242 364 260T307 288L228 309Q184 321 152 346T106 408T100 495Q115 581 178 628T347 676Q409 676 453 658T523 606T559
528L435 498Q430 527 407 547T343 567Q296 567 265 544T226 482Q222 456 236 441T284 417L364 396Q441 376 479 323T506 203Q497 148 465 108T380 46T255 24ZM172 -103L320 780H430L282 -103H172Z" />
<glyph unicode="%" horiz-adv-x="812" d="M46 0L660 700H795L178 0H46ZM232 367Q182 367 148 390T98 455T91 549Q99 597 124 634T188 692T272 714Q322 714 357 691T407 626T413 532Q406 484 380 447T316 388T232 367ZM229 455Q263 455 289 482T322 549Q328 582
316 603T275 625Q242 625 215 599T182 532Q176 499 189 477T229 455ZM573 -14Q523 -14 489 9T439 74T432 168Q440 217 465 254T529 312T613 333Q664 333 698 310T748 246T754 151Q747 104 721 67T657 8T573 -14ZM570 75Q604 75 630 101T664 168Q669 201 657 223T617
245Q582 245 556 218T523 151Q518 118 530 97T570 75Z" />
<glyph unicode="&amp;" horiz-adv-x="646" d="M219 -13Q155 -13 109 12T42 81T31 182Q39 235 75 278T164 355L312 445Q357 472 387 501T417 562Q417 584 402 596T360 608Q327 608 301 589T269 539Q265 517 276 498T303 453L410 296L607 0H457L310 222L198 395Q176
430 163 456T144 507T144 556Q151 602 181 637T257 693T354 713Q415 713 459 691T524 628T536 535Q530 496 505 463T434 395T324 321L244 272Q226 261 210 246T181 213T165 169Q159 138 177 119T228 99Q272 99 316 112T400 152T466 217T501 305L622 299Q607 207
551 137T408 27T219 -13Z" />
<glyph unicode="&apos;" horiz-adv-x="245" d="M109 460L138 716H263L206 460H109Z" />
<glyph unicode="(" horiz-adv-x="386" d="M160 -100Q123 -38 97 34T61 187T66 358Q81 443 115 521T197 669T301 800H440Q382 735 331 661T244 507T193 342Q173 222 200 109T280 -100H160Z" />
<glyph unicode=")" horiz-adv-x="386" d="M259 800Q296 739 323 667T359 513T353 342Q339 258 305 180T223 31T118 -100H-21Q37 -34 88 39T175 193T226 358Q246 478 219 591T139 800H259Z" />
<glyph unicode="*" horiz-adv-x="488" d="M259 530L276 716H372L326 530H259ZM298 498L288 562L470 633L485 542L298 498ZM337 353L264 512L322 552L422 410L337 353ZM195 351L124 408L266 550L318 510L195 351ZM278 498L101 542L146 634L309 562L278 498Z" />
<glyph unicode="+" horiz-adv-x="632" d="M232 67L309 529H416L339 67H232ZM84 244L102 351H564L546 244H84Z" />
<glyph unicode="," horiz-adv-x="259" d="M-33 -114L68 122H208L70 -114H-33Z" />
<glyph unicode="-" horiz-adv-x="408" d="M52 241L72 354H372L352 241H52Z" />
<glyph unicode="." horiz-adv-x="248" d="M89 -15Q65 -15 47 -3T20 30T15 74Q19 103 44 124T98 146Q122 146 140 134T167 102T172 57Q167 28 143 7T89 -15Z" />
<glyph unicode="/" horiz-adv-x="435" d="M-41 -84L374 747H503L90 -84H-41Z" />
<glyph unicode="0" horiz-adv-x="649" d="M301 -12Q232 -12 180 17T96 97T52 217T54 367Q72 469 119 547T235 668T384 712Q452 712 503 683T587 603T631 482T629 333Q612 234 565 156T449 33T301 -12ZM300 113Q351 113 391 144T459 227T497 346Q508 412 498 467T457
555T378 589Q334 589 294 559T226 477T186 354Q175 286 185 232T226 146T300 113Z" />
<glyph unicode="1" horiz-adv-x="426" d="M156 0L261 627L286 700H405L287 0H156ZM88 480L109 602Q133 601 165 615T229 653T286 700L362 613Q296 553 228 514T88 480Z" />
<glyph unicode="2" horiz-adv-x="579" d="M149 26L27 104Q33 136 55 171T114 239T198 302L318 378Q343 393 368 414T411 459T430 507Q434 542 411 565T343 589Q310 589 284 576T238 542T208 496L70 528Q89 577 128 619T222 687T344 713Q424 713 477 684T554 605T567
488Q557 427 515 378T405 284L297 215Q265 196 233 169T179 107T149 26ZM10 0L27 104L132 120H513L493 0H10Z" />
<glyph unicode="3" horiz-adv-x="555" d="M245 -12Q181 -12 133 7T56 62T21 144L150 175Q155 162 163 146T189 119T238 107Q277 107 306 121T354 161T375 219Q379 245 366 264T323 295T243 307H198L213 400H245Q305 400 355 385T443 341T497 272T505 182Q495 121
457 78T362 11T245 -12ZM202 332L216 419H252Q320 419 364 443T413 518Q416 548 393 570T332 593Q299 593 268 577T215 521L96 564Q118 613 157 646T245 695T343 712Q410 712 459 687T533 616T548 513Q540 467 512 433T442 377T348 344T243 332H202Z" />
<glyph unicode="4" horiz-adv-x="634" d="M119 193L26 247L413 700L481 623L119 193ZM8 138L26 247L104 255H605L585 138H8ZM310 0L416 625L413 700H557L440 0H310Z" />
<glyph unicode="5" horiz-adv-x="580" d="M257 -12Q207 -12 158 5T73 54T25 134L153 164Q169 133 195 120T252 106Q289 106 320 122T372 165T398 230Q406 276 382 306T310 337Q275 337 245 322T198 286L78 317L184 700H579L559 576H183L184 696H319L199 304L126
320Q139 338 161 359T213 399T280 430T359 441Q418 441 462 412T527 334T537 220Q526 151 487 99T388 17T257 -12Z" />
<glyph unicode="6" horiz-adv-x="580" d="M263 -12Q191 -12 144 14T73 86T43 193T50 325Q63 404 90 474T160 597T260 681T392 712Q451 712 502 695T591 648L513 553Q485 574 452 583T393 592Q313 592 254 522T174 306L147 331Q180 387 231 418T345 449Q407 449
451 423T521 351T546 250Q546 195 526 147T467 64T377 8T263 -12ZM269 104Q311 104 343 123T393 176T411 249Q411 289 386 313T320 338Q281 338 250 321T200 274T176 204Q171 159 197 132T269 104Z" />
<glyph unicode="7" horiz-adv-x="556" d="M50 0L435 587L585 599L204 0H50ZM88 575L108 700H601L585 599L442 575H88Z" />
<glyph unicode="8" horiz-adv-x="612" d="M329 337Q251 337 199 361T125 429T111 530Q121 584 155 625T244 689T373 712Q451 712 503 687T578 617T592 514Q583 461 549 422T459 360T329 337ZM326 414Q363 414 391 427T438 465T458 521Q462 557 438 579T370 602Q335
602 306 588T260 549T239 490Q236 456 260 435T326 414ZM270 -12Q184 -12 127 13T46 85T32 190Q42 250 79 295T176 366T320 391Q407 392 463 364T544 287T557 174Q548 118 511 77T414 12T270 -12ZM274 102Q316 102 348 117T401 157T424 216Q428 256 399 280T320
305Q280 305 247 290T194 249T171 188Q167 150 196 126T274 102Z" />
<glyph unicode="9" horiz-adv-x="580" d="M349 711Q422 711 468 686T540 614T570 506T563 375Q550 295 523 225T453 102T353 18T221 -13Q162 -13 111 4T22 52L100 147Q128 126 161 117T220 107Q300 107 359 177T439 394L466 368Q433 313 382 282T267 250Q207 250
162 276T92 348T67 449Q67 505 87 552T146 635T236 691T349 711ZM344 596Q302 596 270 576T219 523T201 450Q201 411 226 387T293 362Q332 362 363 379T414 426T437 496Q442 541 416 568T344 596Z" />
<glyph unicode=":" horiz-adv-x="301" d="M175 340Q151 340 133 352T105 385T100 429Q105 458 129 479T183 501Q208 501 226 489T253 457T258 412Q252 383 228 362T175 340ZM118 -1Q94 -1 76 11T49 43T43 87Q49 117 73 138T127 159Q151 159 169 147T196 115T201
71Q196 42 172 21T118 -1Z" />
<glyph unicode=";" horiz-adv-x="305" d="M173 338Q149 338 131 350T104 382T99 426Q103 456 128 477T182 498Q206 498 224 486T251 454T256 410Q251 381 227 360T173 338ZM-27 -114L74 122H214L76 -114H-27Z" />
<glyph unicode="&lt;" horiz-adv-x="632" d="M545 517L524 390L127 246L143 350L545 517ZM143 348L491 192L472 80L126 245L143 348Z" />
<glyph unicode="=" horiz-adv-x="632" d="M132 344L149 451H549L532 344H132ZM98 144L116 251H516L498 144H98Z" />
<glyph unicode="&gt;" horiz-adv-x="632" d="M103 79L124 206L521 350L505 246L103 79ZM505 248L157 404L176 516L522 351L505 248Z" />
<glyph unicode="?" horiz-adv-x="513" d="M168 292L180 377L249 383Q285 385 315 398T365 437T392 499Q399 541 375 567T306 593Q267 593 236 574T191 528L75 570Q106 636 166 674T307 712Q379 712 430 683T505 602T517 483Q507 425 472 382T382 316T259 292H168ZM194
-15Q160 -15 137 9T115 67Q117 100 140 123T197 146Q231 146 254 122T275 64Q274 31 251 8T194 -15ZM154 201L177 350H309L281 201H154Z" />
<glyph unicode="@" horiz-adv-x="992" d="M448 -210Q340 -210 257 -176T118 -78T42 71T37 260Q54 360 102 443T223 588T389 682T585 715Q684 715 760 681T886 584T954 436T956 248L860 256Q878 364 849 446T753 574T587 620Q501 620 425 593T287 515T186 396T132
244Q114 139 148 58T259 -69T446 -115Q485 -115 527 -103T599 -74L647 -156Q601 -181 545 -195T448 -210ZM426 14Q363 14 320 46T257 133T250 261Q262 328 295 379T378 460T487 489Q553 489 598 458T663 371T671 244Q660 177 625 125T538 44T426 14ZM466 124Q503
124 533 141T586 190T614 261Q623 314 597 347T522 380Q485 380 453 363T400 315T372 245Q362 191 389 158T466 124ZM717 -15Q674 -15 644 1T599 48T591 116L695 115Q691 90 699 81T722 72Q753 72 781 96T831 161T860 256L956 248Q943 170 909 111T824 18T717 -15ZM590
112L646 479H756L695 115L590 112Z" />
<glyph unicode="A" horiz-adv-x="717" d="M-34 0L359 700H504L121 0H-34ZM528 0L377 700H507L666 0H528ZM123 154L143 275H582L562 154H123Z" />
<glyph unicode="B" horiz-adv-x="612" d="M89 0L109 121H306Q358 121 392 147T431 223Q436 261 411 282T334 303H140L157 409L274 407Q371 407 441 385T546 315T568 191Q552 99 483 50T307 0H89ZM34 0L151 700H285L168 0H34ZM134 296L154 415H340Q393 415 424
441T459 513Q463 551 440 571T367 591H183L201 699L384 701Q456 702 507 678T581 608T593 493Q585 441 543 399T432 332T277 307L134 296Z" />
<glyph unicode="C" horiz-adv-x="727" d="M350 -12Q245 -12 172 35T68 166T53 358Q71 462 127 542T268 667T452 712Q527 712 586 686T685 614T740 507L609 468Q598 505 575 531T521 572T450 587Q386 587 332 556T240 469T190 342Q179 274 196 223T254 142T355
112Q400 112 440 129T513 177T570 245L692 191Q656 130 603 84T485 13T350 -12Z" />
<glyph unicode="D" horiz-adv-x="700" d="M258 0L275 128Q323 128 368 145T449 194T510 267T543 358Q554 420 533 467T466 543T354 572L371 700Q478 700 553 654T663 528T680 342Q668 266 631 204T538 96T410 25T258 0ZM113 0L134 128H279L258 0H113ZM34 0L151
700H288L171 0H34ZM209 572L230 700H375L354 572H209Z" />
<glyph unicode="E" horiz-adv-x="589" d="M34 0L151 700H288L171 0H34ZM138 0L159 125H502L481 0H138ZM187 294L207 416H504L484 294H187ZM234 575L255 700H594L573 575H234Z" />
<glyph unicode="F" horiz-adv-x="554" d="M34 0L151 700H288L171 0H34ZM191 282L212 407H499L478 282H191ZM240 575L261 700H600L579 575H240Z" />
<glyph unicode="G" horiz-adv-x="743" d="M375 -12Q293 -12 228 18T120 100T59 218T53 358Q67 437 101 502T188 614T312 686T469 712Q535 712 587 692T676 638T734 560L611 498Q598 525 572 545T514 576T451 587Q390 587 335 559T242 478T192 348Q184 302 194
261T229 186T295 133T387 113Q442 113 485 134T555 193T592 283L726 293Q709 194 665 126T549 23T375 -12ZM426 268L445 375H739L726 293L647 268H426Z" />
<glyph unicode="H" horiz-adv-x="750" d="M34 0L151 700H288L171 0H34ZM495 0L612 700H749L632 0H495ZM186 295L206 421H630L610 295H186Z" />
<glyph unicode="I" horiz-adv-x="289" d="M34 0L151 700H288L171 0H34Z" />
<glyph unicode="J" horiz-adv-x="552" d="M196 -14Q143 -14 105 2T43 46T6 103T-9 161L110 198Q117 179 126 159T154 125T201 111Q236 111 267 125T320 170T350 254L425 700H561L479 206Q470 152 445 111T381 42T296 0T196 -14Z" />
<glyph unicode="K" horiz-adv-x="666" d="M148 177L157 349L544 700H724L148 177ZM34 0L151 700H286L169 0H34ZM449 0L228 356L338 438L614 0H449Z" />
<glyph unicode="L" horiz-adv-x="537" d="M34 0L151 700H288L171 0H34ZM122 0L143 125H500L479 0H122Z" />
<glyph unicode="M" horiz-adv-x="859" d="M34 0L151 700H288L171 0H34ZM419 168L154 673L220 692L298 700L505 295L419 168ZM419 168L367 295L706 700L786 692L847 675L419 168ZM603 0L720 700H856L739 0H603Z" />
<glyph unicode="N" horiz-adv-x="773" d="M519 0L174 625L294 700L637 78L519 0ZM34 0L151 700H294L268 579L171 0H34ZM519 0L636 700H772L655 0H519Z" />
<glyph unicode="O" horiz-adv-x="789" d="M377 -12Q296 -12 231 15T121 94T59 215T55 370Q72 472 127 549T265 669T446 712Q527 712 592 684T702 605T763 484T767 329Q750 228 695 151T558 31T377 -12ZM383 113Q444 113 495 142T582 222T629 342Q641 413 621 468T554
555T441 586Q380 586 328 557T240 477T193 357Q181 286 202 231T270 145T383 113Z" />
<glyph unicode="P" horiz-adv-x="603" d="M194 232L215 358H358Q394 358 422 374T467 417T487 473Q491 519 466 547T392 575H251L272 700L407 701Q481 701 534 670T611 585T623 459Q612 392 574 341T477 261T348 232H194ZM34 0L151 700H288L171 0H34Z" />
<glyph unicode="Q" horiz-adv-x="790" d="M377 -12Q296 -12 231 15T121 94T59 215T55 370Q72 472 127 549T265 669T446 712Q527 712 592 684T702 605T763 484T767 329Q750 228 695 151T558 31T377 -12ZM612 -42L395 220L494 303L709 43L612 -42ZM383 113Q444 113
495 142T582 222T629 342Q641 413 621 468T554 555T441 586Q380 586 328 557T240 477T193 357Q181 286 202 231T270 145T383 113Z" />
<glyph unicode="R" horiz-adv-x="645" d="M196 248L217 373H353Q388 373 416 386T463 424T485 483Q489 525 464 550T389 575H251L272 700L407 701Q481 702 534 672T611 588T624 466Q614 402 574 353T471 276T335 248H196ZM34 0L151 700H288L171 0H34ZM420 0L305
281L418 356L572 0H420Z" />
<glyph unicode="S" horiz-adv-x="607" d="M275 -14Q220 -14 175 -1T97 36T46 90T25 153L162 185Q169 151 196 129T270 105Q327 105 366 131T410 199Q414 231 391 251T328 282L246 304Q198 317 162 344T111 412T104 507Q120 603 191 656T379 710Q449 710 497 690T575
632T614 546L477 512Q471 546 444 568T369 591Q315 591 281 567T241 496Q238 467 257 449T313 420L397 398Q454 383 491 352T544 277T552 185Q542 124 506 80T412 11T275 -14Z" />
<glyph unicode="T" horiz-adv-x="584" d="M182 0L290 642H427L319 0H182ZM69 575L89 700H645L625 575H69Z" />
<glyph unicode="U" horiz-adv-x="704" d="M314 -14Q225 -14 166 20T81 116T68 261H205Q197 215 209 182T249 131T320 113Q367 113 406 131T470 183T503 261H640Q625 176 581 114T469 19T314 -14ZM68 261L141 700H278L205 261H68ZM503 261L576 700H713L640 261H503Z" />
<glyph unicode="V" horiz-adv-x="722" d="M257 0L640 700H789L394 0H257ZM245 0L83 700H227L376 0H245Z" />
<glyph unicode="W" horiz-adv-x="985" d="M592 0L910 700H1052L726 0H592ZM173 0L83 700H220L302 0H173ZM189 0L497 700H623L316 0H189ZM582 0L511 700H633L711 0H582Z" />
<glyph unicode="X" horiz-adv-x="679" d="M-34 0L300 383L575 700H741L417 336L135 0H-34ZM464 0L298 336L92 700H252L418 384L625 0H464Z" />
<glyph unicode="Y" horiz-adv-x="647" d="M396 289L269 322L558 700H717L396 289ZM213 0L269 336H406L350 0H213ZM268 289L84 700H237L399 322L268 289Z" />
<glyph unicode="Z" horiz-adv-x="632" d="M17 128L482 585L648 572L197 128H17ZM-4 0L17 128H570L549 0H-4ZM95 572L116 700H669L648 572H95Z" />
<glyph unicode="[" horiz-adv-x="344" d="M17 -100L168 800H380L359 681H263L153 19H249L229 -100H17Z" />
<glyph unicode="\" horiz-adv-x="713" d="M641 -84H510L97 747H226L641 -84Z" />
<glyph unicode="]" horiz-adv-x="344" d="M360 800L209 -100H-3L17 19H113L224 681H128L148 800H360Z" />
<glyph unicode="^" horiz-adv-x="581" d="M95 373L305 700H428L215 373H95ZM415 373L308 700H426L528 373H415Z" />
<glyph unicode="_" horiz-adv-x="434" d="M-44 -113L-25 0H375L356 -113H-44Z" />
<glyph unicode="`" horiz-adv-x="64" d="M383 562L284 701H428L512 562H383Z" />
<glyph unicode="a" horiz-adv-x="597" d="M372 0L382 93L450 500H582L498 0H372ZM227 -12Q159 -12 112 19T44 107T30 239Q36 297 56 347T110 434T188 491T286 512Q353 512 392 480T447 393T454 263Q448 196 429 145T379 59T310 6T227 -12ZM270 109Q300 109 324
122T367 157T396 208T409 267Q414 322 386 356T311 390Q280 390 255 377T210 343T180 293T166 234Q163 180 191 145T270 109Z" />
<glyph unicode="b" horiz-adv-x="597" d="M15 0L132 700H264L163 93L140 0H15ZM371 512Q439 512 485 481T554 393T567 261Q561 203 541 153T487 66T410 9T312 -12Q245 -12 205 20T150 108T143 237Q149 304 168 355T218 441T288 494T371 512ZM328 391Q297 391 273
378T230 343T201 292T188 233Q184 178 211 144T287 110Q317 110 342 123T387 157T417 207T431 266Q434 320 406 355T328 391Z" />
<glyph unicode="c" horiz-adv-x="550" d="M261 -12Q204 -12 158 8T81 66T36 152T32 258Q45 334 82 391T182 480T327 512Q378 512 422 493T497 441T540 365L413 326Q400 357 375 373T312 389Q274 389 243 371T192 322T166 251Q158 210 170 179T208 129T271 111Q312
111 344 130T396 181L511 131Q471 60 406 24T261 -12Z" />
<glyph unicode="d" horiz-adv-x="597" d="M372 0L382 93L483 700H615L498 0H372ZM227 -12Q159 -12 112 19T44 107T30 239Q36 297 56 347T110 434T188 491T286 512Q353 512 392 480T447 393T454 263Q448 196 429 145T379 59T310 6T227 -12ZM270 109Q300 109 324
122T367 157T396 208T409 267Q414 322 386 356T311 390Q280 390 255 377T210 343T180 293T166 234Q163 180 191 145T270 109Z" />
<glyph unicode="e" horiz-adv-x="558" d="M254 -12Q176 -8 122 28T44 126T33 265Q46 342 88 399T194 486T334 511Q409 508 459 473T529 373T533 220H403Q413 277 409 320T383 388T317 415Q277 417 246 397T194 338T163 247Q155 197 166 163T203 111T265 92Q308
90 342 110T395 162L503 111Q478 65 437 37T349 -2T254 -12ZM115 220L119 308H474L470 220H115Z" />
<glyph unicode="f" horiz-adv-x="393" d="M65 0L157 551Q171 631 218 675T350 719Q379 719 410 709T466 685L403 590Q388 599 376 602T353 606Q325 606 309 588T286 527L197 0H65ZM48 394L66 500H404L386 394H48Z" />
<glyph unicode="g" horiz-adv-x="596" d="M210 -212Q152 -212 109 -203T36 -179T-11 -153L53 -53Q67 -60 88 -70T139 -88T212 -96Q272 -96 316 -60T374 50L449 500H581L507 54Q493 -31 455 -90T356 -181T210 -212ZM229 14Q157 14 109 46T40 138T34 275Q47 348
82 401T170 483T287 512Q356 512 397 479T451 387T451 252Q439 179 408 126T332 43T229 14ZM271 124Q305 124 334 141T382 188T409 258Q416 298 406 328T371 376T311 394Q276 394 247 377T197 331T170 262Q163 223 174 192T210 142T271 124Z" />
<glyph unicode="h" horiz-adv-x="569" d="M16 0L133 706H265L148 0H16ZM346 0L389 257L526 285L478 0H346ZM389 257Q398 307 391 335T366 376T319 388Q267 389 234 357T191 262L147 263Q160 343 192 398T272 483T375 512Q467 512 506 456T526 285L389 257Z" />
<glyph unicode="i" horiz-adv-x="262" d="M23 0L107 500H239L155 0H23ZM200 581Q169 581 147 603T124 657Q124 688 146 710T200 733Q231 733 253 711T276 657Q276 626 254 604T200 581Z" />
<glyph unicode="j" horiz-adv-x="277" d="M-30 -215Q-58 -215 -85 -207T-135 -184L-65 -75Q-36 -92 -16 -92Q34 -92 44 -29L133 500H265L175 -39Q161 -124 108 -169T-30 -215ZM226 581Q195 581 173 603T150 657Q150 688 172 710T226 733Q257 733 279 711T302 657Q302
626 280 604T226 581Z" />
<glyph unicode="k" horiz-adv-x="538" d="M15 0L132 700H265L148 0H15ZM166 127L99 218L400 500H561L166 127ZM337 0L210 242L308 333L488 0H337Z" />
<glyph unicode="l" horiz-adv-x="247" d="M15 0L133 700H265L147 0H15Z" />
<glyph unicode="m" horiz-adv-x="900" d="M15 0L99 500H223L215 408L147 0H15ZM346 0L389 257L526 286L478 0H346ZM677 0L720 257L857 285L809 0H677ZM389 257Q397 307 391 335T366 376T319 388Q267 389 234 357T190 262L146 263Q159 343 191 398T271 483T375
512Q467 512 506 456T526 285L389 257ZM720 257Q728 307 722 335T696 376T650 388Q598 389 565 357T521 262L477 263Q490 343 522 398T602 483T705 512Q797 512 837 456T857 285L720 257Z" />
<glyph unicode="n" horiz-adv-x="568" d="M15 0L99 500H223L215 408L147 0H15ZM346 0L389 257L526 285L478 0H346ZM389 257Q397 307 391 335T366 376T319 388Q267 389 234 357T190 262L146 263Q159 343 191 398T271 483T375 512Q467 512 506 456T526 285L389 257Z" />
<glyph unicode="o" horiz-adv-x="585" d="M270 -12Q191 -12 132 23T46 120T33 265Q45 338 85 394T185 481T316 512Q396 512 454 477T539 380T552 235Q540 162 500 106T401 19T270 -12ZM274 110Q309 110 339 127T391 175T419 247Q426 291 414 323T376 372T312 390Q277
390 247 373T195 325T166 253Q159 209 171 177T210 128T274 110Z" />
<glyph unicode="p" horiz-adv-x="602" d="M-13 -200L104 500H228L220 408L119 -200H-13ZM376 512Q444 512 491 481T559 393T572 261Q566 203 546 153T492 66T415 9T317 -12Q250 -12 210 20T155 108T148 237Q154 304 173 355T223 441T293 494T376 512ZM333 391Q302
391 278 378T235 343T206 292T193 233Q189 178 216 144T292 110Q322 110 347 123T392 157T423 207T436 266Q440 320 411 355T333 391Z" />
<glyph unicode="q" horiz-adv-x="602" d="M333 -200L434 407L458 500H582L465 -200H333ZM227 -12Q159 -12 112 19T44 107T30 239Q36 297 56 347T110 434T188 491T286 512Q353 512 392 480T447 393T454 263Q448 196 429 145T379 59T310 6T227 -12ZM270 109Q300
109 324 122T367 157T396 208T409 267Q414 322 386 356T311 390Q280 390 255 377T210 343T180 293T166 234Q163 180 191 145T270 109Z" />
<glyph unicode="r" horiz-adv-x="380" d="M15 0L99 500H231L147 0H15ZM151 261Q165 342 205 395T299 475T407 502L388 374Q342 374 300 363T228 326T191 262L151 261Z" />
<glyph unicode="s" horiz-adv-x="481" d="M196 -12Q143 -12 103 3T38 45T8 105L123 145Q132 114 156 101T205 87Q226 87 245 94T276 114T288 147Q288 166 272 178T222 200L180 211Q123 226 94 258T64 335Q64 389 93 429T172 490T290 512Q370 512 411 482T466 401L354
362Q348 389 328 400T274 412Q243 412 220 396T197 355Q197 341 213 329T262 308L302 298Q366 282 398 246T431 161Q431 105 398 67T312 8T196 -12Z" />
<glyph unicode="t" horiz-adv-x="407" d="M228 -12Q145 -12 110 29T88 147L173 656H305L224 175Q219 142 229 126T266 110Q276 110 289 115T318 128L349 29Q320 10 288 -1T228 -12ZM47 388L66 500H404L385 388H47Z" />
<glyph unicode="u" horiz-adv-x="569" d="M346 0L354 92L422 500H554L470 0H346ZM43 215L91 500H223L180 243L43 215ZM180 243Q171 193 178 165T204 124T250 112Q302 111 335 144T378 238L422 237Q409 157 377 102T298 17T194 -12Q103 -12 64 44T43 215L180 243Z" />
<glyph unicode="v" horiz-adv-x="557" d="M181 0L454 500H592L303 0H181ZM170 0L49 500H184L290 0H170Z" />
<glyph unicode="w" horiz-adv-x="841" d="M141 0L55 500H189L264 0H141ZM154 0L398 500H512L271 0H154ZM486 0L414 500H528L603 0H486ZM486 0L736 500H870L616 0H486Z" />
<glyph unicode="x" horiz-adv-x="536" d="M-32 0L221 286L400 500H557L311 221L127 0H-32ZM328 0L220 221L66 500H221L328 286L484 0H328Z" />
<glyph unicode="y" horiz-adv-x="576" d="M81 -212Q54 -212 23 -202T-31 -177L34 -70Q65 -90 87 -90Q109 -90 127 -79T159 -44L241 94L468 500H614L296 -44Q266 -94 238 -132T172 -191T81 -212ZM191 0L46 500H190L289 94L317 0H191Z" />
<glyph unicode="z" horiz-adv-x="477" d="M79 16L6 96L401 487L470 405L79 16ZM-10 0L6 96L87 108H421L403 0H-10ZM56 391L74 500H486L470 405L386 391H56Z" />
<glyph unicode="{" horiz-adv-x="396" d="M71 339L79 399Q116 399 138 409T173 446T194 520Q208 605 225 659T269 745T334 788T432 800L416 694Q386 694 367 677T334 620T307 505Q298 454 284 422T244 371T176 346T71 339ZM283 -100Q207 -100 170 -75T126 14T139
196Q147 239 144 262T123 293T65 301L74 361Q157 361 199 346T253 291T253 179Q242 110 241 73T254 21T299 6L283 -100Z" />
<glyph unicode="|" horiz-adv-x="256" d="M-3 -220L166 790H270L101 -220H-3Z" />
<glyph unicode="}" horiz-adv-x="395" d="M358 361L350 301Q314 301 292 291T256 254T235 180Q221 95 204 41T160 -45T95 -88T-3 -100L13 6Q44 6 63 23T96 81T122 195Q131 246 145 278T185 329T253 354T358 361ZM147 800Q222 800 259 775T303 686T290 504Q283
461 286 439T307 408T364 399L355 339Q273 339 230 354T176 410T176 521Q188 591 188 628T176 679T130 694L147 800Z" />
<glyph unicode="~" horiz-adv-x="664" d="M434 182Q390 182 352 203T293 267Q280 292 267 307T229 323Q206 323 188 306T160 253H55Q65 311 90 355T157 425T252 451Q304 451 339 428T389 377Q398 362 407 346T428 320T456 310Q484 310 500 329T526 380H632Q622
322 596 278T530 208T434 182Z" />
<glyph unicode="&#xa0;" horiz-adv-x="238" />
<glyph unicode="&#xa1;" horiz-adv-x="300" d="M224 269L153 -203H8L96 269H224ZM191 512Q216 512 234 500T261 468T266 424Q261 395 237 374T183 352Q159 352 141 364T113 396T108 440Q114 470 138 491T191 512Z" />
<glyph unicode="&#xa2;" horiz-adv-x="550" d="M214 0L331 700H404L285 0H214ZM279 98Q222 98 176 118T99 176T54 262T50 368Q63 444 100 501T200 590T345 622Q396 622 440 603T515 551T558 475L431 436Q418 467 393 483T330 499Q292 499 261 481T210 432T184
361Q176 320 188 289T226 239T289 221Q330 221 362 240T414 291L529 241Q489 170 424 134T279 98Z" />
<glyph unicode="&#xa3;" horiz-adv-x="595" d="M104 190L156 497Q168 568 203 616T290 688T407 712Q473 712 520 688T589 616T599 496L468 515Q475 556 457 577T405 598Q376 598 352 585T311 547T288 489L238 194L104 190ZM37 53L38 125Q59 125 79 144T104 190L238
194Q231 153 203 121T131 71T37 53ZM2 0L23 125H536L515 0H2ZM49 280L67 387H476L458 280H49Z" />
<glyph unicode="&#xa4;" horiz-adv-x="598" d="M294 154Q233 154 190 180T128 252T118 358Q128 413 159 454T237 520T340 544Q402 544 445 518T507 447T517 342Q508 287 476 245T397 178T294 154ZM295 266Q338 266 367 293T400 365Q403 395 387 413T340 432Q298
432 268 405T235 335Q232 305 248 286T295 266ZM124 119L59 193L190 309L257 236L124 119ZM217 387L111 507L194 581L301 460L217 387ZM437 119L340 232L425 304L521 193L437 119ZM438 395L371 467L508 581L573 507L438 395Z" />
<glyph unicode="&#xa5;" horiz-adv-x="596" d="M369 291L248 322L507 705H665L369 291ZM186 0L242 336H379L323 0H186ZM73 176L85 252H506L494 176H73ZM92 289L104 365H525L513 289H92ZM241 291L83 705H234L365 322L241 291Z" />
<glyph unicode="&#xa6;" horiz-adv-x="304" d="M117 350L190 790H294L221 350H117ZM21 -220L95 220H199L125 -220H21Z" />
<glyph unicode="&#xa7;" horiz-adv-x="524" d="M219 -91Q162 -91 119 -72T51 -24T23 38L126 63Q131 35 153 18T210 -1Q256 -1 289 20T327 76Q331 98 315 113T264 138L196 156Q140 172 107 212T84 315Q96 388 151 428T296 469Q349 469 385 453T442 408T471 342L376
319Q371 346 348 362T291 379Q250 379 222 358T188 301Q184 279 197 267T240 246L309 227Q375 209 408 164T432 61Q420 -7 366 -49T219 -91ZM260 152Q208 152 169 171T108 221T85 286L166 305Q171 288 185 274T218 252T256 243Q299 243 330 263T367 318Q371 341
355 356T304 381L236 400Q180 415 147 455T124 558Q137 631 192 671T336 712Q390 712 428 696T488 651T518 586L416 561Q412 589 392 605T336 622Q293 622 264 601T228 544Q224 522 238 509T281 488L349 470Q416 453 449 407T472 303Q461 235 406 194T260 152Z"
/>
<glyph unicode="&#xa8;" horiz-adv-x="468" d="M161 593Q133 593 113 613T93 662Q93 691 113 711T161 731Q190 731 210 711T230 662Q230 634 210 614T161 593ZM420 593Q392 593 372 613T351 662Q351 691 371 711T420 731Q449 731 469 711T489 662Q489 634 469
614T420 593Z" />
<glyph unicode="&#xa9;" horiz-adv-x="793" d="M386 152Q328 152 287 178T227 250T219 357Q228 413 259 456T336 523T437 547Q505 547 547 513T603 426L511 403Q504 431 486 446T439 461Q409 461 383 446T338 404T314 342Q306 297 326 268T387 238Q423 238 448
257T492 303L580 268Q550 215 500 184T386 152ZM362 -11Q283 -11 220 16T115 94T57 211T53 358Q66 434 103 498T196 611T320 685T465 712Q545 712 607 684T711 606T770 489T773 342Q761 266 724 202T631 90T507 16T362 -11ZM359 77Q439 77 508 113T623 213T683
358Q696 436 673 495T597 589T468 624Q388 624 320 588T204 488T144 342Q131 265 154 205T231 111T359 77Z" />
<glyph unicode="&#xaa;" horiz-adv-x="379" d="M273 400L278 456L319 700H414L363 400H273ZM187 393Q138 393 104 425T69 510Q69 564 87 609T141 680T231 707Q279 707 302 679T325 600Q325 566 318 530T294 462T251 412T187 393ZM220 481Q243 481 259 493T285
525T295 566Q295 590 281 604T244 619Q223 619 207 607T181 576T171 536Q171 512 184 497T220 481Z" />
<glyph unicode="&#xab;" horiz-adv-x="635" d="M290 298L471 500H626L450 298H290ZM408 96L293 298H446L555 96H408ZM55 298L236 500H391L215 298H55ZM173 96L58 298H211L320 96H173Z" />
<glyph unicode="&#xac;" horiz-adv-x="484" d="M57 279L75 388H441L423 279H57ZM294 161L332 388H441L403 161H294Z" />
<glyph unicode="&#xad;" horiz-adv-x="408" d="M52 241L72 354H372L352 241H52Z" />
<glyph unicode="&#xae;" horiz-adv-x="615" d="M301 157Q241 157 193 178T111 239T65 330T62 443Q72 500 100 549T171 634T266 691T376 712Q436 712 485 690T566 630T612 539T615 426Q605 369 577 320T506 235T411 178T301 157ZM301 221Q364 221 416 248T504 324T550
437Q561 501 543 548T482 622T376 648Q314 648 262 621T174 545T127 432Q117 368 134 321T195 247T301 221ZM210 296L259 587L368 588Q415 588 442 558T462 483Q458 457 442 437T397 404L441 296H370L330 394H291L275 296H210ZM301 454H344Q361 454 377 467T397
499Q400 512 391 520T363 528H314L301 454Z" />
<glyph unicode="&#xaf;" horiz-adv-x="324" d="M52 561L71 675H395L376 561H52Z" />
<glyph unicode="&#xb0;" horiz-adv-x="375" d="M217 422Q179 422 150 439T105 487T91 555Q93 601 116 636T178 691T263 712Q302 712 331 695T377 648T391 580Q389 535 365 499T303 443T217 422ZM229 508Q256 508 275 527T297 573Q299 595 286 610T252 626Q227
626 207 608T185 562Q183 540 195 524T229 508Z" />
<glyph unicode="&#xb1;" horiz-adv-x="632" d="M248 162L319 584H426L355 162H248ZM97 322L114 423H576L559 322H97ZM46 18L62 110H524L508 18H46Z" />
<glyph unicode="&#xb2;" horiz-adv-x="367" d="M154 389L67 453Q72 482 103 515T178 574L236 609Q260 623 281 642T303 681Q305 698 294 709T261 720Q238 720 219 705T190 669L91 692Q107 738 152 773T261 808Q339 808 375 768T402 669Q396 628 369 598T299 543L250
512Q231 501 211 484T175 444T154 389ZM55 380L67 453L142 467H373L358 380H55Z" />
<glyph unicode="&#xb3;" horiz-adv-x="337" d="M200 373Q136 373 97 401T56 481L151 498Q154 490 157 481T169 465T194 458Q224 458 242 474T263 514Q265 529 252 541T200 554H164L175 618H200Q246 618 284 602T343 556T357 487Q351 450 327 425T270 386T200 373ZM168
575L178 634H206Q240 634 262 646T286 687Q287 700 276 711T247 722Q231 722 214 713T185 676L96 704Q108 739 134 762T192 796T255 807Q298 807 329 791T375 748T384 686Q377 647 349 622T280 586T199 575H168Z" />
<glyph unicode="&#xb4;" horiz-adv-x="411" d="M171 562L293 700H441L304 562H171Z" />
<glyph unicode="&#xb5;" horiz-adv-x="569" d="M-26 -200L91 500H223L154 89L142 88L94 -200H-26ZM237 -12Q166 -12 133 45T118 218L179 240Q171 190 176 163T199 124T242 111Q297 111 332 145T378 241L421 234Q402 115 356 52T237 -12ZM346 0L354 92L422 500H554L470
0H346Z" />
<glyph unicode="&#xb6;" horiz-adv-x="585" d="M258 232Q187 232 137 263T63 349T53 475Q64 542 102 592T198 671T327 700H379L301 232H258ZM214 -84L345 700H441L310 -84H214ZM357 -84L488 700H584L453 -84H357ZM414 575L435 700H499L478 575H414Z" />
<glyph unicode="&#xb7;" horiz-adv-x="260" d="M140 257Q116 257 98 269T71 302T66 346Q70 375 95 396T149 418Q173 418 191 406T218 374T223 329Q218 300 194 279T140 257Z" />
<glyph unicode="&#xb8;" horiz-adv-x="222" d="M34 -210Q11 -210 -16 -202T-71 -174L-43 -117Q-29 -126 -14 -131T13 -137Q37 -137 52 -128T67 -101Q67 -85 50 -77T2 -66L48 6L125 0L101 -30Q129 -40 144 -60T160 -105Q160 -156 127 -183T34 -210Z" />
<glyph unicode="&#xb9;" horiz-adv-x="283" d="M143 380L205 747L223 800H308L237 380H143ZM103 655L118 743Q133 742 152 750T190 773T223 800L279 739Q236 699 193 675T103 655Z" />
<glyph unicode="&#xba;" horiz-adv-x="362" d="M215 393Q165 393 130 414T80 472T72 558Q83 624 132 665T248 707Q297 707 331 686T382 628T390 542Q383 498 358 465T296 412T215 393ZM212 482Q241 482 265 503T294 558Q299 585 287 602T251 619Q221 619 198 598T168
542Q164 515 175 499T212 482Z" />
<glyph unicode="&#xbb;" horiz-adv-x="635" d="M361 298L180 96H25L202 298H361ZM243 500L358 298H205L96 500H243ZM596 298L414 96H260L436 298H596ZM478 500L593 298H439L331 500H478Z" />
<glyph unicode="&#xbc;" horiz-adv-x="842" d="M126 280L188 647L206 700H291L220 280H126ZM86 555L101 643Q116 642 135 650T173 673T206 700L262 639Q219 599 176 575T86 555ZM104 0L585 700H684L203 0H104ZM516 115L449 152L678 420L725 365L516 115ZM435 72L449
152L502 156H806L791 72H435ZM619 0L682 368L678 420H783L712 0H619Z" />
<glyph unicode="&#xbd;" horiz-adv-x="872" d="M126 280L188 647L206 700H291L220 280H126ZM86 555L101 643Q116 642 135 650T173 673T206 700L262 639Q219 599 176 575T86 555ZM104 0L585 700H684L203 0H104ZM595 9L508 73Q513 102 544 135T619 194L677 229Q701
243 722 262T744 301Q746 318 735 329T702 340Q679 340 660 325T631 289L532 312Q548 358 593 393T702 428Q780 428 816 388T843 289Q837 248 810 218T740 163L691 132Q672 121 652 104T616 64T595 9ZM496 0L508 73L583 87H814L799 0H496Z" />
<glyph unicode="&#xbe;" horiz-adv-x="897" d="M183 273Q119 273 80 301T39 381L134 398Q137 390 140 381T152 365T177 358Q207 358 225 374T246 414Q248 429 235 441T183 454H147L158 518H183Q229 518 267 502T326 456T340 387Q334 350 310 325T253 286T183 273ZM151
475L161 534H189Q223 534 245 546T269 587Q270 600 259 611T230 622Q214 622 197 613T168 576L79 604Q91 639 117 662T175 696T238 707Q281 707 312 691T358 648T367 586Q360 547 332 522T263 486T182 475H151ZM158 0L639 700H738L257 0H158ZM570 115L503 152L732
420L779 365L570 115ZM489 72L503 152L556 156H860L845 72H489ZM673 0L736 368L732 420H837L766 0H673Z" />
<glyph unicode="&#xbf;" horiz-adv-x="470" d="M317 206L306 121L236 115Q201 113 171 100T121 61T94 -1Q87 -42 110 -68T180 -95Q219 -95 250 -76T295 -31L411 -72Q380 -138 320 -176T178 -214Q106 -214 55 -185T-19 -103T-31 15Q-21 74 14 116T104 182T227 206H317ZM292
512Q326 512 349 489T370 431Q369 398 346 375T289 352Q255 352 232 376T210 434Q211 467 235 489T292 512ZM331 297L309 148H177L205 297H331Z" />
<glyph unicode="&#xc0;" horiz-adv-x="717" d="M-34 0L359 700H504L121 0H-34ZM528 0L377 700H507L666 0H528ZM123 154L143 275H582L562 154H123ZM418 750L319 889H463L547 750H418Z" />
<glyph unicode="&#xc1;" horiz-adv-x="717" d="M-34 0L359 700H504L121 0H-34ZM528 0L377 700H507L666 0H528ZM123 154L143 275H582L562 154H123ZM352 750L474 888H622L485 750H352Z" />
<glyph unicode="&#xc2;" horiz-adv-x="717" d="M-34 0L359 700H504L121 0H-34ZM528 0L377 700H507L666 0H528ZM123 154L143 275H582L562 154H123ZM241 761L389 900H520V897L370 761H241ZM510 761L402 897L403 900H521L622 761H510Z" />
<glyph unicode="&#xc3;" horiz-adv-x="717" d="M-34 0L359 700H504L121 0H-34ZM528 0L377 700H507L666 0H528ZM123 154L143 275H582L562 154H123ZM523 737Q489 737 472 748T445 773T429 798T408 809Q394 809 383 802T362 771H274Q291 833 323 864T412 895Q445
895 462 884T487 859T504 834T527 823Q545 823 555 834T570 862H659Q641 806 610 772T523 737Z" />
<glyph unicode="&#xc4;" horiz-adv-x="717" d="M-34 0L359 700H504L121 0H-34ZM528 0L377 700H507L666 0H528ZM123 154L143 275H582L562 154H123ZM328 781Q300 781 280 801T260 850Q260 879 280 899T328 919Q357 919 377 899T397 850Q397 822 377 802T328 781ZM587
781Q559 781 539 801T518 850Q518 879 538 899T587 919Q616 919 636 899T656 850Q656 822 636 802T587 781Z" />
<glyph unicode="&#xc5;" horiz-adv-x="717" d="M-34 0L359 700H504L121 0H-34ZM528 0L377 700H507L666 0H528ZM123 154L143 275H582L562 154H123ZM445 726Q400 726 369 754T338 826Q338 863 355 890T402 933T466 949Q511 949 541 921T573 849Q574 811 556 783T509
741T445 726ZM448 802Q466 802 478 814T490 848Q490 873 463 873Q445 873 433 861T421 827Q421 816 428 809T448 802Z" />
<glyph unicode="&#xc6;" horiz-adv-x="1019" d="M-34 0L480 700H626L124 0H-34ZM179 154L199 275H574L554 154H179ZM568 0L589 125H933L911 0H568ZM465 0L582 700H721L604 0H465ZM617 294L638 416H935L915 294H617ZM468 575L488 700H1024L1004 575H468Z" />
<glyph unicode="&#xc7;" horiz-adv-x="727" d="M350 -12Q245 -12 172 35T68 166T53 358Q71 462 127 542T268 667T452 712Q527 712 586 686T685 614T740 507L609 468Q598 505 575 531T521 572T450 587Q386 587 332 556T240 469T190 342Q179 274 196 223T254 142T355
112Q400 112 440 129T513 177T570 245L692 191Q656 130 603 84T485 13T350 -12ZM275 -210Q252 -210 225 -202T170 -174L198 -117Q212 -126 227 -131T254 -137Q278 -137 293 -128T308 -101Q308 -85 291 -77T243 -66L289 6L366 0L342 -30Q370 -40 385 -60T401 -105Q401
-156 368 -183T275 -210Z" />
<glyph unicode="&#xc8;" horiz-adv-x="589" d="M34 0L151 700H288L171 0H34ZM138 0L159 125H502L481 0H138ZM187 294L207 416H504L484 294H187ZM234 575L255 700H594L573 575H234ZM356 750L257 889H401L485 750H356Z" />
<glyph unicode="&#xc9;" horiz-adv-x="589" d="M34 0L151 700H288L171 0H34ZM138 0L159 125H502L481 0H138ZM187 294L207 416H504L484 294H187ZM234 575L255 700H594L573 575H234ZM290 750L412 888H560L423 750H290Z" />
<glyph unicode="&#xca;" horiz-adv-x="589" d="M34 0L151 700H288L171 0H34ZM138 0L159 125H502L481 0H138ZM187 294L207 416H504L484 294H187ZM234 575L255 700H594L573 575H234ZM179 761L327 900H458V897L308 761H179ZM448 761L340 897L341 900H459L560 761H448Z" />
<glyph unicode="&#xcb;" horiz-adv-x="589" d="M34 0L151 700H288L171 0H34ZM138 0L159 125H502L481 0H138ZM187 294L207 416H504L484 294H187ZM234 575L255 700H594L573 575H234ZM266 781Q238 781 218 801T198 850Q198 879 218 899T266 919Q295 919 315 899T335
850Q335 822 315 802T266 781ZM525 781Q497 781 477 801T456 850Q456 879 476 899T525 919Q554 919 574 899T594 850Q594 822 574 802T525 781Z" />
<glyph unicode="&#xcc;" horiz-adv-x="289" d="M34 0L151 700H288L171 0H34ZM205 750L106 889H250L334 750H205Z" />
<glyph unicode="&#xcd;" horiz-adv-x="289" d="M34 0L151 700H288L171 0H34ZM139 750L261 888H409L272 750H139Z" />
<glyph unicode="&#xce;" horiz-adv-x="289" d="M34 0L151 700H288L171 0H34ZM28 761L176 900H307V897L157 761H28ZM297 761L189 897L190 900H308L409 761H297Z" />
<glyph unicode="&#xcf;" horiz-adv-x="306" d="M169 781Q141 781 121 801T100 850Q100 879 120 899T169 919Q198 919 218 899T238 850Q238 822 218 802T169 781ZM338 781Q310 781 290 801T269 850Q269 879 289 899T338 919Q366 919 386 899T407 850Q407 822 387
802T338 781ZM44 0L161 700H297L180 0H44Z" />
<glyph unicode="&#xd0;" horiz-adv-x="746" d="M64 300L81 400H409L393 300H64ZM304 0L321 128Q369 128 414 145T495 194T556 267T589 358Q600 420 579 467T512 543T400 572L417 700Q524 700 599 654T709 528T726 342Q714 266 677 204T584 96T456 25T304 0ZM159
0L180 128H325L304 0H159ZM80 0L197 700H334L217 0H80ZM255 572L276 700H421L400 572H255Z" />
<glyph unicode="&#xd1;" horiz-adv-x="773" d="M519 0L174 625L294 700L637 78L519 0ZM34 0L151 700H294L268 579L171 0H34ZM519 0L636 700H772L655 0H519ZM548 725Q514 725 497 736T470 761T454 786T433 797Q419 797 408 790T387 759H299Q316 821 348 852T437
883Q470 883 487 872T512 847T529 822T552 811Q570 811 580 822T595 850H684Q666 794 635 760T548 725Z" />
<glyph unicode="&#xd2;" horiz-adv-x="789" d="M377 -12Q296 -12 231 15T121 94T59 215T55 370Q72 472 127 549T265 669T446 712Q527 712 592 684T702 605T763 484T767 329Q750 228 695 151T558 31T377 -12ZM383 113Q444 113 495 142T582 222T629 342Q641 413
621 468T554 555T441 586Q380 586 328 557T240 477T193 357Q181 286 202 231T270 145T383 113ZM432 750L333 889H477L561 750H432Z" />
<glyph unicode="&#xd3;" horiz-adv-x="789" d="M377 -12Q296 -12 231 15T121 94T59 215T55 370Q72 472 127 549T265 669T446 712Q527 712 592 684T702 605T763 484T767 329Q750 228 695 151T558 31T377 -12ZM383 113Q444 113 495 142T582 222T629 342Q641 413
621 468T554 555T441 586Q380 586 328 557T240 477T193 357Q181 286 202 231T270 145T383 113ZM366 750L488 888H636L499 750H366Z" />
<glyph unicode="&#xd4;" horiz-adv-x="789" d="M377 -12Q296 -12 231 15T121 94T59 215T55 370Q72 472 127 549T265 669T446 712Q527 712 592 684T702 605T763 484T767 329Q750 228 695 151T558 31T377 -12ZM383 113Q444 113 495 142T582 222T629 342Q641 413
621 468T554 555T441 586Q380 586 328 557T240 477T193 357Q181 286 202 231T270 145T383 113ZM255 761L403 900H534V897L384 761H255ZM524 761L416 897L417 900H535L636 761H524Z" />
<glyph unicode="&#xd5;" horiz-adv-x="789" d="M377 -12Q296 -12 231 15T121 94T59 215T55 370Q72 472 127 549T265 669T446 712Q527 712 592 684T702 605T763 484T767 329Q750 228 695 151T558 31T377 -12ZM383 113Q444 113 495 142T582 222T629 342Q641 413
621 468T554 555T441 586Q380 586 328 557T240 477T193 357Q181 286 202 231T270 145T383 113ZM537 737Q503 737 486 748T459 773T443 798T422 809Q408 809 397 802T376 771H288Q305 833 337 864T426 895Q459 895 476 884T501 859T518 834T541 823Q559 823 569
834T584 862H673Q655 806 624 772T537 737Z" />
<glyph unicode="&#xd6;" horiz-adv-x="789" d="M377 -12Q296 -12 231 15T121 94T59 215T55 370Q72 472 127 549T265 669T446 712Q527 712 592 684T702 605T763 484T767 329Q750 228 695 151T558 31T377 -12ZM383 113Q444 113 495 142T582 222T629 342Q641 413
621 468T554 555T441 586Q380 586 328 557T240 477T193 357Q181 286 202 231T270 145T383 113ZM342 781Q314 781 294 801T274 850Q274 879 294 899T342 919Q371 919 391 899T411 850Q411 822 391 802T342 781ZM601 781Q573 781 553 801T532 850Q532 879 552 899T601
919Q630 919 650 899T670 850Q670 822 650 802T601 781Z" />
<glyph unicode="&#xd7;" horiz-adv-x="632" d="M426 91L139 431L222 505L509 165L426 91ZM160 91L95 165L487 505L552 431L160 91Z" />
<glyph unicode="&#xd8;" horiz-adv-x="800" d="M-12 0L711 700H845L121 0H-12ZM379 -12Q298 -12 233 15T123 94T61 215T57 370Q74 472 129 549T267 669T448 712Q529 712 594 684T703 605T765 484T769 329Q752 228 697 151T559 31T379 -12ZM385 113Q446 113 497
142T584 222T631 342Q643 413 622 468T555 555T443 586Q382 586 330 557T242 477T195 357Q183 286 204 231T272 145T385 113Z" />
<glyph unicode="&#xd9;" horiz-adv-x="704" d="M314 -14Q225 -14 166 20T81 116T68 261H205Q197 215 209 182T249 131T320 113Q367 113 406 131T470 183T503 261H640Q625 176 581 114T469 19T314 -14ZM68 261L141 700H278L205 261H68ZM503 261L576 700H713L640
261H503ZM412 750L313 889H457L541 750H412Z" />
<glyph unicode="&#xda;" horiz-adv-x="704" d="M314 -14Q225 -14 166 20T81 116T68 261H205Q197 215 209 182T249 131T320 113Q367 113 406 131T470 183T503 261H640Q625 176 581 114T469 19T314 -14ZM68 261L141 700H278L205 261H68ZM503 261L576 700H713L640
261H503ZM346 750L468 888H616L479 750H346Z" />
<glyph unicode="&#xdb;" horiz-adv-x="704" d="M314 -14Q225 -14 166 20T81 116T68 261H205Q197 215 209 182T249 131T320 113Q367 113 406 131T470 183T503 261H640Q625 176 581 114T469 19T314 -14ZM68 261L141 700H278L205 261H68ZM503 261L576 700H713L640
261H503ZM235 761L383 900H514V897L364 761H235ZM504 761L396 897L397 900H515L616 761H504Z" />
<glyph unicode="&#xdc;" horiz-adv-x="704" d="M314 -14Q225 -14 166 20T81 116T68 261H205Q197 215 209 182T249 131T320 113Q367 113 406 131T470 183T503 261H640Q625 176 581 114T469 19T314 -14ZM68 261L141 700H278L205 261H68ZM503 261L576 700H713L640
261H503ZM322 781Q294 781 274 801T254 850Q254 879 274 899T322 919Q351 919 371 899T391 850Q391 822 371 802T322 781ZM581 781Q553 781 533 801T512 850Q512 879 532 899T581 919Q610 919 630 899T650 850Q650 822 630 802T581 781Z" />
<glyph unicode="&#xdd;" horiz-adv-x="647" d="M396 289L269 322L558 700H717L396 289ZM213 0L269 336H406L350 0H213ZM268 289L84 700H237L399 322L268 289ZM314 732L436 870H584L447 732H314Z" />
<glyph unicode="&#xde;" horiz-adv-x="615" d="M185 125L206 250H345Q383 250 411 266T455 309T475 367Q480 412 455 440T380 468H242L263 592L398 593Q464 594 515 567T593 491T616 378Q612 306 575 249T477 158T339 125H185ZM40 1L157 701H297L180 1H40Z" />
<glyph unicode="&#xdf;" horiz-adv-x="587" d="M15 0L98 497Q111 568 147 616T240 688T364 712Q435 712 485 688T559 616T571 500Q565 461 545 427T493 366T418 324T327 309H284L302 417H306Q347 417 375 429T419 464T441 518Q448 556 425 577T362 598Q329 598
301 585T255 547T231 489L149 0H15ZM230 0L250 121H287Q336 121 370 147T412 214Q419 251 396 272T325 293H281L299 396H307Q441 396 500 346T542 186Q526 96 459 48T288 0H230Z" />
<glyph unicode="&#xe0;" horiz-adv-x="597" d="M372 0L382 93L450 500H582L498 0H372ZM227 -12Q159 -12 112 19T44 107T30 239Q36 297 56 347T110 434T188 491T286 512Q353 512 392 480T447 393T454 263Q448 196 429 145T379 59T310 6T227 -12ZM270 109Q300 109
324 122T367 157T396 208T409 267Q414 322 386 356T311 390Q280 390 255 377T210 343T180 293T166 234Q163 180 191 145T270 109ZM297 562L198 701H342L426 562H297Z" />
<glyph unicode="&#xe1;" horiz-adv-x="597" d="M372 0L382 93L450 500H582L498 0H372ZM227 -12Q159 -12 112 19T44 107T30 239Q36 297 56 347T110 434T188 491T286 512Q353 512 392 480T447 393T454 263Q448 196 429 145T379 59T310 6T227 -12ZM270 109Q300 109
324 122T367 157T396 208T409 267Q414 322 386 356T311 390Q280 390 255 377T210 343T180 293T166 234Q163 180 191 145T270 109ZM231 562L353 700H501L364 562H231Z" />
<glyph unicode="&#xe2;" horiz-adv-x="597" d="M372 0L382 93L450 500H582L498 0H372ZM227 -12Q159 -12 112 19T44 107T30 239Q36 297 56 347T110 434T188 491T286 512Q353 512 392 480T447 393T454 263Q448 196 429 145T379 59T310 6T227 -12ZM270 109Q300 109
324 122T367 157T396 208T409 267Q414 322 386 356T311 390Q280 390 255 377T210 343T180 293T166 234Q163 180 191 145T270 109ZM120 573L268 712H399V709L249 573H120ZM389 573L281 709L282 712H400L501 573H389Z" />
<glyph unicode="&#xe3;" horiz-adv-x="597" d="M372 0L382 93L450 500H582L498 0H372ZM227 -12Q159 -12 112 19T44 107T30 239Q36 297 56 347T110 434T188 491T286 512Q353 512 392 480T447 393T454 263Q448 196 429 145T379 59T310 6T227 -12ZM270 109Q300 109
324 122T367 157T396 208T409 267Q414 322 386 356T311 390Q280 390 255 377T210 343T180 293T166 234Q163 180 191 145T270 109ZM403 549Q369 549 352 560T325 585T309 610T288 621Q274 621 263 614T242 583H154Q171 645 203 676T292 707Q325 707 342 696T367
671T384 646T407 635Q425 635 435 646T450 674H539Q521 618 490 584T403 549Z" />
<glyph unicode="&#xe4;" horiz-adv-x="597" d="M372 0L382 93L450 500H582L498 0H372ZM227 -12Q159 -12 112 19T44 107T30 239Q36 297 56 347T110 434T188 491T286 512Q353 512 392 480T447 393T454 263Q448 196 429 145T379 59T310 6T227 -12ZM270 109Q300 109
324 122T367 157T396 208T409 267Q414 322 386 356T311 390Q280 390 255 377T210 343T180 293T166 234Q163 180 191 145T270 109ZM208 593Q180 593 160 613T140 662Q140 691 160 711T208 731Q237 731 257 711T277 662Q277 634 257 614T208 593ZM467 593Q439 593
419 613T398 662Q398 691 418 711T467 731Q496 731 516 711T536 662Q536 634 516 614T467 593Z" />
<glyph unicode="&#xe5;" horiz-adv-x="597" d="M372 0L382 93L450 500H582L498 0H372ZM227 -12Q159 -12 112 19T44 107T30 239Q36 297 56 347T110 434T188 491T286 512Q353 512 392 480T447 393T454 263Q448 196 429 145T379 59T310 6T227 -12ZM270 109Q300 109
324 122T367 157T396 208T409 267Q414 322 386 356T311 390Q280 390 255 377T210 343T180 293T166 234Q163 180 191 145T270 109ZM325 538Q280 538 249 566T218 638Q218 675 235 702T282 745T346 761Q391 761 421 733T453 661Q454 623 436 595T389 553T325 538ZM328
614Q346 614 358 626T370 660Q370 685 343 685Q325 685 313 673T301 639Q301 628 308 621T328 614Z" />
<glyph unicode="&#xe6;" horiz-adv-x="877" d="M345 168L354 258Q359 305 358 337T340 386T282 404Q246 404 219 389T170 346L55 393Q100 451 156 481T284 512Q354 512 397 483T457 400T461 272L443 168H345ZM181 -12Q91 -12 47 30T14 149Q26 222 79 258T219 295H387L373
211H259Q205 211 178 192T145 137Q141 113 157 100T209 86Q264 86 299 123T345 218L450 221Q432 110 362 49T181 -12ZM573 -12Q495 -8 441 28T363 126T352 265Q365 342 407 399T513 486T653 511Q728 508 778 473T848 373T852 220H722Q732 277 728 320T702 388T636
415Q596 417 565 397T513 338T483 247Q474 197 485 163T522 111T584 92Q627 90 661 110T714 162L822 111Q797 65 756 37T668 -2T573 -12ZM434 220L438 308H793L789 220H434Z" />
<glyph unicode="&#xe7;" horiz-adv-x="550" d="M261 -12Q204 -12 158 8T81 66T36 152T32 258Q45 334 82 391T182 480T327 512Q378 512 422 493T497 441T540 365L413 326Q400 357 375 373T312 389Q274 389 243 371T192 322T166 251Q158 210 170 179T208 129T271
111Q312 111 344 130T396 181L511 131Q471 60 406 24T261 -12ZM184 -211Q161 -211 134 -203T79 -175L107 -118Q121 -127 136 -132T163 -138Q187 -138 202 -129T217 -102Q217 -86 200 -78T152 -67L198 5L275 -1L251 -31Q279 -41 294 -61T310 -106Q310 -157 277 -184T184
-211Z" />
<glyph unicode="&#xe8;" horiz-adv-x="558" d="M254 -12Q176 -8 122 28T44 126T33 265Q46 342 88 399T194 486T334 511Q409 508 459 473T529 373T533 220H403Q413 277 409 320T383 388T317 415Q277 417 246 397T194 338T163 247Q155 197 166 163T203 111T265 92Q308
90 342 110T395 162L503 111Q478 65 437 37T349 -2T254 -12ZM115 220L119 308H474L470 220H115ZM320 562L221 701H365L449 562H320Z" />
<glyph unicode="&#xe9;" horiz-adv-x="558" d="M254 -12Q176 -8 122 28T44 126T33 265Q46 342 88 399T194 486T334 511Q409 508 459 473T529 373T533 220H403Q413 277 409 320T383 388T317 415Q277 417 246 397T194 338T163 247Q155 197 166 163T203 111T265 92Q308
90 342 110T395 162L503 111Q478 65 437 37T349 -2T254 -12ZM115 220L119 308H474L470 220H115ZM254 562L376 700H524L387 562H254Z" />
<glyph unicode="&#xea;" horiz-adv-x="558" d="M254 -12Q176 -8 122 28T44 126T33 265Q46 342 88 399T194 486T334 511Q409 508 459 473T529 373T533 220H403Q413 277 409 320T383 388T317 415Q277 417 246 397T194 338T163 247Q155 197 166 163T203 111T265 92Q308
90 342 110T395 162L503 111Q478 65 437 37T349 -2T254 -12ZM115 220L119 308H474L470 220H115ZM143 573L291 712H422V709L272 573H143ZM412 573L304 709L305 712H423L524 573H412Z" />
<glyph unicode="&#xeb;" horiz-adv-x="558" d="M254 -12Q176 -8 122 28T44 126T33 265Q46 342 88 399T194 486T334 511Q409 508 459 473T529 373T533 220H403Q413 277 409 320T383 388T317 415Q277 417 246 397T194 338T163 247Q155 197 166 163T203 111T265 92Q308
90 342 110T395 162L503 111Q478 65 437 37T349 -2T254 -12ZM115 220L119 308H474L470 220H115ZM230 593Q202 593 182 613T162 662Q162 691 182 711T230 731Q259 731 279 711T299 662Q299 634 279 614T230 593ZM489 593Q461 593 441 613T420 662Q420 691 440 711T489
731Q518 731 538 711T558 662Q558 634 538 614T489 593Z" />
<glyph unicode="&#xec;" horiz-adv-x="262" d="M23 0L107 500H239L155 0H23ZM416 562L317 701H461L545 562H416Z" />
<glyph unicode="&#xed;" horiz-adv-x="262" d="M23 0L107 500H239L155 0H23ZM350 562L472 700H620L483 562H350Z" />
<glyph unicode="&#xee;" horiz-adv-x="262" d="M23 0L107 500H239L155 0H23ZM239 573L387 712H518V709L368 573H239ZM508 573L400 709L401 712H519L620 573H508Z" />
<glyph unicode="&#xef;" horiz-adv-x="262" d="M113 593Q85 593 65 613T44 662Q44 691 64 711T113 731Q142 731 162 711T182 662Q182 634 162 614T113 593ZM282 593Q254 593 234 613T213 662Q213 691 233 711T282 731Q310 731 330 711T351 662Q351 634 331 614T282
593ZM23 0L107 500H239L155 0H23Z" />
<glyph unicode="&#xf0;" horiz-adv-x="572" d="M246 -12Q170 -12 117 20T40 108T28 238Q40 307 76 359T169 441T294 471Q326 471 356 461T412 433T452 393T468 347L529 238Q517 164 477 108T377 20T246 -12ZM248 107Q285 107 315 124T366 170T393 238Q399 271
390 296T359 336T305 351Q270 351 240 335T188 289T160 221Q155 188 164 162T195 122T248 107ZM530 238L413 304Q425 370 422 422T397 512T327 578T204 623L238 733Q326 718 385 685T479 605T529 500T544 375T530 238ZM290 490L263 545L529 690L556 636L290 490Z"
/>
<glyph unicode="&#xf1;" horiz-adv-x="568" d="M15 0L99 500H223L215 408L147 0H15ZM346 0L389 257L526 285L478 0H346ZM389 257Q397 307 391 335T366 376T319 388Q267 389 234 357T190 262L146 263Q159 343 191 398T271 483T375 512Q467 512 506 456T526 285L389
257ZM456 549Q422 549 405 560T378 585T362 610T341 621Q327 621 316 614T295 583H207Q224 645 256 676T345 707Q378 707 395 696T420 671T437 646T460 635Q478 635 488 646T503 674H592Q574 618 543 584T456 549Z" />
<glyph unicode="&#xf2;" horiz-adv-x="585" d="M270 -12Q191 -12 132 23T46 120T33 265Q45 338 85 394T185 481T316 512Q396 512 454 477T539 380T552 235Q540 162 500 106T401 19T270 -12ZM274 110Q309 110 339 127T391 175T419 247Q426 291 414 323T376 372T312
390Q277 390 247 373T195 325T166 253Q159 209 171 177T210 128T274 110ZM319 562L220 701H364L448 562H319Z" />
<glyph unicode="&#xf3;" horiz-adv-x="585" d="M270 -12Q191 -12 132 23T46 120T33 265Q45 338 85 394T185 481T316 512Q396 512 454 477T539 380T552 235Q540 162 500 106T401 19T270 -12ZM274 110Q309 110 339 127T391 175T419 247Q426 291 414 323T376 372T312
390Q277 390 247 373T195 325T166 253Q159 209 171 177T210 128T274 110ZM253 562L375 700H523L386 562H253Z" />
<glyph unicode="&#xf4;" horiz-adv-x="585" d="M270 -12Q191 -12 132 23T46 120T33 265Q45 338 85 394T185 481T316 512Q396 512 454 477T539 380T552 235Q540 162 500 106T401 19T270 -12ZM274 110Q309 110 339 127T391 175T419 247Q426 291 414 323T376 372T312
390Q277 390 247 373T195 325T166 253Q159 209 171 177T210 128T274 110ZM142 573L290 712H421V709L271 573H142ZM411 573L303 709L304 712H422L523 573H411Z" />
<glyph unicode="&#xf5;" horiz-adv-x="585" d="M270 -12Q191 -12 132 23T46 120T33 265Q45 338 85 394T185 481T316 512Q396 512 454 477T539 380T552 235Q540 162 500 106T401 19T270 -12ZM274 110Q309 110 339 127T391 175T419 247Q426 291 414 323T376 372T312
390Q277 390 247 373T195 325T166 253Q159 209 171 177T210 128T274 110ZM425 549Q391 549 374 560T347 585T331 610T310 621Q296 621 285 614T264 583H176Q193 645 225 676T314 707Q347 707 364 696T389 671T406 646T429 635Q447 635 457 646T472 674H561Q543
618 512 584T425 549Z" />
<glyph unicode="&#xf6;" horiz-adv-x="585" d="M270 -12Q191 -12 132 23T46 120T33 265Q45 338 85 394T185 481T316 512Q396 512 454 477T539 380T552 235Q540 162 500 106T401 19T270 -12ZM274 110Q309 110 339 127T391 175T419 247Q426 291 414 323T376 372T312
390Q277 390 247 373T195 325T166 253Q159 209 171 177T210 128T274 110ZM230 593Q202 593 182 613T162 662Q162 691 182 711T230 731Q259 731 279 711T299 662Q299 634 279 614T230 593ZM489 593Q461 593 441 613T420 662Q420 691 440 711T489 731Q518 731 538
711T558 662Q558 634 538 614T489 593Z" />
<glyph unicode="&#xf7;" horiz-adv-x="632" d="M110 243L128 352H538L520 243H110ZM295 74Q268 74 251 94T239 142Q242 163 259 178T298 193Q325 193 342 173T355 125Q352 104 334 89T295 74ZM350 402Q323 402 306 422T293 470Q297 491 314 506T353 521Q380 521
397 501T409 453Q406 432 389 417T350 402Z" />
<glyph unicode="&#xf8;" horiz-adv-x="589" d="M-25 0L500 500H614L88 0H-25ZM272 -12Q193 -12 134 23T48 120T35 265Q47 338 87 394T187 481T318 512Q398 512 456 477T541 380T554 235Q542 162 502 106T403 19T272 -12ZM276 110Q311 110 341 127T393 175T421
247Q428 291 416 323T378 372T314 390Q279 390 249 373T197 325T168 253Q161 209 173 177T212 128T276 110Z" />
<glyph unicode="&#xf9;" horiz-adv-x="569" d="M346 0L354 92L422 500H554L470 0H346ZM43 215L91 500H223L180 243L43 215ZM180 243Q171 193 178 165T204 124T250 112Q302 111 335 144T378 238L422 237Q409 157 377 102T298 17T194 -12Q103 -12 64 44T43 215L180
243ZM308 562L209 701H353L437 562H308Z" />
<glyph unicode="&#xfa;" horiz-adv-x="569" d="M346 0L354 92L422 500H554L470 0H346ZM43 215L91 500H223L180 243L43 215ZM180 243Q171 193 178 165T204 124T250 112Q302 111 335 144T378 238L422 237Q409 157 377 102T298 17T194 -12Q103 -12 64 44T43 215L180
243ZM242 562L364 700H512L375 562H242Z" />
<glyph unicode="&#xfb;" horiz-adv-x="569" d="M346 0L354 92L422 500H554L470 0H346ZM43 215L91 500H223L180 243L43 215ZM180 243Q171 193 178 165T204 124T250 112Q302 111 335 144T378 238L422 237Q409 157 377 102T298 17T194 -12Q103 -12 64 44T43 215L180
243ZM131 573L279 712H410V709L260 573H131ZM400 573L292 709L293 712H411L512 573H400Z" />
<glyph unicode="&#xfc;" horiz-adv-x="569" d="M346 0L354 92L422 500H554L470 0H346ZM43 215L91 500H223L180 243L43 215ZM180 243Q171 193 178 165T204 124T250 112Q302 111 335 144T378 238L422 237Q409 157 377 102T298 17T194 -12Q103 -12 64 44T43 215L180
243ZM218 593Q190 593 170 613T150 662Q150 691 170 711T218 731Q247 731 267 711T287 662Q287 634 267 614T218 593ZM477 593Q449 593 429 613T408 662Q408 691 428 711T477 731Q506 731 526 711T546 662Q546 634 526 614T477 593Z" />
<glyph unicode="&#xfd;" horiz-adv-x="576" d="M81 -212Q54 -212 23 -202T-31 -177L34 -70Q65 -90 87 -90Q109 -90 127 -79T159 -44L241 94L468 500H614L296 -44Q266 -94 238 -132T172 -191T81 -212ZM191 0L46 500H190L289 94L317 0H191ZM250 562L372 700H520L383
562H250Z" />
<glyph unicode="&#xfe;" horiz-adv-x="597" d="M-18 -200L132 700H264L114 -200H-18ZM371 512Q439 512 486 481T554 393T567 261Q561 203 541 153T487 66T410 9T312 -12Q245 -12 205 20T150 108T143 237Q149 304 168 355T218 441T288 494T371 512ZM328 391Q297
391 273 378T230 343T201 292T188 233Q184 178 211 144T287 110Q317 110 342 123T387 157T418 207T431 266Q435 320 406 355T328 391Z" />
<glyph unicode="&#xff;" horiz-adv-x="576" d="M81 -212Q54 -212 23 -202T-31 -177L34 -70Q65 -90 87 -90Q109 -90 127 -79T159 -44L241 94L468 500H614L296 -44Q266 -94 238 -132T172 -191T81 -212ZM191 0L46 500H190L289 94L317 0H191ZM226 593Q198 593 178
613T158 662Q158 691 178 711T226 731Q255 731 275 711T295 662Q295 634 275 614T226 593ZM485 593Q457 593 437 613T416 662Q416 691 436 711T485 731Q514 731 534 711T554 662Q554 634 534 614T485 593Z" />
<glyph unicode="&#x2013;" horiz-adv-x="550" d="M-2 241L18 354H568L548 241H-2Z" />
<glyph unicode="&#x2014;" horiz-adv-x="1100" d="M-2 241L18 354H1118L1098 241H-2Z" />
<glyph unicode="&#x2018;" horiz-adv-x="222" d="M284 700L183 464H44L182 700H284Z" />
<glyph unicode="&#x2019;" horiz-adv-x="222" d="M48 464L149 700H289L151 464H48Z" />
<glyph unicode="&#x201a;" horiz-adv-x="252" d="M-33 -114L68 122H208L70 -114H-33Z" />
<glyph unicode="&#x201c;" horiz-adv-x="417" d="M284 702L183 466H44L182 702H284ZM480 702L379 466H240L378 702H480Z" />
<glyph unicode="&#x201d;" horiz-adv-x="418" d="M244 464L345 700H485L347 464H244ZM48 464L149 700H289L151 464H48Z" />
<glyph unicode="&#x201e;" horiz-adv-x="409" d="M142 -114L243 122H383L245 -114H142ZM203 -114L304 122H444L306 -114H203Z" />
<glyph unicode="&#x2022;" horiz-adv-x="468" d="M228 166Q193 166 167 183T128 230T121 294Q127 325 145 349T192 389T250 404Q286 404 312 387T352 341T359 277Q354 247 335 222T288 181T228 166Z" />
<glyph unicode="&#x2039;" horiz-adv-x="403" d="M55 298L236 500H391L215 298H55ZM173 96L58 298H211L320 96H173Z" />
<glyph unicode="&#x203a;" horiz-adv-x="403" d="M364 298L183 96H28L205 298H364ZM246 500L361 298H208L99 500H246Z" />
</font>
</defs>
</svg>
